<svg width="300" height="300" viewBox="0 0 300 300" fill="none" xmlns="http://www.w3.org/2000/svg">
<mask id="mask0_12_139" style="mask-type:luminance" maskUnits="userSpaceOnUse" x="39" y="39" width="222" height="222">
<path d="M39.1406 39.1406H260.859V260.859H39.1406V39.1406Z" fill="white"/>
</mask>
<g mask="url(#mask0_12_139)">
<mask id="mask1_12_139" style="mask-type:luminance" maskUnits="userSpaceOnUse" x="39" y="39" width="222" height="222">
<path d="M150 39.1406C88.775 39.1406 39.1406 88.775 39.1406 150C39.1406 211.225 88.775 260.859 150 260.859C211.225 260.859 260.859 211.225 260.859 150C260.859 88.775 211.225 39.1406 150 39.1406Z" fill="white"/>
</mask>
<g mask="url(#mask1_12_139)">
<path d="M39.1406 39.1406H260.859V260.859H39.1406V39.1406Z" fill="white"/>
</g>
</g>
<path d="M140.572 197.497C139.941 197.5 139.334 197.381 138.75 197.144C138.166 196.906 137.65 196.566 137.203 196.122L122.972 181.891C122.75 181.669 122.55 181.428 122.375 181.169C122.203 180.909 122.053 180.634 121.934 180.347C121.813 180.056 121.722 179.759 121.659 179.45C121.6 179.144 121.569 178.834 121.569 178.522C121.569 178.209 121.6 177.897 121.659 177.591C121.722 177.284 121.813 176.988 121.934 176.697C122.053 176.409 122.203 176.134 122.375 175.875C122.55 175.613 122.75 175.375 122.972 175.153L137.203 160.922C137.425 160.7 137.666 160.503 137.925 160.328C138.184 160.156 138.459 160.009 138.75 159.891C139.038 159.769 139.334 159.678 139.641 159.619C139.95 159.556 140.259 159.528 140.572 159.528C140.884 159.528 141.194 159.556 141.5 159.619C141.806 159.678 142.106 159.769 142.394 159.891C142.684 160.009 142.956 160.156 143.219 160.328C143.478 160.503 143.719 160.7 143.941 160.922C144.159 161.144 144.359 161.384 144.531 161.644C144.706 161.903 144.853 162.178 144.972 162.469C145.091 162.756 145.181 163.053 145.244 163.359C145.303 163.669 145.334 163.978 145.334 164.291C145.334 164.603 145.303 164.913 145.244 165.219C145.181 165.525 145.091 165.825 144.972 166.113C144.853 166.403 144.706 166.675 144.531 166.938C144.359 167.197 144.159 167.438 143.941 167.659L133.028 178.522L143.941 189.384C144.275 189.716 144.553 190.091 144.775 190.503C145 190.919 145.156 191.356 145.25 191.819C145.344 192.281 145.366 192.747 145.319 193.216C145.275 193.684 145.159 194.138 144.981 194.572C144.8 195.006 144.559 195.406 144.259 195.769C143.959 196.134 143.613 196.444 143.222 196.706C142.828 196.966 142.406 197.163 141.956 197.297C141.503 197.434 141.044 197.5 140.572 197.497Z" fill="#9F85EC"/>
<path d="M188.009 197.497C187.538 197.5 187.075 197.434 186.625 197.297C186.175 197.163 185.75 196.966 185.359 196.706C184.966 196.444 184.619 196.134 184.322 195.769C184.022 195.406 183.781 195.006 183.6 194.572C183.419 194.138 183.306 193.684 183.259 193.216C183.216 192.747 183.238 192.281 183.331 191.819C183.422 191.356 183.581 190.919 183.803 190.503C184.028 190.091 184.306 189.716 184.641 189.384L195.55 178.522L184.641 167.659C184.419 167.438 184.222 167.197 184.047 166.938C183.875 166.675 183.728 166.403 183.609 166.113C183.488 165.825 183.397 165.525 183.338 165.219C183.275 164.913 183.247 164.603 183.247 164.291C183.247 163.978 183.275 163.669 183.338 163.359C183.397 163.053 183.488 162.756 183.609 162.469C183.728 162.178 183.875 161.903 184.047 161.644C184.222 161.384 184.419 161.144 184.641 160.922C184.863 160.7 185.103 160.503 185.363 160.328C185.622 160.156 185.897 160.009 186.188 159.891C186.475 159.769 186.772 159.678 187.078 159.619C187.388 159.556 187.697 159.528 188.009 159.528C188.322 159.528 188.631 159.556 188.938 159.619C189.244 159.678 189.544 159.769 189.831 159.891C190.122 160.009 190.394 160.156 190.656 160.328C190.916 160.503 191.156 160.7 191.378 160.922L205.609 175.153C205.831 175.375 206.028 175.613 206.203 175.875C206.378 176.134 206.525 176.409 206.647 176.697C206.766 176.988 206.856 177.284 206.919 177.591C206.981 177.897 207.013 178.209 207.013 178.522C207.013 178.834 206.981 179.144 206.919 179.45C206.856 179.759 206.766 180.056 206.647 180.347C206.525 180.634 206.378 180.909 206.203 181.169C206.028 181.428 205.831 181.669 205.609 181.891L191.378 196.122C190.928 196.566 190.413 196.906 189.831 197.144C189.247 197.381 188.641 197.5 188.009 197.497Z" fill="#9F85EC"/>
<path d="M159.547 206.984C159.191 206.991 158.837 206.959 158.491 206.888C158.141 206.816 157.806 206.706 157.481 206.556C157.159 206.409 156.856 206.228 156.572 206.013C156.291 205.797 156.034 205.55 155.806 205.278C155.578 205.003 155.384 204.709 155.222 204.394C155.062 204.075 154.937 203.744 154.85 203.4C154.762 203.053 154.716 202.703 154.706 202.347C154.7 201.991 154.731 201.641 154.803 201.291L164.291 153.853C164.353 153.544 164.444 153.241 164.566 152.947C164.687 152.653 164.837 152.375 165.016 152.112C165.191 151.85 165.394 151.606 165.619 151.381C165.844 151.156 166.087 150.956 166.35 150.781C166.616 150.606 166.894 150.456 167.187 150.334C167.481 150.216 167.784 150.122 168.094 150.062C168.406 150 168.722 149.969 169.037 149.969C169.356 149.969 169.672 150 169.981 150.062C170.294 150.125 170.594 150.219 170.887 150.341C171.181 150.463 171.459 150.609 171.725 150.788C171.987 150.963 172.231 151.166 172.456 151.388C172.681 151.613 172.881 151.856 173.056 152.122C173.234 152.384 173.381 152.666 173.503 152.959C173.625 153.25 173.716 153.553 173.778 153.866C173.841 154.175 173.872 154.491 173.872 154.809C173.872 155.125 173.841 155.441 173.778 155.75L164.291 203.188C164.178 203.731 163.978 204.241 163.691 204.716C163.4 205.188 163.037 205.6 162.606 205.944C162.172 206.291 161.694 206.553 161.166 206.734C160.641 206.913 160.1 206.994 159.547 206.984Z" fill="#9F85EC"/>
<mask id="mask2_12_139" style="mask-type:luminance" maskUnits="userSpaceOnUse" x="74" y="74" width="152" height="152">
<path d="M74.1594 74.1594H225.959V225.959H74.1594V74.1594Z" fill="white"/>
</mask>
<g mask="url(#mask2_12_139)">
<path d="M112.109 140.572H221.216C221.525 140.572 221.834 140.541 222.141 140.481C222.447 140.419 222.744 140.328 223.031 140.209C223.319 140.091 223.591 139.944 223.85 139.772C224.109 139.6 224.35 139.403 224.569 139.181C224.791 138.962 224.987 138.722 225.159 138.462C225.331 138.203 225.478 137.931 225.597 137.644C225.716 137.356 225.806 137.059 225.869 136.753C225.928 136.447 225.959 136.137 225.959 135.828V116.853C225.959 116.387 225.937 115.922 225.891 115.456C225.844 114.994 225.775 114.534 225.684 114.075C225.594 113.619 225.481 113.169 225.347 112.722C225.209 112.275 225.053 111.837 224.875 111.406C224.697 110.975 224.497 110.556 224.278 110.144C224.059 109.734 223.819 109.334 223.559 108.947C223.3 108.559 223.025 108.184 222.728 107.825C222.431 107.466 222.119 107.119 221.791 106.791C221.462 106.459 221.116 106.147 220.756 105.853C220.397 105.556 220.022 105.278 219.634 105.019C219.247 104.759 218.847 104.522 218.437 104.303C218.025 104.081 217.603 103.884 217.175 103.703C216.744 103.525 216.306 103.369 215.859 103.234C215.412 103.1 214.962 102.984 214.503 102.894C214.047 102.803 213.587 102.734 213.122 102.691C212.659 102.644 212.194 102.622 211.728 102.622H197.497V88.3906C197.497 87.925 197.475 87.4594 197.428 86.9937C197.381 86.5312 197.312 86.0719 197.222 85.6125C197.131 85.1562 197.019 84.7062 196.884 84.2594C196.747 83.8125 196.591 83.375 196.412 82.9437C196.234 82.5125 196.034 82.0937 195.816 81.6812C195.597 81.2719 195.356 80.8719 195.097 80.4844C194.837 80.0969 194.562 79.7219 194.266 79.3625C193.969 79.0031 193.656 78.6562 193.328 78.3281C193 77.9969 192.653 77.6844 192.294 77.3906C191.934 77.0937 191.559 76.8156 191.172 76.5562C190.784 76.2969 190.384 76.0594 189.975 75.8406C189.562 75.6187 189.141 75.4219 188.712 75.2406C188.281 75.0625 187.844 74.9062 187.397 74.7719C186.95 74.6375 186.5 74.5219 186.041 74.4312C185.584 74.3406 185.125 74.2719 184.659 74.2281C184.197 74.1812 183.731 74.1594 183.266 74.1594H88.3906C87.925 74.1594 87.4594 74.1812 86.9937 74.2281C86.5312 74.2719 86.0719 74.3406 85.6125 74.4312C85.1562 74.5219 84.7062 74.6375 84.2594 74.7719C83.8125 74.9062 83.375 75.0625 82.9437 75.2406C82.5125 75.4219 82.0937 75.6187 81.6812 75.8406C81.2719 76.0594 80.8719 76.2969 80.4844 76.5562C80.0969 76.8156 79.7219 77.0937 79.3625 77.3906C79.0031 77.6844 78.6562 77.9969 78.3281 78.3281C77.9969 78.6562 77.6844 79.0031 77.3906 79.3625C77.0937 79.7219 76.8156 80.0969 76.5562 80.4844C76.2969 80.8719 76.0594 81.2719 75.8406 81.6812C75.6187 82.0937 75.4219 82.5125 75.2406 82.9437C75.0625 83.375 74.9062 83.8125 74.7719 84.2594C74.6375 84.7062 74.5219 85.1562 74.4312 85.6125C74.3406 86.0719 74.2719 86.5312 74.2281 86.9937C74.1812 87.4594 74.1594 87.925 74.1594 88.3906V183.266C74.1594 183.731 74.1812 184.197 74.2281 184.659C74.2719 185.125 74.3406 185.584 74.4312 186.041C74.5219 186.5 74.6375 186.95 74.7719 187.397C74.9062 187.844 75.0625 188.281 75.2406 188.712C75.4219 189.141 75.6187 189.562 75.8406 189.975C76.0594 190.384 76.2969 190.784 76.5562 191.172C76.8156 191.559 77.0937 191.934 77.3906 192.294C77.6844 192.653 77.9969 193 78.3281 193.328C78.6562 193.656 79.0031 193.969 79.3625 194.266C79.7219 194.562 80.0969 194.837 80.4844 195.097C80.8719 195.356 81.2719 195.597 81.6812 195.816C82.0937 196.034 82.5125 196.234 82.9437 196.412C83.375 196.591 83.8125 196.747 84.2594 196.884C84.7062 197.019 85.1562 197.131 85.6125 197.222C86.0719 197.312 86.5312 197.381 86.9937 197.428C87.4594 197.475 87.925 197.497 88.3906 197.497H102.622V211.728C102.622 212.194 102.644 212.659 102.691 213.122C102.734 213.587 102.803 214.047 102.894 214.503C102.984 214.962 103.1 215.412 103.234 215.859C103.369 216.306 103.525 216.744 103.703 217.175C103.884 217.603 104.081 218.025 104.303 218.437C104.522 218.847 104.759 219.247 105.019 219.634C105.278 220.022 105.556 220.397 105.853 220.756C106.147 221.116 106.459 221.462 106.791 221.791C107.119 222.119 107.466 222.431 107.825 222.728C108.184 223.025 108.559 223.3 108.947 223.559C109.334 223.819 109.734 224.059 110.144 224.278C110.556 224.497 110.975 224.697 111.406 224.875C111.837 225.053 112.275 225.209 112.722 225.347C113.169 225.481 113.619 225.594 114.075 225.684C114.534 225.775 114.994 225.844 115.456 225.891C115.922 225.937 116.387 225.959 116.853 225.959H211.728C212.194 225.959 212.659 225.937 213.122 225.891C213.587 225.844 214.047 225.775 214.503 225.684C214.962 225.594 215.412 225.481 215.859 225.347C216.306 225.209 216.744 225.053 217.175 224.875C217.603 224.697 218.025 224.497 218.437 224.278C218.847 224.059 219.247 223.819 219.634 223.559C220.022 223.3 220.397 223.025 220.756 222.728C221.116 222.431 221.462 222.119 221.791 221.791C222.119 221.462 222.431 221.116 222.728 220.756C223.025 220.397 223.3 220.022 223.559 219.634C223.819 219.247 224.059 218.847 224.278 218.437C224.497 218.025 224.697 217.603 224.875 217.175C225.053 216.744 225.209 216.306 225.347 215.859C225.481 215.412 225.594 214.962 225.684 214.503C225.775 214.047 225.844 213.587 225.891 213.122C225.937 212.659 225.959 212.194 225.959 211.728V154.803C225.959 154.491 225.928 154.181 225.869 153.878C225.806 153.572 225.716 153.275 225.597 152.987C225.478 152.7 225.331 152.425 225.159 152.166C224.987 151.909 224.791 151.669 224.569 151.447C224.35 151.228 224.109 151.031 223.85 150.859C223.591 150.684 223.319 150.541 223.031 150.419C222.744 150.3 222.447 150.209 222.141 150.15C221.834 150.091 221.525 150.059 221.216 150.059C220.903 150.059 220.594 150.091 220.291 150.15C219.984 150.209 219.687 150.3 219.4 150.419C219.112 150.541 218.837 150.684 218.578 150.859C218.322 151.031 218.081 151.228 217.859 151.447C217.641 151.669 217.444 151.909 217.272 152.166C217.097 152.425 216.953 152.7 216.831 152.987C216.712 153.275 216.622 153.572 216.562 153.878C216.503 154.181 216.472 154.491 216.472 154.803V211.728C216.472 212.037 216.441 212.347 216.381 212.653C216.319 212.959 216.228 213.256 216.109 213.544C215.991 213.831 215.844 214.103 215.672 214.362C215.5 214.622 215.303 214.862 215.081 215.081C214.862 215.303 214.622 215.5 214.362 215.672C214.103 215.844 213.831 215.991 213.544 216.109C213.256 216.228 212.959 216.319 212.653 216.381C212.347 216.441 212.037 216.472 211.728 216.472H116.853C116.541 216.472 116.231 216.441 115.928 216.381C115.622 216.319 115.325 216.228 115.037 216.109C114.75 215.991 114.475 215.844 114.216 215.672C113.959 215.5 113.719 215.303 113.497 215.081C113.278 214.862 113.081 214.622 112.909 214.362C112.734 214.103 112.591 213.831 112.469 213.544C112.35 213.256 112.259 212.959 112.2 212.653C112.141 212.347 112.109 212.037 112.109 211.728V140.572ZM216.472 116.853V131.084H112.109V116.853C112.109 116.541 112.141 116.231 112.2 115.928C112.259 115.622 112.35 115.325 112.469 115.037C112.591 114.75 112.734 114.475 112.909 114.216C113.081 113.959 113.278 113.719 113.497 113.497C113.719 113.278 113.959 113.081 114.216 112.909C114.475 112.734 114.75 112.591 115.037 112.469C115.325 112.35 115.622 112.259 115.928 112.2C116.231 112.141 116.541 112.109 116.853 112.109H211.728C212.037 112.109 212.347 112.141 212.653 112.2C212.959 112.259 213.256 112.35 213.544 112.469C213.831 112.591 214.103 112.734 214.362 112.909C214.622 113.081 214.862 113.278 215.081 113.497C215.303 113.719 215.5 113.959 215.672 114.216C215.844 114.475 215.991 114.75 216.109 115.037C216.228 115.325 216.319 115.622 216.381 115.928C216.441 116.231 216.472 116.541 216.472 116.853ZM88.3906 188.009C88.0781 188.009 87.7687 187.978 87.4656 187.919C87.1594 187.856 86.8625 187.766 86.575 187.647C86.2875 187.528 86.0125 187.381 85.7531 187.209C85.4969 187.037 85.2562 186.841 85.0344 186.619C84.8156 186.4 84.6187 186.159 84.4469 185.9C84.2719 185.641 84.1281 185.369 84.0062 185.081C83.8875 184.794 83.7969 184.497 83.7375 184.191C83.6781 183.884 83.6469 183.575 83.6469 183.266V88.3906C83.6469 88.0781 83.6781 87.7687 83.7375 87.4656C83.7969 87.1594 83.8875 86.8625 84.0062 86.575C84.1281 86.2875 84.2719 86.0125 84.4469 85.7531C84.6187 85.4969 84.8156 85.2562 85.0344 85.0344C85.2562 84.8156 85.4969 84.6187 85.7531 84.4469C86.0125 84.2719 86.2875 84.1281 86.575 84.0062C86.8625 83.8875 87.1594 83.7969 87.4656 83.7375C87.7687 83.6781 88.0781 83.6469 88.3906 83.6469H183.266C183.575 83.6469 183.884 83.6781 184.191 83.7375C184.497 83.7969 184.794 83.8875 185.081 84.0062C185.369 84.1281 185.641 84.2719 185.9 84.4469C186.159 84.6187 186.4 84.8156 186.619 85.0344C186.841 85.2562 187.037 85.4969 187.209 85.7531C187.381 86.0125 187.528 86.2875 187.647 86.575C187.766 86.8625 187.856 87.1594 187.919 87.4656C187.978 87.7687 188.009 88.0781 188.009 88.3906V102.622H116.853C116.387 102.622 115.922 102.644 115.456 102.691C114.994 102.734 114.534 102.803 114.075 102.894C113.619 102.984 113.169 103.1 112.722 103.234C112.275 103.369 111.837 103.525 111.406 103.703C110.975 103.884 110.556 104.081 110.144 104.303C109.734 104.522 109.334 104.759 108.947 105.019C108.559 105.278 108.184 105.556 107.825 105.853C107.466 106.147 107.119 106.459 106.791 106.791C106.459 107.119 106.147 107.466 105.853 107.825C105.556 108.184 105.278 108.559 105.019 108.947C104.759 109.334 104.522 109.734 104.303 110.144C104.081 110.556 103.884 110.975 103.703 111.406C103.525 111.837 103.369 112.275 103.234 112.722C103.1 113.169 102.984 113.619 102.894 114.075C102.803 114.534 102.734 114.994 102.691 115.456C102.644 115.922 102.622 116.387 102.622 116.853V188.009H88.3906Z" fill="#38004D"/>
</g>
<mask id="mask3_12_139" style="mask-type:luminance" maskUnits="userSpaceOnUse" x="114" y="142" width="101" height="73">
<path d="M114.097 142.934H214.162V214.738H114.097V142.934Z" fill="white"/>
</mask>
<g mask="url(#mask3_12_139)">
<path d="M114.097 142.934H214.231V214.738H114.097V142.934Z" fill="white"/>
</g>
<path d="M157.912 126.056C157.581 126.056 157.297 125.941 157.059 125.706L153.459 122.106C153.347 121.994 153.259 121.866 153.197 121.716C153.137 121.569 153.106 121.416 153.106 121.256C153.106 121.097 153.137 120.941 153.197 120.794C153.259 120.647 153.347 120.516 153.459 120.403L157.059 116.803C157.175 116.691 157.303 116.603 157.45 116.544C157.6 116.481 157.753 116.45 157.912 116.45C158.072 116.45 158.225 116.481 158.375 116.544C158.522 116.603 158.653 116.691 158.766 116.803C158.878 116.916 158.966 117.047 159.025 117.194C159.087 117.341 159.119 117.497 159.119 117.656C159.119 117.816 159.087 117.969 159.025 118.116C158.966 118.266 158.878 118.394 158.766 118.506L156.003 121.256L158.766 124.003C158.937 124.175 159.047 124.381 159.097 124.619C159.144 124.859 159.122 125.091 159.028 125.316C158.934 125.541 158.787 125.722 158.584 125.856C158.381 125.991 158.156 126.056 157.912 126.056Z" fill="#9F85EC"/>
<path d="M169.913 126.056C169.669 126.056 169.447 125.991 169.244 125.856C169.041 125.722 168.891 125.541 168.797 125.316C168.703 125.091 168.681 124.859 168.728 124.619C168.778 124.381 168.888 124.175 169.059 124.003L171.822 121.256L169.059 118.506C168.947 118.394 168.859 118.266 168.8 118.116C168.738 117.969 168.706 117.816 168.706 117.656C168.706 117.497 168.738 117.341 168.8 117.194C168.859 117.047 168.947 116.916 169.059 116.803C169.175 116.691 169.303 116.603 169.45 116.544C169.6 116.481 169.753 116.45 169.913 116.45C170.072 116.45 170.225 116.481 170.375 116.544C170.522 116.603 170.653 116.691 170.766 116.803L174.366 120.403C174.478 120.516 174.566 120.647 174.628 120.794C174.688 120.941 174.719 121.097 174.719 121.256C174.719 121.416 174.688 121.569 174.628 121.716C174.566 121.866 174.478 121.994 174.366 122.106L170.766 125.706C170.528 125.941 170.244 126.056 169.913 126.056Z" fill="#9F85EC"/>
<mask id="mask4_12_139" style="mask-type:luminance" maskUnits="userSpaceOnUse" x="160" y="113" width="7" height="16">
<path d="M160.8 113.763H166.4V128.8H160.8V113.763Z" fill="white"/>
</mask>
<g mask="url(#mask4_12_139)">
<path d="M162.712 128.456C162.531 128.459 162.356 128.422 162.191 128.347C162.025 128.272 161.884 128.163 161.766 128.025C161.65 127.884 161.569 127.725 161.525 127.55C161.481 127.372 161.475 127.194 161.512 127.016L163.912 115.016C163.944 114.856 164.006 114.709 164.097 114.575C164.187 114.441 164.3 114.328 164.434 114.238C164.569 114.147 164.716 114.088 164.875 114.056C165.034 114.025 165.194 114.025 165.353 114.056C165.512 114.088 165.659 114.15 165.794 114.241C165.928 114.331 166.041 114.444 166.131 114.578C166.222 114.713 166.281 114.859 166.312 115.019C166.344 115.178 166.344 115.338 166.312 115.497L163.912 127.497C163.856 127.778 163.712 128.013 163.487 128.194C163.259 128.375 163.003 128.463 162.712 128.456Z" fill="#9F85EC"/>
</g>
<mask id="mask5_12_139" style="mask-type:luminance" maskUnits="userSpaceOnUse" x="152" y="113" width="24" height="17">
<path d="M152.587 113.763H175.387V129.363H152.587V113.763Z" fill="white"/>
</mask>
<g mask="url(#mask5_12_139)">
<path d="M150.713 111.656H178.313C178.472 111.656 178.625 111.625 178.772 111.566C178.919 111.503 179.05 111.416 179.163 111.303C179.275 111.191 179.359 111.063 179.422 110.916C179.481 110.769 179.513 110.616 179.513 110.456V105.656C179.513 105.419 179.491 105.184 179.444 104.953C179.397 104.722 179.328 104.497 179.238 104.278C179.147 104.059 179.038 103.853 178.906 103.656C178.775 103.459 178.625 103.278 178.459 103.109C178.291 102.944 178.109 102.794 177.913 102.663C177.716 102.531 177.509 102.419 177.291 102.328C177.072 102.241 176.847 102.172 176.616 102.125C176.384 102.078 176.15 102.056 175.913 102.056H172.313V98.4563C172.313 98.2188 172.291 97.9844 172.244 97.7531C172.197 97.5219 172.128 97.2969 172.038 97.0781C171.947 96.8594 171.838 96.6531 171.706 96.4563C171.575 96.2594 171.425 96.0781 171.259 95.9094C171.091 95.7438 170.909 95.5938 170.713 95.4625C170.516 95.3313 170.309 95.2188 170.091 95.1281C169.872 95.0406 169.647 94.9719 169.416 94.925C169.184 94.8781 168.95 94.8563 168.713 94.8563H144.713C144.475 94.8563 144.241 94.8781 144.009 94.925C143.778 94.9719 143.553 95.0406 143.334 95.1281C143.116 95.2188 142.909 95.3313 142.713 95.4625C142.516 95.5938 142.334 95.7438 142.166 95.9094C142 96.0781 141.85 96.2594 141.719 96.4563C141.588 96.6531 141.478 96.8594 141.388 97.0781C141.297 97.2969 141.228 97.5219 141.181 97.7531C141.134 97.9844 141.113 98.2188 141.113 98.4563V122.456C141.113 122.691 141.134 122.925 141.181 123.159C141.228 123.391 141.297 123.616 141.388 123.834C141.478 124.05 141.588 124.259 141.719 124.456C141.85 124.653 142 124.834 142.166 125C142.334 125.169 142.516 125.319 142.713 125.45C142.909 125.581 143.116 125.691 143.334 125.781C143.553 125.872 143.778 125.941 144.009 125.988C144.241 126.031 144.475 126.056 144.713 126.056H148.313V129.656C148.313 129.891 148.334 130.125 148.381 130.359C148.428 130.591 148.497 130.816 148.588 131.034C148.678 131.25 148.788 131.459 148.919 131.656C149.05 131.853 149.2 132.034 149.366 132.2C149.534 132.369 149.716 132.519 149.913 132.65C150.109 132.781 150.316 132.891 150.534 132.981C150.753 133.072 150.978 133.141 151.209 133.188C151.441 133.231 151.675 133.256 151.913 133.256H175.913C176.15 133.256 176.384 133.231 176.616 133.188C176.847 133.141 177.072 133.072 177.291 132.981C177.509 132.891 177.716 132.781 177.913 132.65C178.109 132.519 178.291 132.369 178.459 132.2C178.625 132.034 178.775 131.853 178.906 131.656C179.038 131.459 179.147 131.25 179.238 131.034C179.328 130.816 179.397 130.591 179.444 130.359C179.491 130.125 179.513 129.891 179.513 129.656V115.256C179.513 115.097 179.481 114.944 179.422 114.797C179.359 114.65 179.275 114.519 179.163 114.406C179.05 114.294 178.919 114.206 178.772 114.147C178.625 114.088 178.472 114.056 178.313 114.056C178.153 114.056 178 114.088 177.853 114.147C177.706 114.206 177.578 114.294 177.466 114.406C177.353 114.519 177.266 114.65 177.203 114.797C177.144 114.944 177.113 115.097 177.113 115.256V129.656C177.113 129.816 177.081 129.969 177.022 130.116C176.959 130.263 176.875 130.391 176.763 130.503C176.65 130.616 176.519 130.703 176.372 130.766C176.225 130.825 176.072 130.856 175.913 130.856H151.913C151.753 130.856 151.6 130.825 151.453 130.766C151.306 130.703 151.178 130.616 151.066 130.503C150.953 130.391 150.866 130.263 150.803 130.116C150.744 129.969 150.713 129.816 150.713 129.656V111.656ZM177.113 105.656V109.256H150.713V105.656C150.713 105.497 150.744 105.344 150.803 105.197C150.866 105.05 150.953 104.919 151.066 104.806C151.178 104.694 151.306 104.606 151.453 104.547C151.6 104.488 151.753 104.456 151.913 104.456H175.913C176.072 104.456 176.225 104.488 176.372 104.547C176.519 104.606 176.65 104.694 176.763 104.806C176.875 104.919 176.959 105.05 177.022 105.197C177.081 105.344 177.113 105.497 177.113 105.656ZM144.713 123.656C144.553 123.656 144.4 123.625 144.253 123.566C144.106 123.503 143.978 123.416 143.866 123.303C143.753 123.191 143.666 123.063 143.603 122.916C143.544 122.769 143.513 122.616 143.513 122.456V98.4563C143.513 98.2969 143.544 98.1438 143.603 97.9969C143.666 97.85 143.753 97.7188 143.866 97.6063C143.978 97.4938 144.106 97.4063 144.253 97.3469C144.4 97.2875 144.553 97.2563 144.713 97.2563H168.713C168.872 97.2563 169.025 97.2875 169.172 97.3469C169.319 97.4063 169.45 97.4938 169.563 97.6063C169.675 97.7188 169.759 97.85 169.822 97.9969C169.881 98.1438 169.913 98.2969 169.913 98.4563V102.056H151.913C151.675 102.056 151.441 102.078 151.209 102.125C150.978 102.172 150.753 102.241 150.534 102.328C150.316 102.419 150.109 102.531 149.913 102.663C149.716 102.794 149.534 102.944 149.366 103.109C149.2 103.278 149.05 103.459 148.919 103.656C148.788 103.853 148.678 104.059 148.588 104.278C148.497 104.497 148.428 104.722 148.381 104.953C148.334 105.184 148.313 105.419 148.313 105.656V123.656H144.713Z" fill="#38004D"/>
</g>
<mask id="mask6_12_139" style="mask-type:luminance" maskUnits="userSpaceOnUse" x="133" y="144" width="63" height="67">
<path d="M133.256 144.809H195.056V210.4H133.256V144.809Z" fill="white"/>
</mask>
<g mask="url(#mask6_12_139)">
<path d="M185.494 181.85C180.269 181.85 176.034 185.659 176.034 191.819C176.034 199.284 183.006 207.778 184.978 210.031C185.044 210.106 185.122 210.166 185.209 210.206C185.3 210.247 185.394 210.266 185.494 210.266C185.591 210.266 185.688 210.247 185.775 210.206C185.866 210.166 185.944 210.106 186.009 210.031C187.981 207.778 194.95 199.284 194.95 191.819C194.953 185.659 190.719 181.85 185.494 181.85ZM185.494 196.194C185.206 196.194 184.922 196.166 184.641 196.109C184.359 196.053 184.084 195.972 183.819 195.862C183.553 195.75 183.3 195.616 183.063 195.456C182.825 195.297 182.603 195.116 182.4 194.913C182.197 194.709 182.016 194.487 181.856 194.25C181.697 194.009 181.563 193.759 181.45 193.494C181.341 193.228 181.259 192.953 181.203 192.672C181.147 192.391 181.119 192.106 181.119 191.819C181.119 191.531 181.147 191.247 181.203 190.966C181.259 190.681 181.341 190.409 181.453 190.144C181.563 189.878 181.697 189.625 181.856 189.388C182.016 189.147 182.197 188.928 182.4 188.725C182.603 188.522 182.825 188.341 183.063 188.181C183.303 188.022 183.553 187.884 183.819 187.775C184.084 187.666 184.359 187.584 184.641 187.528C184.922 187.472 185.206 187.444 185.494 187.444C185.781 187.444 186.066 187.472 186.347 187.528C186.631 187.584 186.903 187.666 187.169 187.775C187.434 187.888 187.688 188.022 187.925 188.181C188.166 188.341 188.384 188.522 188.588 188.725C188.791 188.928 188.972 189.15 189.131 189.388C189.294 189.628 189.428 189.878 189.538 190.144C189.647 190.409 189.731 190.684 189.788 190.966C189.841 191.247 189.869 191.531 189.869 191.819C189.869 192.106 189.841 192.391 189.788 192.672C189.731 192.953 189.647 193.228 189.538 193.494C189.428 193.759 189.291 194.013 189.131 194.25C188.972 194.487 188.791 194.709 188.588 194.913C188.384 195.116 188.163 195.297 187.925 195.456C187.684 195.616 187.434 195.753 187.169 195.862C186.903 195.972 186.628 196.053 186.347 196.109C186.066 196.166 185.781 196.194 185.494 196.194ZM139.991 144.875C136.303 144.875 133.316 147.562 133.316 151.909C133.316 157.178 138.234 163.172 139.625 164.766C139.722 164.875 139.844 164.928 139.991 164.928C140.134 164.928 140.256 164.875 140.353 164.766C141.747 163.172 146.666 157.178 146.666 151.909C146.666 147.562 143.675 144.875 139.991 144.875ZM139.991 154.997C139.578 154.997 139.184 154.919 138.806 154.762C138.428 154.606 138.094 154.381 137.806 154.094C137.516 153.803 137.294 153.469 137.138 153.091C136.978 152.713 136.9 152.319 136.9 151.909C136.9 151.5 136.981 151.106 137.138 150.728C137.294 150.35 137.516 150.016 137.806 149.725C138.097 149.434 138.431 149.213 138.809 149.056C139.188 148.9 139.581 148.822 139.991 148.822C140.4 148.822 140.794 148.9 141.172 149.056C141.55 149.213 141.884 149.434 142.175 149.725C142.463 150.016 142.688 150.35 142.844 150.728C143 151.106 143.078 151.5 143.078 151.909C143.078 152.319 143 152.713 142.844 153.091C142.688 153.469 142.463 153.803 142.172 154.094C141.884 154.384 141.55 154.606 141.172 154.762C140.794 154.919 140.4 154.997 139.991 154.997Z" fill="#9F85EC"/>
</g>
<mask id="mask7_12_139" style="mask-type:luminance" maskUnits="userSpaceOnUse" x="135" y="163" width="57" height="50">
<path d="M135.2 163.2H192V212.609H135.2V163.2Z" fill="white"/>
</mask>
<g mask="url(#mask7_12_139)">
<path d="M191.766 210.556C191.766 211.797 188.959 212.8 185.494 212.8C182.028 212.8 179.222 211.797 179.222 210.556C179.222 209.55 181.075 208.7 183.628 208.416C184.181 209.106 184.65 209.656 184.978 210.031C185.044 210.106 185.122 210.166 185.213 210.206C185.3 210.247 185.394 210.266 185.494 210.266C185.591 210.266 185.688 210.247 185.775 210.206C185.866 210.166 185.944 210.106 186.009 210.031C186.338 209.656 186.806 209.106 187.359 208.416C189.913 208.7 191.766 209.55 191.766 210.556ZM141.306 163.622C140.916 164.109 140.584 164.497 140.353 164.766C140.256 164.875 140.134 164.928 139.991 164.928C139.844 164.928 139.722 164.875 139.625 164.766C139.394 164.497 139.062 164.109 138.675 163.622C136.872 163.822 135.562 164.425 135.562 165.134C135.562 166.009 137.544 166.719 139.991 166.719C142.434 166.719 144.416 166.009 144.416 165.134C144.416 164.425 143.109 163.822 141.306 163.622Z" fill="#38004D"/>
</g>
<path d="M141.209 188.934C140.441 189.488 139.731 190.113 139.084 190.803C139.003 190.891 138.909 190.959 138.8 191.009C138.691 191.059 138.575 191.088 138.456 191.094C138.337 191.097 138.219 191.078 138.106 191.038C137.994 190.997 137.894 190.934 137.806 190.853C137.719 190.772 137.65 190.678 137.597 190.569C137.547 190.459 137.522 190.344 137.516 190.225C137.509 190.106 137.528 189.988 137.572 189.875C137.612 189.763 137.672 189.663 137.753 189.575C138.481 188.797 139.278 188.094 140.141 187.472C140.237 187.403 140.344 187.353 140.459 187.325C140.578 187.3 140.694 187.294 140.812 187.313C140.928 187.334 141.041 187.375 141.141 187.438C141.244 187.497 141.328 187.578 141.4 187.675C141.469 187.772 141.519 187.875 141.547 187.994C141.575 188.109 141.581 188.225 141.562 188.344C141.547 188.463 141.506 188.572 141.444 188.675C141.384 188.775 141.303 188.863 141.209 188.934ZM137.319 200.863C137.262 200.759 137.187 200.669 137.094 200.594C137.003 200.516 136.9 200.463 136.784 200.428C136.672 200.391 136.556 200.381 136.437 200.391C136.319 200.403 136.206 200.434 136.1 200.491C135.994 200.547 135.903 200.619 135.828 200.709C135.75 200.803 135.694 200.903 135.659 201.019C135.622 201.131 135.609 201.247 135.619 201.366C135.628 201.484 135.659 201.597 135.712 201.703C136.234 202.681 136.894 203.553 137.691 204.322C137.775 204.406 137.875 204.469 137.984 204.516C138.097 204.559 138.212 204.581 138.334 204.578C138.453 204.578 138.569 204.553 138.678 204.506C138.787 204.459 138.887 204.394 138.969 204.306C139.053 204.222 139.119 204.122 139.162 204.013C139.209 203.9 139.231 203.784 139.228 203.666C139.228 203.544 139.203 203.428 139.156 203.319C139.109 203.209 139.044 203.113 138.956 203.028C138.297 202.391 137.75 201.672 137.319 200.863ZM145.094 206.634C144.184 206.294 143.297 205.903 142.431 205.459C142.325 205.403 142.212 205.372 142.094 205.359C141.972 205.35 141.856 205.363 141.741 205.4C141.628 205.434 141.525 205.494 141.431 205.569C141.341 205.647 141.266 205.741 141.212 205.847C141.156 205.953 141.122 206.066 141.112 206.184C141.103 206.306 141.116 206.422 141.15 206.538C141.187 206.65 141.244 206.753 141.322 206.847C141.4 206.938 141.491 207.013 141.597 207.066C142.525 207.544 143.478 207.966 144.456 208.328C144.569 208.372 144.687 208.394 144.806 208.391C144.928 208.388 145.044 208.359 145.153 208.313C145.262 208.263 145.359 208.194 145.444 208.106C145.525 208.019 145.587 207.916 145.631 207.803C145.675 207.691 145.694 207.572 145.687 207.453C145.684 207.331 145.656 207.216 145.606 207.106C145.556 206.997 145.487 206.9 145.397 206.819C145.309 206.738 145.206 206.675 145.094 206.634ZM136.475 196.963C136.503 196.05 136.662 195.159 136.953 194.294C136.994 194.181 137.009 194.063 137 193.944C136.994 193.825 136.962 193.709 136.909 193.603C136.856 193.494 136.784 193.4 136.694 193.322C136.606 193.244 136.503 193.184 136.391 193.144C136.275 193.106 136.159 193.091 136.037 193.097C135.919 193.106 135.806 193.138 135.697 193.191C135.591 193.244 135.497 193.313 135.416 193.403C135.337 193.494 135.278 193.597 135.241 193.709C134.891 194.744 134.7 195.806 134.666 196.9C134.659 197.019 134.678 197.134 134.722 197.247C134.762 197.359 134.825 197.459 134.906 197.547C134.991 197.638 135.084 197.706 135.194 197.753C135.303 197.803 135.419 197.831 135.537 197.834C135.55 197.834 135.559 197.834 135.569 197.834C135.687 197.834 135.8 197.813 135.909 197.769C136.019 197.725 136.116 197.663 136.2 197.581C136.284 197.5 136.35 197.406 136.397 197.3C136.444 197.191 136.472 197.078 136.475 196.963ZM148.2 184.406C148.156 184.294 148.094 184.194 148.012 184.106C147.928 184.019 147.831 183.95 147.722 183.903C147.612 183.853 147.497 183.828 147.378 183.825C147.259 183.822 147.141 183.841 147.031 183.884C146.019 184.275 145.062 184.684 144.187 185.103C144.078 185.153 143.981 185.222 143.9 185.313C143.822 185.403 143.759 185.503 143.719 185.616C143.678 185.731 143.662 185.847 143.669 185.969C143.675 186.088 143.703 186.203 143.756 186.313C143.806 186.419 143.878 186.516 143.969 186.594C144.056 186.675 144.159 186.734 144.272 186.775C144.387 186.816 144.503 186.831 144.625 186.825C144.744 186.819 144.859 186.788 144.969 186.734C145.8 186.338 146.712 185.947 147.681 185.575C147.794 185.531 147.891 185.469 147.978 185.388C148.066 185.303 148.134 185.206 148.184 185.097C148.231 184.988 148.256 184.872 148.259 184.753C148.262 184.631 148.244 184.516 148.2 184.403V184.406ZM149.528 165.731C149.553 165.731 149.578 165.731 149.603 165.728C149.612 165.728 150.756 165.634 152.587 165.553C152.706 165.547 152.822 165.519 152.928 165.469C153.037 165.419 153.134 165.347 153.216 165.259C153.294 165.169 153.356 165.069 153.397 164.956C153.437 164.844 153.456 164.728 153.45 164.606C153.444 164.488 153.416 164.372 153.366 164.266C153.316 164.156 153.244 164.059 153.156 163.978C153.069 163.9 152.966 163.838 152.853 163.797C152.741 163.756 152.625 163.738 152.503 163.744C150.641 163.828 149.503 163.919 149.456 163.922C149.341 163.931 149.228 163.963 149.125 164.016C149.019 164.066 148.928 164.138 148.85 164.225C148.772 164.313 148.716 164.409 148.675 164.522C148.634 164.631 148.619 164.744 148.622 164.863C148.628 164.978 148.653 165.091 148.703 165.197C148.75 165.303 148.816 165.397 148.9 165.478C148.984 165.559 149.081 165.622 149.191 165.666C149.297 165.709 149.409 165.731 149.528 165.731ZM152.228 208.547C151.219 208.359 150.244 208.147 149.325 207.922C149.209 207.894 149.091 207.888 148.972 207.906C148.853 207.922 148.741 207.963 148.637 208.025C148.534 208.088 148.447 208.166 148.375 208.263C148.303 208.359 148.253 208.469 148.225 208.584C148.197 208.703 148.191 208.819 148.209 208.938C148.228 209.059 148.269 209.169 148.331 209.272C148.394 209.375 148.475 209.463 148.572 209.531C148.669 209.603 148.775 209.653 148.894 209.681C149.844 209.916 150.853 210.131 151.897 210.328C152.016 210.35 152.131 210.35 152.25 210.325C152.369 210.3 152.478 210.253 152.575 210.184C152.675 210.119 152.759 210.034 152.825 209.931C152.891 209.831 152.934 209.722 152.956 209.603C152.978 209.484 152.975 209.369 152.95 209.25C152.925 209.131 152.881 209.025 152.812 208.925C152.744 208.825 152.659 208.744 152.559 208.678C152.456 208.613 152.347 208.569 152.228 208.547ZM171.975 166.372C173.006 166.55 173.978 166.753 174.859 166.981C174.978 167.013 175.097 167.019 175.216 167.003C175.334 166.988 175.447 166.95 175.553 166.888C175.656 166.828 175.747 166.75 175.819 166.653C175.891 166.556 175.944 166.45 175.972 166.331C176.003 166.216 176.009 166.097 175.991 165.975C175.975 165.856 175.934 165.744 175.872 165.641C175.809 165.538 175.731 165.45 175.634 165.378C175.534 165.306 175.428 165.256 175.309 165.228C174.381 164.988 173.362 164.772 172.284 164.588C172.166 164.566 172.047 164.566 171.928 164.591C171.809 164.619 171.703 164.666 171.603 164.734C171.503 164.803 171.422 164.888 171.356 164.991C171.291 165.094 171.25 165.203 171.228 165.322C171.206 165.441 171.209 165.559 171.237 165.678C171.266 165.797 171.312 165.906 171.384 166.003C171.453 166.103 171.541 166.184 171.644 166.247C171.747 166.309 171.856 166.353 171.975 166.372ZM157.084 165.425C158.031 165.413 159.037 165.413 160.081 165.425H160.094C160.216 165.425 160.331 165.403 160.441 165.359C160.553 165.313 160.65 165.25 160.737 165.166C160.822 165.081 160.887 164.981 160.934 164.872C160.981 164.763 161.003 164.647 161.006 164.525C161.006 164.406 160.984 164.291 160.937 164.178C160.894 164.069 160.828 163.969 160.744 163.884C160.659 163.8 160.562 163.731 160.45 163.684C160.341 163.641 160.225 163.616 160.106 163.616C159.047 163.603 158.025 163.603 157.062 163.613C156.944 163.616 156.828 163.641 156.716 163.688C156.606 163.734 156.509 163.8 156.425 163.888C156.341 163.972 156.278 164.072 156.231 164.181C156.187 164.294 156.166 164.409 156.169 164.528C156.169 164.65 156.194 164.766 156.241 164.875C156.287 164.984 156.353 165.081 156.441 165.166C156.525 165.25 156.625 165.316 156.737 165.359C156.847 165.403 156.962 165.425 157.084 165.425ZM164.572 165.575C165.6 165.634 166.603 165.706 167.553 165.797C167.581 165.8 167.609 165.8 167.637 165.8C167.881 165.8 168.087 165.716 168.262 165.55C168.437 165.381 168.531 165.178 168.541 164.938C168.553 164.694 168.478 164.481 168.319 164.3C168.162 164.119 167.962 164.016 167.722 163.994C166.75 163.903 165.725 163.825 164.672 163.766C164.553 163.759 164.434 163.772 164.319 163.813C164.203 163.85 164.1 163.909 164.009 163.991C163.919 164.072 163.847 164.166 163.794 164.275C163.741 164.384 163.712 164.497 163.706 164.619C163.7 164.741 163.716 164.856 163.756 164.972C163.797 165.088 163.856 165.188 163.937 165.278C164.019 165.369 164.116 165.438 164.225 165.491C164.334 165.541 164.45 165.569 164.572 165.575ZM174.612 209.884C173.625 209.919 172.616 209.941 171.612 209.953C171.494 209.953 171.378 209.978 171.266 210.022C171.156 210.069 171.059 210.134 170.975 210.222C170.891 210.306 170.825 210.406 170.778 210.516C170.734 210.628 170.712 210.744 170.712 210.863C170.712 210.984 170.737 211.097 170.784 211.209C170.831 211.319 170.897 211.419 170.981 211.503C171.066 211.588 171.166 211.65 171.275 211.697C171.387 211.741 171.503 211.766 171.622 211.763H171.634C172.65 211.75 173.672 211.728 174.672 211.694C174.794 211.691 174.909 211.666 175.019 211.616C175.128 211.566 175.225 211.497 175.306 211.409C175.387 211.322 175.45 211.222 175.494 211.109C175.537 210.997 175.556 210.878 175.55 210.759C175.547 210.638 175.519 210.522 175.469 210.413C175.419 210.303 175.35 210.209 175.262 210.125C175.175 210.044 175.075 209.981 174.962 209.941C174.85 209.897 174.731 209.881 174.612 209.884ZM181.087 170.031C181.169 170.119 181.262 170.188 181.372 170.238C181.478 170.288 181.594 170.316 181.712 170.319C181.831 170.325 181.947 170.306 182.059 170.266C182.169 170.225 182.269 170.163 182.359 170.081C182.447 170.003 182.516 169.909 182.566 169.8C182.619 169.694 182.647 169.578 182.653 169.459C182.659 169.341 182.641 169.225 182.603 169.113C182.562 169 182.503 168.9 182.422 168.813C181.65 168 180.759 167.344 179.753 166.844C179.647 166.788 179.531 166.756 179.412 166.744C179.291 166.734 179.175 166.747 179.059 166.781C178.944 166.819 178.841 166.875 178.747 166.953C178.656 167.028 178.581 167.122 178.525 167.228C178.469 167.334 178.437 167.45 178.428 167.569C178.416 167.691 178.431 167.806 178.466 167.922C178.503 168.038 178.559 168.141 178.637 168.231C178.716 168.325 178.809 168.397 178.916 168.453C179.731 168.853 180.456 169.378 181.087 170.031ZM176.416 176.584C175.572 176.85 174.634 177.113 173.55 177.384C173.434 177.413 173.325 177.463 173.228 177.534C173.128 177.603 173.05 177.691 172.987 177.794C172.925 177.9 172.884 178.009 172.866 178.131C172.847 178.25 172.853 178.369 172.881 178.484C172.912 178.603 172.962 178.709 173.034 178.806C173.109 178.903 173.197 178.984 173.3 179.044C173.406 179.106 173.519 179.147 173.637 179.163C173.756 179.178 173.875 179.172 173.994 179.141C175.109 178.859 176.081 178.588 176.959 178.313C177.075 178.278 177.181 178.222 177.275 178.144C177.369 178.069 177.444 177.975 177.503 177.869C177.559 177.763 177.594 177.647 177.606 177.525C177.616 177.406 177.603 177.288 177.569 177.172C177.531 177.056 177.472 176.95 177.394 176.856C177.316 176.766 177.222 176.691 177.116 176.634C177.006 176.581 176.891 176.547 176.769 176.541C176.65 176.531 176.531 176.544 176.416 176.584ZM183.175 172.7C183.062 172.656 182.947 172.638 182.825 172.641C182.706 172.647 182.591 172.672 182.481 172.722C182.372 172.772 182.275 172.841 182.194 172.928C182.112 173.016 182.05 173.116 182.006 173.228C181.787 173.806 181.237 174.372 180.372 174.909C180.269 174.972 180.181 175.053 180.109 175.15C180.037 175.25 179.991 175.356 179.962 175.475C179.934 175.591 179.928 175.709 179.95 175.828C179.969 175.947 180.009 176.059 180.075 176.163C180.137 176.263 180.219 176.35 180.316 176.419C180.416 176.491 180.522 176.538 180.641 176.566C180.756 176.594 180.875 176.597 180.994 176.575C181.116 176.556 181.225 176.513 181.328 176.45C182.556 175.684 183.334 174.841 183.7 173.869C183.744 173.756 183.762 173.641 183.759 173.519C183.756 173.4 183.728 173.284 183.678 173.175C183.631 173.066 183.562 172.969 183.475 172.888C183.387 172.806 183.287 172.744 183.175 172.7ZM159.628 209.534C158.612 209.444 157.609 209.341 156.653 209.222C156.534 209.209 156.416 209.219 156.3 209.25C156.184 209.281 156.078 209.334 155.984 209.409C155.891 209.484 155.812 209.572 155.756 209.678C155.697 209.781 155.659 209.894 155.644 210.013C155.631 210.131 155.641 210.25 155.672 210.366C155.703 210.481 155.756 210.584 155.831 210.681C155.903 210.775 155.994 210.85 156.097 210.909C156.203 210.969 156.312 211.006 156.431 211.022C157.412 211.141 158.431 211.247 159.469 211.338C159.497 211.341 159.522 211.341 159.55 211.341C159.666 211.341 159.778 211.319 159.887 211.275C159.994 211.231 160.091 211.172 160.175 211.091C160.259 211.009 160.325 210.916 160.372 210.809C160.422 210.703 160.447 210.591 160.453 210.475C160.459 210.359 160.441 210.247 160.403 210.134C160.362 210.025 160.306 209.928 160.228 209.841C160.153 209.75 160.062 209.681 159.956 209.628C159.853 209.575 159.744 209.544 159.628 209.534ZM154.341 181.6C153.309 181.869 152.316 182.141 151.397 182.416C151.278 182.447 151.172 182.5 151.075 182.575C150.978 182.65 150.9 182.741 150.841 182.847C150.781 182.953 150.744 183.069 150.731 183.191C150.716 183.313 150.728 183.431 150.762 183.547C150.797 183.666 150.853 183.772 150.931 183.866C151.009 183.959 151.1 184.034 151.209 184.091C151.319 184.147 151.431 184.181 151.553 184.194C151.675 184.203 151.794 184.188 151.909 184.15C152.812 183.884 153.781 183.616 154.797 183.353C154.912 183.325 155.022 183.275 155.119 183.203C155.219 183.131 155.297 183.044 155.359 182.941C155.422 182.834 155.462 182.722 155.481 182.603C155.497 182.481 155.491 182.363 155.462 182.247C155.431 182.128 155.378 182.022 155.306 181.925C155.231 181.828 155.144 181.75 155.037 181.688C154.931 181.628 154.819 181.591 154.7 181.575C154.578 181.559 154.459 181.569 154.344 181.6H154.341ZM169.159 178.384C168.112 178.606 167.031 178.828 166.203 178.994C166.084 179.019 165.975 179.063 165.872 179.128C165.772 179.194 165.687 179.278 165.619 179.378C165.553 179.481 165.506 179.591 165.481 179.709C165.459 179.828 165.459 179.947 165.484 180.066C165.506 180.184 165.553 180.294 165.622 180.394C165.691 180.494 165.775 180.578 165.875 180.644C165.978 180.709 166.087 180.753 166.206 180.775C166.325 180.797 166.444 180.797 166.562 180.769C167.394 180.6 168.481 180.378 169.534 180.156C169.653 180.131 169.762 180.088 169.862 180.019C169.959 179.95 170.044 179.866 170.109 179.766C170.175 179.666 170.219 179.556 170.241 179.438C170.262 179.319 170.262 179.2 170.237 179.081C170.212 178.966 170.166 178.856 170.097 178.756C170.028 178.656 169.944 178.575 169.844 178.509C169.744 178.444 169.631 178.4 169.516 178.378C169.397 178.356 169.278 178.359 169.159 178.384ZM161.753 179.903C160.662 180.131 159.691 180.341 158.787 180.541C158.669 180.566 158.562 180.613 158.462 180.681C158.366 180.75 158.284 180.838 158.219 180.938C158.153 181.038 158.112 181.15 158.091 181.266C158.069 181.384 158.072 181.503 158.097 181.619C158.125 181.738 158.172 181.844 158.241 181.944C158.309 182.041 158.394 182.122 158.497 182.188C158.597 182.253 158.706 182.294 158.825 182.316C158.944 182.338 159.062 182.334 159.178 182.309C160.075 182.109 161.037 181.903 162.122 181.678C162.241 181.653 162.347 181.606 162.447 181.538C162.547 181.472 162.628 181.388 162.694 181.288C162.759 181.188 162.806 181.078 162.828 180.959C162.85 180.841 162.85 180.722 162.825 180.606C162.8 180.488 162.753 180.378 162.687 180.281C162.619 180.181 162.534 180.097 162.434 180.031C162.334 179.966 162.225 179.922 162.106 179.9C161.987 179.878 161.869 179.878 161.753 179.903ZM167.112 209.931C166.1 209.909 165.091 209.875 164.112 209.831C163.994 209.825 163.878 209.844 163.766 209.884C163.65 209.925 163.55 209.984 163.462 210.066C163.372 210.147 163.303 210.244 163.253 210.35C163.2 210.459 163.172 210.575 163.169 210.694C163.162 210.816 163.181 210.931 163.222 211.044C163.262 211.156 163.322 211.256 163.403 211.347C163.484 211.434 163.578 211.506 163.687 211.556C163.797 211.606 163.909 211.634 164.031 211.641C165.022 211.684 166.047 211.719 167.075 211.741H167.094C167.212 211.744 167.328 211.722 167.441 211.675C167.55 211.631 167.65 211.566 167.734 211.484C167.822 211.4 167.887 211.303 167.934 211.191C167.981 211.081 168.006 210.966 168.006 210.847C168.009 210.725 167.987 210.609 167.941 210.5C167.897 210.388 167.831 210.291 167.75 210.203C167.666 210.119 167.569 210.05 167.456 210.003C167.347 209.956 167.231 209.931 167.112 209.931Z" fill="#6457FF"/>
<mask id="mask8_12_139" style="mask-type:luminance" maskUnits="userSpaceOnUse" x="133" y="144" width="63" height="69">
<path d="M133.256 144.809H195.056V212.609H133.256V144.809Z" fill="white"/>
</mask>
<g mask="url(#mask8_12_139)">
<path d="M185.494 196.25C185.784 196.25 186.072 196.222 186.359 196.166C186.644 196.109 186.922 196.025 187.191 195.912C187.459 195.803 187.713 195.666 187.956 195.503C188.197 195.344 188.422 195.159 188.628 194.953C188.834 194.747 189.016 194.522 189.178 194.281C189.341 194.041 189.478 193.784 189.588 193.516C189.7 193.247 189.784 192.969 189.841 192.684C189.897 192.397 189.925 192.109 189.925 191.819C189.925 191.528 189.897 191.241 189.841 190.953C189.784 190.669 189.7 190.391 189.588 190.122C189.478 189.853 189.341 189.597 189.178 189.356C189.016 189.116 188.834 188.891 188.628 188.684C188.422 188.478 188.197 188.294 187.956 188.134C187.713 187.972 187.459 187.834 187.191 187.725C186.922 187.612 186.644 187.528 186.359 187.472C186.072 187.416 185.784 187.387 185.494 187.387C185.203 187.387 184.913 187.416 184.628 187.472C184.344 187.528 184.066 187.612 183.797 187.725C183.528 187.834 183.272 187.972 183.031 188.134C182.788 188.294 182.566 188.478 182.359 188.684C182.153 188.891 181.969 189.116 181.806 189.356C181.647 189.597 181.509 189.853 181.397 190.122C181.288 190.391 181.203 190.669 181.147 190.953C181.091 191.241 181.059 191.528 181.059 191.819C181.063 192.109 181.091 192.397 181.147 192.684C181.203 192.969 181.288 193.247 181.4 193.516C181.513 193.784 181.647 194.037 181.809 194.281C181.972 194.522 182.156 194.747 182.359 194.95C182.566 195.156 182.791 195.341 183.031 195.503C183.275 195.666 183.528 195.8 183.797 195.912C184.066 196.025 184.344 196.109 184.628 196.166C184.916 196.222 185.203 196.25 185.494 196.25ZM185.494 187.5C185.778 187.5 186.056 187.528 186.334 187.581C186.613 187.637 186.884 187.719 187.147 187.828C187.409 187.937 187.656 188.069 187.894 188.228C188.128 188.384 188.347 188.566 188.547 188.766C188.747 188.966 188.928 189.184 189.084 189.419C189.241 189.656 189.375 189.903 189.484 190.166C189.591 190.428 189.675 190.697 189.728 190.975C189.784 191.253 189.813 191.534 189.813 191.819C189.813 192.103 189.784 192.384 189.728 192.662C189.675 192.941 189.591 193.209 189.484 193.472C189.375 193.734 189.241 193.981 189.084 194.219C188.928 194.453 188.747 194.672 188.547 194.872C188.347 195.075 188.128 195.253 187.894 195.409C187.656 195.569 187.409 195.7 187.147 195.809C186.884 195.919 186.613 196 186.334 196.056C186.056 196.109 185.778 196.137 185.494 196.137C185.209 196.137 184.928 196.109 184.65 196.056C184.372 196 184.103 195.919 183.841 195.809C183.578 195.7 183.328 195.569 183.094 195.409C182.856 195.253 182.641 195.072 182.438 194.872C182.238 194.672 182.059 194.453 181.903 194.219C181.744 193.981 181.613 193.734 181.503 193.472C181.394 193.209 181.313 192.941 181.256 192.662C181.203 192.384 181.175 192.103 181.175 191.819C181.175 191.534 181.203 191.253 181.256 190.975C181.313 190.697 181.397 190.428 181.503 190.166C181.613 189.903 181.747 189.656 181.903 189.419C182.059 189.184 182.241 188.966 182.441 188.766C182.641 188.566 182.859 188.387 183.094 188.228C183.331 188.072 183.578 187.937 183.841 187.828C184.103 187.722 184.372 187.637 184.65 187.584C184.928 187.528 185.209 187.5 185.494 187.5ZM187.466 208.372C190.272 204.853 195.006 198 195.006 191.819C195.006 188.856 194.044 186.319 192.222 184.484C190.497 182.75 188.106 181.794 185.494 181.794C182.878 181.794 180.491 182.75 178.766 184.484C176.941 186.319 175.978 188.856 175.978 191.819C175.978 198 180.713 204.853 183.519 208.372C180.909 208.678 179.166 209.553 179.166 210.556C179.166 211.825 182.003 212.856 185.494 212.856C188.984 212.856 191.822 211.825 191.822 210.556C191.822 209.553 190.078 208.678 187.469 208.372H187.466ZM176.094 191.819C176.094 188.884 177.044 186.378 178.847 184.566C180.55 182.85 182.909 181.906 185.494 181.906C188.075 181.906 190.438 182.85 192.141 184.566C193.944 186.378 194.894 188.884 194.894 191.819C194.894 194.994 193.641 198.703 191.172 202.85C189.813 205.1 188.294 207.231 186.606 209.244L186.603 209.25C186.566 209.294 186.528 209.337 186.494 209.378L186.416 209.472L186.366 209.528C186.316 209.587 186.269 209.647 186.222 209.7C186.125 209.809 186.041 209.909 185.966 209.997C185.906 210.062 185.838 210.112 185.759 210.15C185.678 210.187 185.594 210.206 185.506 210.209C185.419 210.212 185.334 210.194 185.253 210.159C185.172 210.125 185.1 210.075 185.041 210.012C185.034 210.006 185.028 210 185.022 209.994C184.919 209.878 184.816 209.756 184.709 209.634L184.659 209.575C184.578 209.481 184.5 209.384 184.419 209.291C184.369 209.231 184.319 209.172 184.269 209.109C184.216 209.047 184.166 208.984 184.113 208.922C182.531 207.003 181.1 204.978 179.816 202.85C177.344 198.703 176.094 194.994 176.094 191.819ZM185.494 212.744C182.066 212.744 179.278 211.762 179.278 210.556C179.278 209.619 181.053 208.762 183.603 208.475C184.138 209.141 184.597 209.684 184.934 210.069C185.006 210.15 185.091 210.212 185.188 210.256C185.284 210.3 185.388 210.322 185.494 210.322C185.6 210.322 185.703 210.3 185.8 210.256C185.897 210.212 185.981 210.15 186.05 210.069C186.388 209.684 186.85 209.141 187.384 208.475C189.931 208.762 191.709 209.619 191.709 210.556C191.709 211.762 188.922 212.744 185.494 212.744ZM139.991 155.053C140.406 155.053 140.806 154.975 141.194 154.816C141.578 154.656 141.919 154.428 142.213 154.134C142.509 153.837 142.734 153.5 142.897 153.112C143.056 152.728 143.134 152.328 143.134 151.909C143.134 151.494 143.056 151.091 142.897 150.706C142.738 150.322 142.509 149.981 142.216 149.684C141.919 149.391 141.578 149.162 141.194 149.003C140.809 148.844 140.406 148.766 139.991 148.766C139.572 148.766 139.172 148.844 138.788 149.003C138.4 149.162 138.063 149.391 137.766 149.684C137.472 149.981 137.244 150.319 137.084 150.706C136.925 151.091 136.844 151.491 136.844 151.909C136.847 152.325 136.925 152.728 137.084 153.112C137.244 153.497 137.472 153.837 137.766 154.131C138.063 154.425 138.4 154.653 138.788 154.812C139.172 154.975 139.572 155.053 139.991 155.053ZM139.991 148.878C140.391 148.878 140.778 148.953 141.15 149.109C141.522 149.262 141.85 149.481 142.134 149.766C142.419 150.05 142.638 150.378 142.791 150.75C142.944 151.119 143.022 151.506 143.022 151.909C143.022 152.309 142.944 152.697 142.791 153.069C142.638 153.441 142.419 153.769 142.134 154.053C141.85 154.337 141.522 154.556 141.15 154.709C140.778 154.866 140.394 154.941 139.991 154.941C139.588 154.941 139.2 154.866 138.831 154.709C138.459 154.556 138.131 154.337 137.847 154.053C137.563 153.769 137.344 153.441 137.188 153.069C137.034 152.697 136.959 152.312 136.959 151.909C136.959 151.506 137.034 151.122 137.191 150.75C137.344 150.378 137.563 150.05 137.847 149.766C138.131 149.481 138.459 149.262 138.828 149.109C139.2 148.956 139.588 148.878 139.991 148.878ZM135.506 165.134C135.506 166.053 137.475 166.775 139.991 166.775C142.503 166.775 144.475 166.053 144.475 165.134C144.475 164.422 143.247 163.8 141.413 163.578C143.397 161.091 146.722 156.266 146.722 151.909C146.722 149.812 146.041 148.019 144.75 146.722C143.528 145.494 141.841 144.819 139.991 144.819C138.138 144.819 136.45 145.494 135.228 146.722C133.941 148.019 133.256 149.812 133.256 151.909C133.256 156.266 136.581 161.091 138.566 163.578C136.731 163.8 135.506 164.422 135.506 165.134ZM144.359 165.134C144.359 165.978 142.4 166.662 139.991 166.662C137.581 166.662 135.619 165.978 135.619 165.134C135.619 164.481 136.863 163.887 138.647 163.681C138.841 163.925 139.019 164.141 139.181 164.331L139.191 164.341C139.25 164.416 139.309 164.484 139.366 164.55L139.409 164.6L139.472 164.672C139.506 164.712 139.541 164.753 139.572 164.787L139.584 164.8C139.591 164.809 139.6 164.816 139.609 164.825C139.703 164.919 139.816 164.972 139.95 164.984C140.081 164.994 140.203 164.959 140.309 164.878C140.328 164.866 140.347 164.847 140.366 164.831C140.375 164.822 140.384 164.812 140.394 164.803L140.403 164.791C140.438 164.753 140.472 164.712 140.509 164.669L140.569 164.603C140.588 164.578 140.609 164.556 140.628 164.531C140.678 164.472 140.731 164.409 140.788 164.344L140.8 164.331C140.963 164.137 141.138 163.922 141.331 163.684C143.116 163.887 144.359 164.481 144.359 165.134ZM139.991 144.931C143.888 144.931 146.606 147.8 146.606 151.909C146.606 156.275 143.228 161.131 141.263 163.587C141.063 163.837 140.881 164.059 140.719 164.25L140.706 164.262C140.65 164.331 140.6 164.391 140.55 164.45L140.481 164.528C140.463 164.55 140.444 164.572 140.425 164.594C140.391 164.634 140.353 164.678 140.319 164.716L140.309 164.728C140.306 164.731 140.3 164.737 140.294 164.741C140.216 164.828 140.116 164.872 140 164.872C139.881 164.875 139.781 164.834 139.697 164.753C139.688 164.744 139.678 164.737 139.669 164.728L139.659 164.716C139.625 164.678 139.591 164.634 139.553 164.594L139.497 164.528L139.425 164.447C139.378 164.387 139.328 164.328 139.272 164.262L139.259 164.25C139.1 164.059 138.916 163.837 138.719 163.587H138.716C136.75 161.131 133.372 156.275 133.372 151.909C133.372 147.8 136.094 144.931 139.991 144.931ZM157.084 165.481C158.081 165.469 159.088 165.469 160.081 165.481H160.094C160.222 165.484 160.344 165.459 160.463 165.412C160.581 165.362 160.684 165.294 160.775 165.206C160.869 165.116 160.938 165.012 160.988 164.894C161.038 164.775 161.063 164.653 161.063 164.525C161.063 164.4 161.041 164.275 160.991 164.156C160.944 164.041 160.875 163.934 160.784 163.844C160.694 163.753 160.591 163.684 160.475 163.634C160.356 163.584 160.234 163.559 160.106 163.559C159.097 163.547 158.075 163.544 157.063 163.556C156.934 163.559 156.813 163.584 156.694 163.634C156.578 163.684 156.475 163.756 156.384 163.847C156.297 163.937 156.228 164.044 156.181 164.162C156.134 164.278 156.109 164.403 156.113 164.531C156.113 164.656 156.141 164.781 156.191 164.897C156.241 165.016 156.309 165.119 156.4 165.206C156.494 165.297 156.597 165.366 156.716 165.412C156.834 165.459 156.956 165.481 157.084 165.481ZM156.466 163.925C156.628 163.756 156.828 163.672 157.063 163.669C158.072 163.659 159.097 163.659 160.103 163.672C160.216 163.672 160.325 163.694 160.428 163.737C160.531 163.781 160.625 163.844 160.703 163.925C160.781 164.003 160.844 164.097 160.884 164.2C160.928 164.303 160.947 164.412 160.947 164.525C160.947 164.637 160.925 164.747 160.881 164.85C160.838 164.953 160.775 165.044 160.694 165.125C160.616 165.203 160.522 165.262 160.419 165.306C160.316 165.35 160.206 165.369 160.094 165.369V165.425L160.084 165.369C159.569 165.362 159.047 165.359 158.528 165.359C158.047 165.359 157.563 165.362 157.084 165.369C156.913 165.369 156.753 165.325 156.609 165.231C156.466 165.137 156.359 165.012 156.294 164.853C156.225 164.697 156.206 164.531 156.238 164.362C156.269 164.194 156.347 164.047 156.466 163.925ZM178.891 168.503C179.7 168.9 180.416 169.422 181.044 170.072C181.175 170.216 181.334 170.309 181.522 170.356C181.713 170.403 181.897 170.394 182.081 170.328C182.263 170.259 182.413 170.15 182.528 169.991C182.644 169.834 182.706 169.659 182.716 169.466C182.728 169.2 182.644 168.969 182.463 168.772C181.684 167.956 180.791 167.297 179.778 166.794C179.663 166.734 179.544 166.7 179.416 166.687C179.288 166.675 179.163 166.691 179.041 166.728C178.919 166.766 178.809 166.825 178.709 166.909C178.613 166.991 178.534 167.087 178.475 167.203C178.416 167.316 178.381 167.437 178.369 167.566C178.359 167.691 178.372 167.816 178.413 167.937C178.45 168.059 178.513 168.172 178.594 168.269C178.678 168.366 178.775 168.444 178.891 168.503ZM178.581 167.256C178.631 167.156 178.7 167.072 178.788 167C178.875 166.925 178.969 166.872 179.078 166.841C179.184 166.806 179.294 166.794 179.406 166.803C179.519 166.812 179.625 166.844 179.725 166.894C180.725 167.391 181.609 168.041 182.381 168.85C182.456 168.931 182.516 169.025 182.553 169.131C182.594 169.237 182.613 169.35 182.606 169.462C182.603 169.575 182.575 169.681 182.528 169.784C182.481 169.887 182.416 169.978 182.331 170.053C182.247 170.131 182.153 170.187 182.047 170.225C181.938 170.262 181.828 170.281 181.716 170.275C181.603 170.269 181.497 170.241 181.394 170.194C181.291 170.144 181.203 170.078 181.128 169.994C180.491 169.334 179.763 168.803 178.941 168.403C178.844 168.35 178.756 168.281 178.684 168.194C178.613 168.109 178.559 168.012 178.525 167.903C178.491 167.797 178.478 167.687 178.488 167.575C178.497 167.462 178.528 167.356 178.581 167.256ZM171.966 166.428C172.997 166.606 173.966 166.809 174.847 167.034C174.969 167.069 175.094 167.075 175.222 167.056C175.347 167.037 175.466 166.997 175.575 166.931C175.684 166.866 175.778 166.784 175.853 166.681C175.931 166.578 175.984 166.466 176.016 166.344C176.05 166.219 176.056 166.094 176.038 165.969C176.019 165.841 175.978 165.725 175.913 165.612C175.847 165.503 175.766 165.412 175.663 165.334C175.559 165.259 175.447 165.203 175.325 165.172C174.394 164.934 173.375 164.719 172.294 164.531C172.169 164.509 172.041 164.512 171.916 164.537C171.791 164.566 171.678 164.616 171.572 164.691C171.469 164.766 171.381 164.856 171.313 164.962C171.244 165.072 171.2 165.187 171.178 165.316C171.156 165.441 171.159 165.566 171.188 165.691C171.216 165.816 171.266 165.931 171.341 166.034C171.416 166.141 171.506 166.225 171.616 166.294C171.722 166.362 171.841 166.406 171.966 166.428ZM171.294 165.334C171.328 165.131 171.425 164.962 171.584 164.831C171.741 164.697 171.922 164.631 172.128 164.631C172.178 164.631 172.225 164.634 172.275 164.644C173.353 164.828 174.369 165.044 175.297 165.281C175.406 165.309 175.503 165.356 175.594 165.425C175.684 165.494 175.759 165.575 175.816 165.672C175.872 165.769 175.909 165.872 175.925 165.984C175.941 166.097 175.934 166.206 175.906 166.316C175.878 166.425 175.831 166.525 175.763 166.616C175.697 166.703 175.613 166.778 175.516 166.834C175.419 166.894 175.316 166.928 175.203 166.944C175.094 166.959 174.981 166.953 174.872 166.928C173.991 166.7 173.016 166.494 171.984 166.316C171.875 166.297 171.772 166.256 171.675 166.197C171.581 166.137 171.5 166.059 171.438 165.969C171.372 165.875 171.328 165.775 171.303 165.666C171.278 165.556 171.275 165.444 171.294 165.334ZM172.838 178.497C172.869 178.622 172.922 178.734 173 178.837C173.075 178.937 173.169 179.022 173.278 179.087C173.388 179.153 173.503 179.197 173.631 179.216C173.756 179.231 173.881 179.225 174.006 179.194C175.122 178.916 176.094 178.644 176.975 178.366C177.097 178.328 177.209 178.269 177.306 178.187C177.406 178.106 177.488 178.006 177.547 177.894C177.606 177.781 177.641 177.659 177.653 177.531C177.666 177.403 177.653 177.278 177.613 177.156C177.575 177.031 177.513 176.922 177.431 176.825C177.347 176.725 177.25 176.647 177.134 176.587C177.022 176.531 176.9 176.497 176.772 176.484C176.644 176.475 176.519 176.491 176.397 176.528C175.553 176.794 174.619 177.056 173.538 177.328C173.413 177.359 173.3 177.412 173.197 177.491C173.094 177.566 173.013 177.659 172.947 177.769C172.881 177.878 172.838 177.997 172.819 178.122C172.8 178.247 172.806 178.372 172.838 178.497ZM176.431 176.637C176.538 176.606 176.647 176.594 176.759 176.606C176.869 176.616 176.975 176.647 177.072 176.7C177.172 176.753 177.256 176.822 177.328 176.906C177.4 176.994 177.453 177.091 177.484 177.197C177.519 177.303 177.531 177.412 177.522 177.522C177.513 177.634 177.481 177.741 177.431 177.837C177.381 177.937 177.313 178.025 177.228 178.097C177.141 178.169 177.047 178.222 176.941 178.256C176.063 178.534 175.094 178.806 173.978 179.084C173.869 179.116 173.756 179.122 173.644 179.106C173.531 179.091 173.428 179.053 173.328 178.997C173.231 178.937 173.15 178.866 173.081 178.775C173.013 178.681 172.966 178.581 172.938 178.472C172.909 178.362 172.903 178.25 172.922 178.137C172.938 178.025 172.975 177.922 173.034 177.825C173.094 177.728 173.169 177.647 173.259 177.578C173.353 177.512 173.453 177.466 173.563 177.437C174.65 177.166 175.588 176.903 176.431 176.637ZM164.569 165.631C165.594 165.691 166.597 165.766 167.547 165.853C167.578 165.856 167.606 165.856 167.638 165.856C167.763 165.856 167.881 165.834 167.997 165.787C168.109 165.741 168.213 165.675 168.3 165.591C168.391 165.506 168.459 165.406 168.513 165.294C168.563 165.181 168.591 165.062 168.597 164.941C168.603 164.816 168.584 164.697 168.544 164.578C168.503 164.462 168.444 164.356 168.363 164.266C168.281 164.172 168.184 164.097 168.075 164.041C167.966 163.984 167.85 163.95 167.725 163.937C166.753 163.847 165.728 163.772 164.675 163.712C164.55 163.703 164.425 163.722 164.303 163.762C164.184 163.806 164.075 163.869 163.981 163.953C163.884 164.041 163.809 164.141 163.756 164.253C163.7 164.369 163.669 164.491 163.663 164.619C163.653 164.744 163.672 164.869 163.713 164.991C163.756 165.109 163.819 165.219 163.906 165.312C163.991 165.409 164.091 165.484 164.203 165.537C164.319 165.594 164.441 165.625 164.569 165.631ZM163.775 164.625C163.788 164.4 163.875 164.209 164.038 164.056C164.2 163.903 164.394 163.825 164.619 163.822C164.638 163.822 164.653 163.822 164.669 163.825C165.719 163.884 166.744 163.959 167.716 164.05C167.828 164.059 167.934 164.094 168.034 164.144C168.131 164.197 168.219 164.266 168.291 164.353C168.363 164.441 168.416 164.537 168.447 164.644C168.481 164.753 168.494 164.862 168.481 164.975C168.472 165.087 168.441 165.194 168.391 165.294C168.338 165.394 168.269 165.478 168.181 165.55C168.094 165.622 167.997 165.675 167.888 165.709C167.781 165.741 167.672 165.753 167.559 165.741C166.606 165.653 165.603 165.578 164.575 165.519C164.463 165.512 164.356 165.484 164.253 165.437C164.153 165.387 164.066 165.322 163.991 165.237C163.916 165.153 163.859 165.059 163.822 164.953C163.784 164.847 163.769 164.737 163.775 164.625ZM181.953 173.206C181.741 173.772 181.197 174.331 180.341 174.862C180.231 174.928 180.141 175.016 180.066 175.119C179.991 175.222 179.941 175.334 179.909 175.459C179.881 175.584 179.878 175.709 179.897 175.834C179.919 175.962 179.963 176.078 180.031 176.187C180.097 176.297 180.184 176.387 180.288 176.462C180.391 176.534 180.503 176.587 180.628 176.616C180.753 176.644 180.878 176.65 181.003 176.628C181.131 176.609 181.247 176.562 181.356 176.497C182.597 175.725 183.381 174.872 183.753 173.887C183.8 173.769 183.819 173.644 183.816 173.516C183.813 173.391 183.784 173.269 183.731 173.15C183.678 173.034 183.606 172.934 183.513 172.847C183.419 172.759 183.313 172.691 183.194 172.647C183.075 172.603 182.95 172.581 182.822 172.584C182.697 172.587 182.575 172.619 182.456 172.669C182.341 172.722 182.241 172.794 182.153 172.887C182.066 172.981 182 173.087 181.953 173.206ZM182.853 172.697C182.994 172.697 183.125 172.731 183.25 172.794C183.372 172.859 183.472 172.95 183.553 173.066C183.631 173.178 183.678 173.306 183.697 173.444C183.713 173.581 183.697 173.716 183.647 173.847C183.284 174.809 182.516 175.644 181.297 176.4C181.2 176.459 181.097 176.494 180.988 176.512C180.878 176.528 180.769 176.525 180.659 176.5C180.55 176.472 180.45 176.428 180.359 176.362C180.269 176.297 180.194 176.216 180.138 176.122C180.078 176.025 180.038 175.925 180.019 175.812C180 175.703 180.003 175.594 180.028 175.484C180.053 175.378 180.1 175.275 180.163 175.184C180.228 175.094 180.306 175.019 180.4 174.959C181.278 174.412 181.838 173.837 182.059 173.247C182.122 173.081 182.225 172.95 182.372 172.85C182.516 172.747 182.678 172.697 182.853 172.697ZM167.113 209.875C166.103 209.853 165.094 209.819 164.116 209.775C163.988 209.769 163.866 209.791 163.747 209.834C163.628 209.878 163.522 209.944 163.428 210.028C163.338 210.116 163.263 210.216 163.209 210.328C163.156 210.444 163.125 210.566 163.119 210.691C163.116 210.819 163.134 210.941 163.175 211.059C163.219 211.181 163.281 211.287 163.369 211.381C163.453 211.475 163.553 211.55 163.666 211.603C163.781 211.659 163.9 211.691 164.028 211.697C165.019 211.741 166.044 211.775 167.072 211.797H167.094C167.219 211.8 167.341 211.775 167.459 211.728C167.578 211.678 167.681 211.609 167.772 211.522C167.863 211.431 167.931 211.328 167.981 211.212C168.031 211.097 168.056 210.972 168.059 210.847C168.059 210.719 168.038 210.597 167.991 210.478C167.944 210.362 167.875 210.256 167.788 210.166C167.697 210.075 167.594 210.003 167.478 209.953C167.363 209.903 167.241 209.875 167.113 209.875ZM167.094 211.684H167.075C166.047 211.662 165.022 211.628 164.034 211.584C163.922 211.578 163.816 211.553 163.716 211.506C163.616 211.459 163.528 211.397 163.45 211.316C163.375 211.234 163.319 211.141 163.278 211.037C163.241 210.934 163.222 210.828 163.225 210.716C163.225 210.606 163.25 210.5 163.294 210.397C163.338 210.294 163.4 210.206 163.478 210.128C163.559 210.05 163.65 209.991 163.753 209.95C163.856 209.906 163.963 209.887 164.072 209.887C164.084 209.887 164.097 209.887 164.109 209.887C165.088 209.934 166.097 209.966 167.109 209.987C167.222 209.991 167.331 210.016 167.434 210.059C167.538 210.106 167.628 210.169 167.706 210.25C167.784 210.331 167.844 210.425 167.884 210.528C167.925 210.634 167.944 210.744 167.941 210.856C167.934 211.084 167.85 211.281 167.684 211.441C167.519 211.603 167.322 211.684 167.094 211.684ZM159.631 209.478C158.613 209.387 157.613 209.284 156.659 209.166C156.531 209.153 156.409 209.162 156.284 209.197C156.163 209.231 156.05 209.287 155.95 209.366C155.85 209.444 155.769 209.537 155.706 209.65C155.644 209.759 155.603 209.878 155.588 210.006C155.572 210.131 155.581 210.256 155.616 210.381C155.65 210.503 155.706 210.616 155.784 210.716C155.866 210.816 155.959 210.897 156.069 210.959C156.181 211.022 156.3 211.062 156.425 211.078C157.406 211.197 158.428 211.303 159.463 211.394C159.494 211.397 159.522 211.397 159.55 211.397C159.672 211.397 159.794 211.375 159.906 211.328C160.022 211.281 160.125 211.216 160.216 211.131C160.303 211.044 160.375 210.947 160.425 210.831C160.478 210.719 160.506 210.6 160.509 210.478C160.516 210.353 160.497 210.234 160.456 210.116C160.416 210 160.353 209.894 160.272 209.8C160.191 209.709 160.094 209.634 159.984 209.578C159.872 209.522 159.756 209.487 159.631 209.478ZM160.394 210.509C160.384 210.622 160.353 210.728 160.3 210.828C160.247 210.928 160.178 211.012 160.091 211.084C160.006 211.156 159.909 211.209 159.803 211.244C159.694 211.278 159.584 211.291 159.472 211.281C158.438 211.191 157.416 211.084 156.441 210.966C156.216 210.937 156.034 210.837 155.891 210.666C155.747 210.494 155.681 210.297 155.694 210.072C155.706 209.847 155.797 209.659 155.959 209.506C156.122 209.35 156.316 209.272 156.541 209.272C156.575 209.272 156.609 209.275 156.647 209.278C157.6 209.397 158.603 209.5 159.622 209.591C159.734 209.6 159.841 209.631 159.941 209.684C160.041 209.734 160.125 209.806 160.2 209.891C160.272 209.978 160.325 210.075 160.359 210.181C160.391 210.287 160.403 210.4 160.394 210.509ZM149.528 165.787C149.553 165.787 149.581 165.784 149.609 165.784C149.728 165.775 150.841 165.687 152.591 165.609C152.716 165.603 152.838 165.572 152.953 165.519C153.069 165.466 153.169 165.391 153.256 165.297C153.341 165.203 153.406 165.094 153.45 164.975C153.494 164.856 153.513 164.731 153.506 164.603C153.5 164.475 153.472 164.356 153.416 164.241C153.363 164.125 153.288 164.022 153.194 163.937C153.1 163.85 152.994 163.787 152.872 163.744C152.753 163.7 152.628 163.681 152.503 163.687C150.638 163.772 149.5 163.862 149.453 163.866C149.328 163.875 149.213 163.909 149.1 163.962C148.988 164.019 148.894 164.094 148.809 164.187C148.728 164.278 148.666 164.384 148.625 164.5C148.581 164.619 148.563 164.737 148.569 164.862C148.575 164.987 148.603 165.106 148.653 165.219C148.703 165.331 148.775 165.431 148.863 165.519C148.953 165.603 149.053 165.669 149.169 165.716C149.284 165.762 149.403 165.787 149.528 165.787ZM149.463 163.978C149.509 163.975 150.647 163.884 152.506 163.8C152.519 163.8 152.531 163.8 152.544 163.8C152.656 163.8 152.763 163.819 152.866 163.862C152.969 163.903 153.059 163.962 153.138 164.041C153.216 164.119 153.278 164.206 153.322 164.309C153.369 164.412 153.391 164.519 153.394 164.628C153.397 164.741 153.378 164.847 153.338 164.95C153.3 165.053 153.241 165.147 153.166 165.228C153.091 165.309 153.003 165.372 152.9 165.419C152.8 165.466 152.694 165.491 152.584 165.497C150.831 165.575 149.719 165.662 149.597 165.672C149.488 165.678 149.378 165.666 149.272 165.628C149.166 165.594 149.072 165.541 148.988 165.466C148.903 165.394 148.834 165.309 148.784 165.209C148.734 165.109 148.703 165.003 148.694 164.891C148.684 164.781 148.697 164.672 148.731 164.566C148.766 164.459 148.819 164.362 148.891 164.278C148.963 164.194 149.047 164.125 149.147 164.072C149.247 164.022 149.35 163.991 149.463 163.978ZM161.741 179.847C160.647 180.075 159.678 180.284 158.772 180.484C158.647 180.512 158.531 180.562 158.428 180.634C158.322 180.706 158.234 180.797 158.166 180.906C158.094 181.012 158.05 181.131 158.025 181.256C158.003 181.384 158.006 181.509 158.034 181.634C158.063 181.759 158.113 181.875 158.188 181.978C158.259 182.084 158.353 182.172 158.459 182.241C158.569 182.309 158.688 182.353 158.813 182.375C158.941 182.397 159.066 182.394 159.191 182.362C160.088 182.166 161.05 181.956 162.134 181.731C162.256 181.706 162.372 181.656 162.478 181.584C162.581 181.512 162.669 181.422 162.738 181.316C162.809 181.209 162.856 181.094 162.878 180.969C162.903 180.844 162.9 180.719 162.875 180.594C162.85 180.469 162.8 180.356 162.728 180.25C162.656 180.144 162.569 180.056 162.463 179.987C162.356 179.919 162.241 179.869 162.116 179.847C161.991 179.822 161.866 179.822 161.741 179.847ZM162.109 181.622C161.028 181.847 160.063 182.053 159.166 182.253C159.056 182.278 158.944 182.278 158.834 182.259C158.725 182.241 158.622 182.2 158.525 182.141C158.431 182.078 158.35 182.003 158.288 181.912C158.222 181.819 158.178 181.719 158.153 181.609C158.128 181.497 158.125 181.387 158.147 181.278C158.166 181.166 158.206 181.062 158.266 180.969C158.325 180.872 158.403 180.794 158.494 180.728C158.588 180.666 158.688 180.619 158.797 180.594C159.7 180.394 160.672 180.187 161.763 179.959C161.872 179.937 161.984 179.934 162.094 179.956C162.206 179.978 162.306 180.019 162.403 180.081C162.497 180.141 162.575 180.219 162.638 180.312C162.703 180.406 162.744 180.506 162.769 180.616C162.791 180.728 162.791 180.837 162.772 180.947C162.75 181.059 162.709 181.162 162.647 181.256C162.584 181.35 162.509 181.428 162.416 181.491C162.322 181.556 162.222 181.597 162.109 181.622ZM155.056 181.647C154.828 181.512 154.584 181.478 154.328 181.547C153.294 181.812 152.3 182.087 151.378 182.359C151.256 182.397 151.147 182.456 151.047 182.534C150.947 182.616 150.869 182.712 150.806 182.825C150.747 182.937 150.709 183.056 150.697 183.181C150.681 183.309 150.694 183.434 150.731 183.556C150.791 183.759 150.906 183.925 151.078 184.053C151.247 184.181 151.441 184.244 151.653 184.247C151.744 184.247 151.838 184.231 151.925 184.206C152.828 183.937 153.797 183.669 154.809 183.409C154.997 183.359 155.156 183.262 155.284 183.116C155.416 182.972 155.494 182.803 155.522 182.609C155.547 182.416 155.519 182.234 155.434 182.056C155.35 181.881 155.222 181.747 155.056 181.647ZM155.3 182.909C155.181 183.109 155.009 183.241 154.781 183.3C153.769 183.559 152.797 183.828 151.894 184.097C151.788 184.128 151.678 184.137 151.566 184.125C151.453 184.112 151.35 184.081 151.25 184.025C151.153 183.972 151.069 183.903 150.997 183.816C150.928 183.728 150.875 183.631 150.844 183.522C150.813 183.416 150.803 183.306 150.813 183.194C150.825 183.084 150.856 182.978 150.909 182.878C150.963 182.781 151.034 182.697 151.119 182.625C151.206 182.553 151.303 182.503 151.413 182.469C152.331 182.197 153.322 181.922 154.356 181.656C154.522 181.612 154.688 181.619 154.847 181.675C155.009 181.731 155.144 181.828 155.247 181.966C155.35 182.103 155.406 182.256 155.416 182.428C155.425 182.6 155.388 182.759 155.3 182.909ZM174.609 209.828C173.622 209.862 172.613 209.884 171.613 209.897C171.484 209.897 171.363 209.922 171.244 209.972C171.128 210.022 171.025 210.091 170.934 210.181C170.844 210.272 170.775 210.378 170.728 210.494C170.678 210.612 170.656 210.734 170.656 210.862C170.656 210.991 170.681 211.112 170.731 211.231C170.781 211.35 170.85 211.453 170.941 211.541C171.031 211.631 171.138 211.7 171.256 211.75C171.372 211.797 171.497 211.822 171.625 211.819H171.634C172.653 211.809 173.675 211.784 174.675 211.75C174.869 211.744 175.047 211.684 175.206 211.569C175.363 211.453 175.478 211.306 175.544 211.122C175.613 210.941 175.625 210.753 175.578 210.562C175.531 210.372 175.438 210.212 175.294 210.078C175.103 209.9 174.872 209.816 174.609 209.828ZM174.672 211.637C173.672 211.672 172.65 211.694 171.634 211.706H171.622C171.513 211.706 171.403 211.684 171.3 211.644C171.197 211.6 171.106 211.541 171.028 211.459C170.947 211.381 170.888 211.291 170.844 211.187C170.8 211.087 170.775 210.978 170.775 210.869C170.772 210.756 170.794 210.647 170.834 210.541C170.878 210.437 170.938 210.344 171.016 210.266C171.094 210.184 171.184 210.122 171.291 210.078C171.394 210.034 171.5 210.009 171.613 210.009C172.616 209.997 173.625 209.975 174.613 209.941C174.628 209.941 174.641 209.941 174.653 209.941C174.869 209.941 175.059 210.012 175.219 210.162C175.344 210.278 175.428 210.422 175.469 210.587C175.506 210.756 175.497 210.922 175.438 211.084C175.378 211.244 175.278 211.375 175.138 211.478C175 211.578 174.844 211.631 174.672 211.637ZM169.872 178.462C169.65 178.319 169.406 178.272 169.147 178.328C168.122 178.547 167.078 178.759 166.191 178.941C166.066 178.966 165.95 179.012 165.844 179.084C165.738 179.156 165.65 179.244 165.581 179.35C165.509 179.456 165.463 179.572 165.438 179.697C165.413 179.825 165.413 179.95 165.438 180.075C165.466 180.2 165.513 180.316 165.584 180.422C165.656 180.525 165.744 180.616 165.85 180.684C165.956 180.756 166.072 180.803 166.197 180.828C166.325 180.853 166.45 180.85 166.575 180.825C167.403 180.656 168.488 180.437 169.547 180.212C169.738 180.172 169.9 180.081 170.034 179.944C170.172 179.803 170.256 179.637 170.294 179.447C170.328 179.256 170.306 179.072 170.231 178.891C170.153 178.712 170.034 178.569 169.872 178.462ZM170.059 179.734C169.931 179.931 169.753 180.053 169.522 180.1C168.466 180.325 167.378 180.547 166.55 180.716C166.441 180.737 166.331 180.737 166.219 180.716C166.109 180.694 166.006 180.653 165.913 180.591C165.819 180.528 165.741 180.45 165.678 180.356C165.616 180.262 165.572 180.162 165.55 180.05C165.528 179.941 165.528 179.831 165.55 179.719C165.572 179.609 165.613 179.506 165.675 179.412C165.738 179.319 165.816 179.241 165.909 179.178C166 179.116 166.103 179.072 166.213 179.05C167.1 178.869 168.147 178.656 169.172 178.441C169.231 178.428 169.291 178.422 169.35 178.422C169.688 178.422 169.934 178.572 170.094 178.866C170.256 179.162 170.244 179.453 170.059 179.734ZM152.238 208.491C151.228 208.303 150.253 208.094 149.338 207.869C149.213 207.837 149.088 207.831 148.963 207.85C148.834 207.869 148.716 207.909 148.606 207.975C148.497 208.041 148.403 208.125 148.328 208.228C148.25 208.331 148.197 208.447 148.169 208.572C148.138 208.694 148.131 208.822 148.15 208.947C148.172 209.075 148.213 209.191 148.281 209.3C148.347 209.409 148.431 209.503 148.538 209.578C148.641 209.653 148.753 209.706 148.878 209.737C149.828 209.969 150.841 210.187 151.884 210.384C152.009 210.406 152.134 210.406 152.259 210.378C152.384 210.353 152.5 210.303 152.606 210.231C152.713 210.159 152.8 210.069 152.869 209.962C152.938 209.856 152.984 209.741 153.009 209.616C153.031 209.487 153.031 209.362 153.003 209.237C152.978 209.112 152.928 209 152.856 208.894C152.784 208.787 152.694 208.7 152.588 208.631C152.481 208.562 152.366 208.516 152.238 208.491ZM152.897 209.594C152.875 209.703 152.834 209.806 152.775 209.9C152.713 209.997 152.634 210.075 152.541 210.137C152.45 210.203 152.347 210.247 152.238 210.269C152.128 210.291 152.016 210.294 151.906 210.272C150.863 210.078 149.853 209.859 148.906 209.628C148.697 209.575 148.531 209.462 148.409 209.287C148.284 209.109 148.238 208.916 148.263 208.7C148.288 208.487 148.381 208.309 148.541 208.166C148.703 208.025 148.891 207.953 149.106 207.953C149.175 207.953 149.244 207.959 149.309 207.978C150.228 208.203 151.206 208.412 152.219 208.603C152.328 208.625 152.431 208.666 152.525 208.725C152.619 208.787 152.697 208.866 152.763 208.956C152.825 209.05 152.869 209.153 152.891 209.262C152.916 209.372 152.916 209.481 152.897 209.594ZM136.531 196.962C136.559 196.056 136.719 195.172 137.009 194.312C137.05 194.191 137.066 194.066 137.056 193.941C137.05 193.812 137.016 193.691 136.959 193.578C136.903 193.462 136.828 193.362 136.731 193.278C136.638 193.194 136.528 193.131 136.406 193.091C136.288 193.05 136.163 193.034 136.034 193.041C135.909 193.05 135.788 193.081 135.672 193.137C135.559 193.194 135.459 193.272 135.375 193.366C135.291 193.462 135.228 193.572 135.188 193.691C134.834 194.731 134.644 195.8 134.609 196.897C134.603 197.025 134.625 197.147 134.669 197.266C134.713 197.387 134.778 197.494 134.866 197.587C134.953 197.678 135.053 197.753 135.172 197.806C135.288 197.859 135.409 197.887 135.534 197.891C135.547 197.891 135.559 197.891 135.569 197.891C135.694 197.894 135.816 197.869 135.931 197.822C136.047 197.775 136.15 197.709 136.241 197.622C136.328 197.537 136.4 197.434 136.45 197.322C136.5 197.206 136.528 197.087 136.531 196.962ZM134.95 197.509C134.788 197.337 134.713 197.134 134.722 196.9C134.756 195.816 134.947 194.756 135.294 193.728C135.331 193.622 135.388 193.528 135.463 193.447C135.538 193.362 135.625 193.297 135.725 193.247C135.825 193.2 135.931 193.172 136.044 193.166C136.153 193.156 136.263 193.172 136.369 193.209C136.475 193.244 136.569 193.3 136.653 193.372C136.738 193.447 136.803 193.531 136.853 193.631C136.903 193.731 136.931 193.837 136.941 193.95C136.95 194.059 136.934 194.169 136.9 194.275C136.609 195.147 136.447 196.041 136.419 196.959C136.413 197.191 136.325 197.384 136.159 197.544C135.997 197.7 135.8 197.781 135.569 197.781H135.541C135.306 197.772 135.109 197.681 134.95 197.509ZM137.369 200.837C137.309 200.725 137.231 200.625 137.131 200.544C137.034 200.462 136.925 200.403 136.803 200.366C136.681 200.328 136.556 200.312 136.428 200.325C136.303 200.337 136.181 200.372 136.069 200.431C135.956 200.491 135.859 200.569 135.778 200.666C135.697 200.766 135.634 200.875 135.597 200.997C135.559 201.119 135.547 201.244 135.559 201.369C135.569 201.497 135.606 201.616 135.663 201.731C136.188 202.712 136.85 203.591 137.65 204.362C137.741 204.45 137.847 204.519 137.966 204.569C138.084 204.616 138.206 204.637 138.334 204.637C138.463 204.634 138.584 204.609 138.703 204.559C138.819 204.509 138.922 204.441 139.013 204.347C139.1 204.256 139.169 204.153 139.219 204.034C139.266 203.916 139.288 203.791 139.288 203.666C139.284 203.537 139.259 203.412 139.209 203.297C139.159 203.178 139.088 203.075 138.997 202.987C138.341 202.356 137.797 201.637 137.369 200.837ZM138.931 204.269C138.853 204.35 138.759 204.409 138.656 204.456C138.553 204.5 138.447 204.522 138.331 204.522C138.219 204.525 138.113 204.503 138.006 204.462C137.903 204.419 137.809 204.359 137.731 204.281C136.938 203.516 136.281 202.65 135.766 201.678C135.713 201.578 135.681 201.472 135.669 201.359C135.659 201.247 135.672 201.137 135.706 201.031C135.738 200.922 135.791 200.825 135.863 200.737C135.934 200.653 136.022 200.584 136.122 200.531C136.222 200.478 136.328 200.447 136.441 200.437C136.55 200.428 136.663 200.437 136.769 200.472C136.875 200.506 136.972 200.559 137.059 200.631C137.147 200.703 137.216 200.791 137.269 200.891C137.703 201.703 138.253 202.428 138.919 203.069C138.997 203.147 139.059 203.237 139.103 203.341C139.147 203.444 139.172 203.553 139.172 203.666C139.172 203.778 139.153 203.887 139.113 203.991C139.069 204.094 139.009 204.187 138.931 204.269ZM145.116 206.581C144.206 206.244 143.322 205.853 142.459 205.409C142.347 205.353 142.225 205.319 142.1 205.309C141.972 205.3 141.85 205.312 141.728 205.353C141.609 205.391 141.5 205.453 141.403 205.534C141.306 205.616 141.228 205.712 141.172 205.825C141.113 205.937 141.078 206.056 141.066 206.181C141.056 206.309 141.069 206.431 141.106 206.553C141.144 206.675 141.203 206.784 141.284 206.881C141.363 206.978 141.459 207.056 141.572 207.116C142.503 207.594 143.456 208.016 144.438 208.381C144.556 208.428 144.681 208.447 144.806 208.444C144.934 208.441 145.056 208.412 145.175 208.359C145.291 208.306 145.391 208.234 145.478 208.141C145.566 208.047 145.631 207.941 145.678 207.822C145.722 207.7 145.744 207.578 145.738 207.45C145.734 207.322 145.706 207.2 145.653 207.084C145.6 206.969 145.528 206.866 145.434 206.778C145.341 206.691 145.234 206.625 145.116 206.581ZM145.572 207.781C145.506 207.947 145.403 208.078 145.259 208.178C145.113 208.278 144.953 208.331 144.775 208.331C144.672 208.331 144.572 208.312 144.478 208.275C143.5 207.912 142.55 207.494 141.625 207.016C141.525 206.966 141.438 206.897 141.366 206.809C141.294 206.722 141.241 206.625 141.206 206.519C141.172 206.412 141.159 206.303 141.172 206.191C141.181 206.078 141.213 205.972 141.263 205.872C141.316 205.772 141.384 205.687 141.469 205.612C141.556 205.541 141.653 205.487 141.759 205.453C141.866 205.419 141.975 205.409 142.088 205.419C142.2 205.428 142.306 205.456 142.406 205.509C143.272 205.953 144.163 206.347 145.075 206.687C145.181 206.725 145.275 206.784 145.356 206.862C145.438 206.937 145.503 207.028 145.55 207.131C145.597 207.234 145.622 207.341 145.625 207.453C145.628 207.566 145.609 207.675 145.572 207.781ZM148.253 184.384C148.206 184.266 148.141 184.159 148.053 184.066C147.966 183.975 147.863 183.903 147.747 183.85C147.628 183.8 147.506 183.772 147.378 183.769C147.253 183.766 147.128 183.784 147.009 183.831C145.997 184.222 145.038 184.631 144.163 185.05C144.047 185.103 143.947 185.178 143.863 185.275C143.775 185.369 143.713 185.478 143.669 185.597C143.628 185.719 143.609 185.841 143.616 185.969C143.622 186.097 143.653 186.219 143.709 186.331C143.791 186.5 143.906 186.631 144.066 186.731C144.222 186.831 144.391 186.878 144.578 186.881C144.722 186.881 144.859 186.85 144.991 186.787C145.825 186.387 146.734 186 147.7 185.628C147.819 185.581 147.925 185.516 148.019 185.428C148.109 185.337 148.181 185.237 148.234 185.119C148.284 185.003 148.313 184.881 148.316 184.753C148.319 184.625 148.297 184.503 148.253 184.384ZM147.659 185.522C146.694 185.894 145.778 186.284 144.944 186.684C144.828 186.741 144.706 186.766 144.578 186.766C144.222 186.766 143.966 186.606 143.813 186.284C143.763 186.181 143.734 186.075 143.728 185.962C143.725 185.85 143.741 185.741 143.778 185.634C143.816 185.528 143.872 185.434 143.947 185.35C144.022 185.266 144.109 185.2 144.213 185.153C145.084 184.734 146.041 184.325 147.05 183.937C147.156 183.897 147.266 183.878 147.378 183.881C147.491 183.884 147.597 183.909 147.7 183.953C147.803 184 147.894 184.062 147.972 184.144C148.047 184.228 148.106 184.319 148.147 184.425C148.188 184.531 148.206 184.637 148.203 184.75C148.2 184.862 148.178 184.972 148.131 185.075C148.084 185.178 148.022 185.269 147.941 185.344C147.859 185.422 147.766 185.481 147.659 185.522ZM141.625 188.35C141.656 188.159 141.631 187.975 141.547 187.797C141.466 187.622 141.341 187.481 141.175 187.381C141.009 187.281 140.828 187.234 140.634 187.241C140.441 187.25 140.266 187.312 140.106 187.425C139.241 188.053 138.444 188.756 137.713 189.537C137.625 189.631 137.563 189.737 137.516 189.856C137.472 189.975 137.453 190.1 137.459 190.228C137.463 190.356 137.494 190.478 137.547 190.594C137.6 190.709 137.672 190.809 137.766 190.897C137.859 190.981 137.969 191.047 138.088 191.091C138.206 191.137 138.331 191.156 138.459 191.15C138.584 191.147 138.706 191.116 138.822 191.062C138.938 191.009 139.041 190.934 139.128 190.841C139.772 190.153 140.475 189.531 141.241 188.981C141.456 188.825 141.584 188.612 141.625 188.35ZM139.044 190.766C138.966 190.847 138.878 190.909 138.775 190.956C138.675 191.003 138.566 191.028 138.453 191.034C138.344 191.037 138.234 191.019 138.128 190.981C138.025 190.944 137.931 190.884 137.847 190.809C137.766 190.731 137.7 190.644 137.653 190.541C137.606 190.441 137.581 190.334 137.575 190.222C137.572 190.109 137.588 190 137.625 189.894C137.663 189.791 137.722 189.697 137.797 189.612C138.522 188.837 139.313 188.137 140.175 187.516C140.322 187.409 140.491 187.353 140.672 187.353C140.719 187.353 140.763 187.356 140.806 187.362C140.975 187.391 141.125 187.462 141.25 187.578C141.375 187.694 141.459 187.834 141.5 188.003C141.541 188.169 141.531 188.334 141.472 188.494C141.413 188.656 141.316 188.787 141.175 188.887C140.403 189.444 139.694 190.069 139.044 190.766Z" fill="#9F85EC"/>
</g>
</svg>
