<svg width="630" height="783" viewBox="0 0 630 783" fill="none" xmlns="http://www.w3.org/2000/svg">
<mask id="mask0_49_217" style="mask-type:luminance" maskUnits="userSpaceOnUse" x="267" y="237" width="77" height="83">
<path d="M267.25 237.056H343.621V319.537H267.25V237.056Z" fill="white"/>
</mask>
<g mask="url(#mask0_49_217)">
<path d="M267.258 237.056L343.57 319.067H267.258V237.056Z" fill="#FFED9E"/>
</g>
<mask id="mask1_49_217" style="mask-type:luminance" maskUnits="userSpaceOnUse" x="50" y="237" width="294" height="424">
<path d="M50.25 237.056H343.621V660.778H50.25V237.056Z" fill="white"/>
</mask>
<g mask="url(#mask1_49_217)">
<path d="M343.57 319.067V660.778H51.0469V237.056H267.258V319.067H343.57Z" fill="#FDD734"/>
</g>
<path d="M63.7617 291.729V619.774C63.7617 620.668 63.8047 621.562 63.8867 622.451C63.9687 623.345 64.0898 624.226 64.2539 625.107C64.4141 625.984 64.6172 626.852 64.8594 627.708C65.1016 628.564 65.3828 629.407 65.6992 630.234C66.0195 631.06 66.375 631.87 66.7656 632.659C67.1602 633.448 67.5859 634.216 68.0508 634.958C68.5117 635.705 69.0078 636.422 69.5391 637.115C70.0664 637.807 70.625 638.47 71.2148 639.103C71.8047 639.737 72.418 640.337 73.0625 640.903C73.707 641.474 74.375 642.007 75.0664 642.502C75.7617 643.001 76.4766 643.458 77.2109 643.882C77.9453 644.302 78.6953 644.688 79.4648 645.028C80.2344 645.372 81.0195 645.674 81.8164 645.934C82.6133 646.194 83.4219 646.408 84.2383 646.584C85.0547 646.76 85.8789 646.89 86.707 646.979C87.5352 647.067 88.3672 647.109 89.1992 647.109H305.414C306.246 647.109 307.078 647.067 307.906 646.979C308.734 646.89 309.559 646.76 310.375 646.584C311.191 646.408 312 646.194 312.797 645.934C313.594 645.674 314.379 645.372 315.148 645.028C315.918 644.688 316.668 644.302 317.402 643.882C318.141 643.458 318.852 643.001 319.547 642.502C320.238 642.007 320.906 641.474 321.551 640.903C322.195 640.337 322.812 639.737 323.398 639.103C323.988 638.47 324.547 637.807 325.078 637.115C325.605 636.422 326.102 635.705 326.562 634.958C327.027 634.216 327.453 633.448 327.848 632.659C328.238 631.87 328.594 631.06 328.914 630.234C329.234 629.407 329.512 628.564 329.754 627.708C329.996 626.852 330.199 625.984 330.363 625.107C330.523 624.226 330.645 623.345 330.727 622.451C330.809 621.562 330.852 620.668 330.852 619.774V605.262C63.7617 587.577 63.7617 291.729 63.7617 291.729Z" fill="#FFBF00"/>
<mask id="mask2_49_217" style="mask-type:luminance" maskUnits="userSpaceOnUse" x="273" y="318" width="71" height="16">
<path d="M273.25 318.463H343.621V333.5H273.25V318.463Z" fill="white"/>
</mask>
<g mask="url(#mask2_49_217)">
<path d="M273.617 319.067H343.57V332.736H273.617V319.067Z" fill="#FFBF00"/>
</g>
<mask id="mask3_49_217" style="mask-type:luminance" maskUnits="userSpaceOnUse" x="0" y="257" width="230" height="111">
<path d="M0.121094 257.241H229.25V367.87H0.121094V257.241Z" fill="white"/>
</mask>
<g mask="url(#mask3_49_217)">
<path d="M0.171875 257.56H229.102V366.905H0.171875V257.56Z" fill="#FFBF00"/>
</g>
<path d="M51.0469 366.905H216.383V387.409H51.0469V366.905Z" fill="#E89E00"/>
<path d="M133.715 346.401C113.594 346.401 108.277 332.997 108.277 325.902H114.637L120.996 325.7C121.074 326.879 122.016 332.736 133.715 332.736C134.133 332.736 134.547 332.69 134.957 332.602C135.363 332.514 135.762 332.388 136.148 332.216C136.535 332.044 136.902 331.834 137.246 331.583C137.594 331.335 137.918 331.05 138.211 330.735C138.508 330.416 138.77 330.072 139.004 329.699C139.234 329.325 139.43 328.931 139.59 328.516C139.75 328.1 139.871 327.672 139.953 327.236C140.031 326.795 140.074 326.351 140.074 325.902C140.074 325.453 140.031 325.008 139.953 324.568C139.871 324.127 139.75 323.699 139.59 323.284C139.43 322.873 139.234 322.478 139.004 322.105C138.77 321.731 138.508 321.387 138.211 321.068C137.918 320.75 137.594 320.468 137.246 320.217C136.902 319.969 136.535 319.759 136.148 319.587C135.762 319.415 135.363 319.285 134.957 319.197C134.547 319.109 134.133 319.067 133.715 319.067H127.355C126.73 319.067 126.105 319.034 125.484 318.966C124.863 318.904 124.246 318.803 123.633 318.673C123.02 318.543 122.414 318.379 121.816 318.182C121.219 317.989 120.633 317.762 120.055 317.506C119.477 317.25 118.914 316.961 118.363 316.646C117.812 316.327 117.277 315.983 116.758 315.61C116.238 315.237 115.734 314.838 115.254 314.414C114.77 313.986 114.309 313.537 113.867 313.063C113.422 312.585 113.004 312.09 112.609 311.57C112.211 311.049 111.84 310.512 111.492 309.954C111.145 309.396 110.824 308.821 110.531 308.23C110.234 307.638 109.969 307.03 109.73 306.409C109.492 305.788 109.281 305.159 109.098 304.517C108.918 303.875 108.766 303.22 108.645 302.562C108.523 301.903 108.43 301.24 108.371 300.573C108.309 299.906 108.277 299.235 108.277 298.563C108.277 297.892 108.309 297.221 108.371 296.554C108.43 295.886 108.523 295.224 108.645 294.565C108.766 293.906 108.918 293.256 109.098 292.614C109.281 291.968 109.492 291.338 109.73 290.717C109.969 290.097 110.234 289.492 110.531 288.901C110.824 288.305 111.145 287.73 111.492 287.172C111.84 286.614 112.211 286.077 112.609 285.557C113.004 285.037 113.422 284.542 113.867 284.067C114.309 283.593 114.77 283.14 115.254 282.716C115.734 282.288 116.238 281.89 116.758 281.517C117.277 281.143 117.812 280.799 118.363 280.48C118.914 280.166 119.477 279.88 120.055 279.62C120.633 279.364 121.219 279.138 121.816 278.945C122.414 278.747 123.02 278.588 123.633 278.454C124.246 278.324 124.863 278.227 125.484 278.16C126.105 278.093 126.73 278.059 127.355 278.059C147.477 278.059 152.793 291.468 152.793 298.563H140.074C140.004 297.586 139.062 291.729 127.355 291.729C126.938 291.729 126.523 291.775 126.113 291.863C125.707 291.947 125.309 292.077 124.922 292.249C124.535 292.421 124.168 292.631 123.824 292.882C123.477 293.13 123.152 293.415 122.859 293.73C122.562 294.049 122.301 294.393 122.066 294.766C121.836 295.14 121.641 295.534 121.48 295.949C121.32 296.365 121.199 296.788 121.117 297.229C121.035 297.67 120.996 298.114 120.996 298.563C120.996 299.012 121.035 299.457 121.117 299.897C121.199 300.338 121.32 300.766 121.48 301.177C121.641 301.592 121.836 301.987 122.066 302.36C122.301 302.734 122.562 303.078 122.859 303.397C123.152 303.715 123.477 303.997 123.824 304.248C124.168 304.496 124.535 304.706 124.922 304.878C125.309 305.05 125.707 305.18 126.113 305.268C126.523 305.356 126.938 305.398 127.355 305.398H133.715C134.34 305.398 134.961 305.431 135.586 305.499C136.207 305.561 136.824 305.662 137.438 305.792C138.051 305.922 138.656 306.086 139.254 306.279C139.852 306.476 140.438 306.703 141.016 306.959C141.594 307.215 142.156 307.504 142.707 307.819C143.258 308.133 143.793 308.482 144.312 308.855C144.832 309.224 145.336 309.627 145.816 310.051C146.301 310.479 146.762 310.928 147.203 311.402C147.645 311.876 148.066 312.375 148.461 312.895C148.859 313.411 149.23 313.953 149.578 314.511C149.926 315.069 150.246 315.644 150.539 316.235C150.836 316.827 151.102 317.435 151.34 318.056C151.578 318.677 151.789 319.306 151.973 319.948C152.152 320.59 152.305 321.24 152.426 321.899C152.547 322.558 152.641 323.221 152.699 323.892C152.762 324.559 152.793 325.23 152.793 325.902C152.793 326.573 152.762 327.24 152.699 327.911C152.641 328.579 152.547 329.241 152.426 329.9C152.305 330.559 152.152 331.209 151.973 331.851C151.789 332.493 151.578 333.127 151.34 333.748C151.102 334.369 150.836 334.973 150.539 335.564C150.246 336.156 149.926 336.735 149.578 337.293C149.23 337.851 148.859 338.388 148.461 338.908C148.066 339.428 147.645 339.923 147.203 340.398C146.762 340.872 146.301 341.325 145.816 341.749C145.336 342.177 144.832 342.575 144.312 342.949C143.793 343.322 143.258 343.666 142.707 343.981C142.156 344.299 141.594 344.585 141.016 344.841C140.438 345.101 139.852 345.327 139.254 345.52C138.656 345.713 138.051 345.877 137.438 346.011C136.824 346.141 136.207 346.238 135.586 346.305C134.961 346.372 134.34 346.401 133.715 346.401Z" fill="white"/>
<path d="M82.8398 346.401C82.2148 346.401 81.5938 346.372 80.9727 346.305C80.3477 346.238 79.7305 346.141 79.1211 346.011C78.5078 345.877 77.9023 345.713 77.3047 345.52C76.707 345.327 76.1172 345.101 75.5391 344.841C74.9648 344.585 74.3984 344.299 73.8477 343.981C73.2969 343.666 72.7617 343.322 72.2422 342.949C71.7227 342.575 71.2227 342.177 70.7383 341.749C70.2539 341.325 69.793 340.872 69.3516 340.398C68.9102 339.923 68.4922 339.428 68.0938 338.908C67.6992 338.388 67.3242 337.851 66.9805 337.293C66.6328 336.735 66.3125 336.156 66.0156 335.564C65.7227 334.973 65.4531 334.369 65.2148 333.748C64.9766 333.127 64.7656 332.493 64.5859 331.851C64.4023 331.209 64.25 330.559 64.1289 329.9C64.0078 329.241 63.918 328.579 63.8555 327.911C63.793 327.24 63.7617 326.573 63.7617 325.902V319.067H76.4805V325.902C76.4805 326.351 76.5234 326.795 76.6055 327.236C76.6836 327.672 76.8047 328.1 76.9648 328.516C77.125 328.931 77.3203 329.325 77.5547 329.699C77.7852 330.072 78.0508 330.416 78.3438 330.735C78.6406 331.05 78.9609 331.335 79.3086 331.583C79.6562 331.834 80.0234 332.044 80.4062 332.216C80.793 332.388 81.1914 332.514 81.6016 332.602C82.0117 332.69 82.4219 332.736 82.8398 332.736C83.2578 332.736 83.6719 332.69 84.082 332.602C84.4922 332.514 84.8906 332.388 85.2734 332.216C85.6602 332.044 86.0273 331.834 86.375 331.583C86.7227 331.335 87.043 331.05 87.3359 330.735C87.6328 330.416 87.8984 330.072 88.1289 329.699C88.3594 329.325 88.5547 328.931 88.7148 328.516C88.875 328.1 88.9961 327.672 89.0781 327.236C89.1602 326.795 89.1992 326.351 89.1992 325.902V278.059H101.918V325.902C101.918 326.573 101.887 327.24 101.828 327.911C101.766 328.579 101.676 329.241 101.551 329.9C101.43 330.559 101.277 331.209 101.098 331.851C100.914 332.493 100.707 333.127 100.465 333.748C100.227 334.369 99.9609 334.973 99.6641 335.564C99.3711 336.156 99.0508 336.735 98.7031 337.293C98.3555 337.851 97.9844 338.388 97.5898 338.908C97.1914 339.428 96.7734 339.923 96.332 340.398C95.8906 340.872 95.4258 341.325 94.9453 341.749C94.4609 342.177 93.9609 342.575 93.4414 342.949C92.9219 343.322 92.3867 343.666 91.8359 343.981C91.2812 344.299 90.7188 344.585 90.1406 344.841C89.5664 345.101 88.9766 345.327 88.3789 345.52C87.7812 345.713 87.1758 345.877 86.5625 346.011C85.9492 346.141 85.332 346.238 84.7109 346.305C84.0898 346.372 83.4648 346.401 82.8398 346.401Z" fill="white"/>
<path d="M152.793 585.601H146.434C145.391 585.601 144.355 585.542 143.316 585.433C142.281 585.324 141.254 585.156 140.234 584.938C139.211 584.72 138.203 584.447 137.207 584.12C136.211 583.797 135.234 583.419 134.27 582.987C133.309 582.559 132.371 582.081 131.453 581.552C130.535 581.028 129.645 580.453 128.777 579.828C127.91 579.207 127.078 578.544 126.273 577.831C125.469 577.122 124.695 576.371 123.961 575.582C123.227 574.789 122.527 573.963 121.867 573.098C121.207 572.234 120.586 571.336 120.008 570.405C119.43 569.473 118.895 568.517 118.402 567.531C117.91 566.545 117.465 565.534 117.066 564.502C116.668 563.465 116.316 562.416 116.016 561.346C115.711 560.277 115.457 559.19 115.254 558.095C115.051 556.996 114.898 555.892 114.793 554.78C114.691 553.664 114.637 552.548 114.637 551.432V530.928C114.363 530.03 113.008 529.2 112.031 528.583C108.992 526.833 106.238 524.668 103.762 522.092C103.469 521.773 103.203 521.429 102.973 521.056C102.742 520.683 102.543 520.288 102.387 519.873C102.227 519.458 102.105 519.034 102.023 518.593C101.941 518.153 101.902 517.708 101.902 517.259C101.902 516.81 101.941 516.365 102.023 515.925C102.105 515.484 102.227 515.061 102.387 514.645C102.543 514.23 102.742 513.835 102.973 513.462C103.203 513.089 103.469 512.745 103.762 512.426C106.238 509.85 108.992 507.685 112.031 505.935C112.953 505.415 113.824 504.802 114.637 504.097V483.09C114.637 481.97 114.691 480.854 114.793 479.742C114.898 478.626 115.051 477.522 115.254 476.423C115.457 475.328 115.711 474.242 116.016 473.172C116.316 472.102 116.668 471.053 117.066 470.017C117.465 468.984 117.91 467.973 118.402 466.987C118.895 466.001 119.43 465.045 120.008 464.113C120.586 463.182 121.207 462.284 121.867 461.42C122.527 460.555 123.227 459.729 123.961 458.936C124.695 458.147 125.469 457.396 126.273 456.687C127.078 455.974 127.91 455.311 128.777 454.69C129.645 454.065 130.535 453.49 131.453 452.966C132.371 452.437 133.309 451.959 134.27 451.531C135.234 451.099 136.211 450.721 137.207 450.398C138.203 450.071 139.211 449.798 140.234 449.58C141.254 449.362 142.281 449.198 143.316 449.085C144.355 448.976 145.391 448.917 146.434 448.917H152.793V462.586H146.434C145.809 462.586 145.184 462.62 144.563 462.683C143.941 462.75 143.324 462.846 142.711 462.981C142.098 463.111 141.492 463.274 140.895 463.467C140.297 463.664 139.711 463.891 139.133 464.147C138.555 464.403 137.992 464.688 137.441 465.007C136.891 465.322 136.355 465.666 135.836 466.039C135.316 466.413 134.813 466.811 134.332 467.239C133.848 467.667 133.387 468.116 132.941 468.59C132.5 469.064 132.082 469.563 131.688 470.079C131.289 470.6 130.918 471.141 130.57 471.699C130.223 472.257 129.902 472.832 129.609 473.423C129.313 474.015 129.047 474.623 128.809 475.24C128.57 475.861 128.359 476.495 128.176 477.136C127.996 477.778 127.844 478.429 127.723 479.087C127.602 479.746 127.508 480.409 127.449 481.08C127.387 481.747 127.355 482.415 127.355 483.09V503.59C127.359 505.029 127.176 506.443 126.801 507.823C126.426 509.203 125.879 510.5 125.156 511.712C124.434 512.925 123.566 514.003 122.555 514.947C121.543 515.891 120.43 516.663 119.211 517.259C120.43 517.859 121.543 518.627 122.555 519.571C123.566 520.515 124.434 521.593 125.156 522.806C125.879 524.018 126.426 525.315 126.801 526.695C127.176 528.079 127.359 529.489 127.355 530.928V551.432C127.355 552.104 127.387 552.771 127.449 553.442C127.508 554.109 127.602 554.772 127.723 555.431C127.844 556.089 127.996 556.74 128.176 557.382C128.359 558.024 128.57 558.657 128.809 559.278C129.047 559.895 129.313 560.503 129.609 561.095C129.902 561.686 130.223 562.261 130.57 562.819C130.918 563.381 131.289 563.918 131.688 564.439C132.082 564.955 132.5 565.454 132.941 565.928C133.387 566.402 133.848 566.851 134.332 567.279C134.813 567.707 135.316 568.106 135.836 568.479C136.355 568.852 136.891 569.196 137.441 569.511C137.992 569.83 138.555 570.115 139.133 570.371C139.711 570.631 140.297 570.854 140.895 571.051C141.492 571.244 142.098 571.407 142.711 571.538C143.324 571.672 143.941 571.768 144.563 571.835C145.184 571.898 145.809 571.932 146.434 571.932H152.793V585.601Z" fill="white"/>
<path d="M248.18 585.601H241.82V571.932H248.18C248.805 571.932 249.43 571.898 250.051 571.835C250.672 571.768 251.289 571.672 251.902 571.538C252.516 571.407 253.121 571.244 253.719 571.051C254.316 570.854 254.902 570.631 255.48 570.371C256.059 570.115 256.621 569.83 257.172 569.511C257.727 569.196 258.262 568.852 258.781 568.479C259.301 568.106 259.801 567.707 260.285 567.279C260.766 566.851 261.23 566.402 261.672 565.928C262.113 565.454 262.531 564.955 262.926 564.439C263.324 563.918 263.695 563.381 264.043 562.819C264.391 562.261 264.711 561.686 265.004 561.095C265.301 560.503 265.566 559.895 265.805 559.278C266.047 558.657 266.254 558.024 266.438 557.382C266.617 556.74 266.77 556.089 266.891 555.431C267.012 554.772 267.105 554.109 267.168 553.442C267.227 552.771 267.258 552.104 267.258 551.432V530.928C267.254 529.489 267.438 528.079 267.813 526.695C268.188 525.315 268.734 524.018 269.457 522.806C270.18 521.593 271.047 520.515 272.059 519.571C273.07 518.627 274.188 517.859 275.402 517.259C274.188 516.663 273.07 515.891 272.059 514.947C271.047 514.003 270.18 512.925 269.457 511.712C268.734 510.5 268.188 509.203 267.813 507.823C267.438 506.443 267.254 505.029 267.258 503.59V483.09C267.258 482.415 267.227 481.747 267.168 481.08C267.105 480.409 267.012 479.746 266.891 479.087C266.77 478.429 266.617 477.778 266.438 477.136C266.254 476.495 266.047 475.861 265.805 475.24C265.566 474.623 265.301 474.015 265.004 473.423C264.711 472.832 264.391 472.257 264.043 471.699C263.695 471.141 263.324 470.6 262.926 470.079C262.531 469.563 262.113 469.064 261.672 468.59C261.23 468.116 260.766 467.667 260.281 467.239C259.801 466.811 259.301 466.413 258.781 466.039C258.262 465.666 257.723 465.322 257.172 465.007C256.621 464.688 256.059 464.403 255.48 464.147C254.902 463.891 254.316 463.664 253.719 463.467C253.121 463.274 252.516 463.111 251.902 462.981C251.289 462.846 250.672 462.75 250.051 462.683C249.43 462.62 248.805 462.586 248.18 462.586H241.82V448.917H248.18C249.223 448.917 250.262 448.976 251.297 449.085C252.332 449.198 253.359 449.362 254.383 449.58C255.402 449.798 256.41 450.071 257.406 450.398C258.402 450.721 259.379 451.099 260.344 451.531C261.305 451.959 262.242 452.437 263.16 452.966C264.078 453.49 264.973 454.065 265.836 454.69C266.703 455.311 267.535 455.974 268.34 456.687C269.145 457.396 269.918 458.147 270.652 458.936C271.387 459.729 272.086 460.555 272.746 461.42C273.406 462.284 274.027 463.182 274.605 464.113C275.184 465.045 275.719 466.001 276.211 466.987C276.703 467.973 277.148 468.984 277.547 470.017C277.945 471.053 278.297 472.102 278.598 473.172C278.902 474.242 279.156 475.328 279.359 476.423C279.563 477.522 279.719 478.626 279.82 479.742C279.922 480.854 279.977 481.97 279.977 483.09V503.59C280.25 504.488 281.605 505.318 282.582 505.935C285.621 507.685 288.375 509.85 290.852 512.426C291.145 512.745 291.41 513.089 291.641 513.462C291.875 513.835 292.07 514.23 292.23 514.645C292.387 515.061 292.508 515.484 292.59 515.925C292.672 516.365 292.711 516.81 292.711 517.259C292.711 517.708 292.672 518.153 292.59 518.593C292.508 519.034 292.387 519.458 292.23 519.873C292.07 520.288 291.875 520.683 291.641 521.056C291.41 521.429 291.145 521.773 290.852 522.092C288.375 524.668 285.621 526.833 282.582 528.583C281.652 529.103 280.777 529.716 279.957 530.421L279.977 551.432C279.977 552.548 279.922 553.664 279.82 554.78C279.719 555.892 279.563 556.996 279.359 558.095C279.156 559.19 278.902 560.277 278.598 561.346C278.297 562.416 277.945 563.465 277.547 564.502C277.148 565.534 276.703 566.545 276.211 567.531C275.719 568.517 275.184 569.473 274.605 570.405C274.027 571.336 273.406 572.234 272.746 573.098C272.086 573.963 271.387 574.789 270.652 575.582C269.918 576.371 269.145 577.122 268.34 577.831C267.535 578.544 266.703 579.207 265.836 579.828C264.973 580.453 264.078 581.028 263.16 581.552C262.242 582.081 261.305 582.559 260.344 582.987C259.379 583.419 258.402 583.797 257.406 584.12C256.41 584.447 255.402 584.72 254.383 584.938C253.359 585.156 252.332 585.324 251.297 585.433C250.262 585.542 249.223 585.601 248.18 585.601Z" fill="white"/>
<path d="M210.023 483.09C210.023 483.984 209.945 484.873 209.781 485.754C209.617 486.635 209.375 487.491 209.059 488.318C208.738 489.148 208.344 489.937 207.883 490.68C207.418 491.427 206.891 492.119 206.301 492.753C205.711 493.386 205.066 493.952 204.371 494.452C203.68 494.951 202.945 495.371 202.176 495.715C201.402 496.059 200.605 496.319 199.789 496.495C198.969 496.667 198.141 496.755 197.309 496.755C196.473 496.755 195.645 496.667 194.824 496.495C194.008 496.319 193.211 496.059 192.441 495.715C191.668 495.371 190.934 494.951 190.242 494.452C189.547 493.952 188.902 493.386 188.313 492.753C187.723 492.119 187.195 491.427 186.73 490.68C186.27 489.937 185.875 489.148 185.555 488.318C185.238 487.491 184.996 486.635 184.832 485.754C184.668 484.873 184.59 483.984 184.59 483.09C184.59 482.192 184.668 481.303 184.832 480.422C184.996 479.541 185.238 478.685 185.555 477.858C185.875 477.027 186.27 476.239 186.73 475.496C187.195 474.749 187.723 474.057 188.313 473.423C188.902 472.79 189.547 472.223 190.242 471.724C190.934 471.225 191.668 470.805 192.441 470.461C193.211 470.117 194.008 469.857 194.824 469.681C195.645 469.509 196.473 469.421 197.309 469.421C198.141 469.421 198.969 469.509 199.789 469.681C200.605 469.857 201.402 470.117 202.176 470.461C202.945 470.805 203.68 471.225 204.371 471.724C205.066 472.223 205.711 472.79 206.301 473.423C206.891 474.057 207.418 474.749 207.883 475.496C208.344 476.239 208.738 477.027 209.059 477.858C209.375 478.685 209.617 479.541 209.781 480.422C209.945 481.303 210.023 482.192 210.023 483.09Z" fill="white"/>
<path d="M184.59 510.424H203.664L184.59 558.263H171.871L184.59 510.424Z" fill="white"/>
<path d="M143.637 343.397C142.781 344.895 141.766 346.255 140.59 347.471C139.414 348.692 138.113 349.733 136.688 350.593C135.262 351.457 133.758 352.112 132.18 352.556C130.598 353.005 128.992 353.232 127.355 353.236C107.262 353.236 101.918 339.844 101.918 332.736H109.676C112.285 339.294 119.09 346.402 133.715 346.402C137.285 346.406 140.59 345.403 143.637 343.397Z" fill="#E89E00"/>
<path d="M140.074 325.902C140.074 326.351 140.031 326.795 139.953 327.236C139.871 327.672 139.75 328.1 139.59 328.516C139.43 328.931 139.234 329.325 139.004 329.699C138.77 330.072 138.508 330.416 138.211 330.735C137.918 331.05 137.594 331.335 137.246 331.583C136.902 331.834 136.535 332.044 136.148 332.216C135.762 332.388 135.363 332.514 134.957 332.602C134.547 332.69 134.133 332.736 133.715 332.736C133.715 332.287 133.676 331.843 133.594 331.402C133.512 330.962 133.391 330.534 133.231 330.118C133.07 329.703 132.875 329.313 132.645 328.939C132.41 328.566 132.148 328.218 131.852 327.903C131.559 327.584 131.234 327.303 130.887 327.051C130.543 326.804 130.176 326.594 129.789 326.422C129.402 326.25 129.004 326.12 128.598 326.032C128.188 325.944 127.773 325.902 127.356 325.902H120.996V325.696L119.09 325.763H119.023C118.043 325.65 117.07 325.457 116.117 325.18C115.16 324.907 114.231 324.555 113.324 324.123C112.418 323.691 111.551 323.187 110.719 322.612C109.887 322.038 109.102 321.396 108.363 320.687C107.625 319.978 106.941 319.214 106.313 318.392C105.684 317.574 105.121 316.701 104.617 315.786C104.113 314.872 103.68 313.919 103.316 312.929C102.953 311.939 102.66 310.928 102.445 309.891C102.227 308.851 102.086 307.802 102.02 306.74C101.953 305.683 101.965 304.622 102.051 303.56C102.137 302.503 102.301 301.458 102.539 300.426C102.781 299.394 103.09 298.387 103.477 297.409C103.859 296.428 104.313 295.484 104.836 294.582C105.356 293.68 105.938 292.824 106.582 292.014C107.231 291.208 107.93 290.462 108.68 289.769C109.434 289.081 110.234 288.46 111.074 287.902C110.195 289.455 109.52 291.108 109.047 292.853C108.578 294.598 108.328 296.382 108.297 298.202C108.266 300.019 108.457 301.811 108.871 303.577C109.285 305.339 109.906 307.013 110.734 308.599C111.566 310.185 112.57 311.628 113.758 312.925C114.941 314.225 116.266 315.333 117.727 316.252C119.188 317.175 120.734 317.871 122.367 318.35C124 318.824 125.664 319.063 127.356 319.067H133.715C134.133 319.067 134.547 319.109 134.957 319.197C135.363 319.285 135.762 319.415 136.148 319.587C136.535 319.759 136.902 319.969 137.246 320.217C137.594 320.468 137.918 320.75 138.211 321.068C138.508 321.387 138.77 321.731 139.004 322.105C139.234 322.478 139.43 322.873 139.59 323.284C139.75 323.699 139.871 324.127 139.953 324.568C140.031 325.008 140.074 325.453 140.074 325.902Z" fill="#E89E00"/>
<path d="M146.434 305.398H133.715C133.652 304.441 132.695 298.563 120.996 298.563C120.996 298.114 121.035 297.67 121.117 297.229C121.199 296.789 121.32 296.365 121.48 295.949C121.641 295.534 121.836 295.14 122.066 294.766C122.301 294.393 122.562 294.049 122.859 293.73C123.152 293.415 123.477 293.13 123.824 292.882C124.168 292.631 124.535 292.421 124.922 292.249C125.309 292.077 125.707 291.947 126.113 291.863C126.523 291.775 126.938 291.729 127.355 291.729C139.055 291.729 140.012 297.607 140.074 298.563H145.035C145.941 300.737 146.406 303.015 146.434 305.398Z" fill="#E89E00"/>
<path d="M89.1992 284.894V325.902C89.1992 326.351 89.1602 326.795 89.0781 327.236C88.9961 327.672 88.875 328.1 88.7148 328.516C88.5547 328.931 88.3594 329.325 88.1289 329.699C87.8984 330.072 87.6328 330.416 87.3359 330.735C87.043 331.05 86.7227 331.335 86.375 331.583C86.0273 331.834 85.6602 332.044 85.2734 332.216C84.8906 332.388 84.4922 332.514 84.082 332.602C83.6719 332.69 83.2578 332.736 82.8398 332.736V284.894H89.1992Z" fill="#E89E00"/>
<path d="M92.7617 343.397C92.2227 344.341 91.6172 345.235 90.9453 346.078C90.2695 346.918 89.5391 347.698 88.75 348.411C87.957 349.124 87.1172 349.762 86.2305 350.329C85.3438 350.899 84.418 351.382 83.457 351.789C82.4961 352.196 81.5117 352.514 80.5039 352.749C79.4961 352.984 78.4727 353.127 77.4453 353.182C76.4141 353.24 75.3828 353.207 74.3594 353.081C73.332 352.959 72.3203 352.745 71.3281 352.447C70.3359 352.149 69.3711 351.763 68.4336 351.294C67.4961 350.828 66.6016 350.282 65.75 349.657C64.8945 349.032 64.0938 348.34 63.3477 347.576C62.5977 346.813 61.9102 345.986 61.2852 345.105C60.6641 344.22 60.1094 343.288 59.625 342.307C59.1406 341.329 58.7344 340.309 58.4062 339.261C58.0742 338.207 57.8242 337.138 57.6562 336.043C57.4922 334.947 57.4062 333.844 57.4023 332.736V325.902H63.7617C63.7656 327.718 63.9883 329.506 64.4297 331.264C64.875 333.017 65.5273 334.679 66.3828 336.248C67.2383 337.817 68.2695 339.24 69.4766 340.515C70.6836 341.79 72.0273 342.873 73.5 343.762C74.9766 344.652 76.5352 345.319 78.1758 345.764C79.8203 346.208 81.4844 346.414 83.1758 346.385C84.8711 346.351 86.5273 346.083 88.1562 345.575C89.7812 345.067 91.3164 344.341 92.7617 343.397Z" fill="#E89E00"/>
<path d="M267.258 578.766C265.777 580.885 264.086 582.794 262.191 584.493C260.297 586.193 258.246 587.636 256.039 588.819C253.832 590.006 251.527 590.904 249.125 591.517C246.723 592.125 244.289 592.432 241.82 592.436H235.461V578.766H241.82V585.601H248.18C251.621 585.618 254.977 585.039 258.242 583.868C261.508 582.698 264.512 580.999 267.258 578.766Z" fill="#E89E00"/>
<path d="M268.594 524.366C267.66 526.439 267.215 528.625 267.258 530.928V551.432C267.254 553.186 267.043 554.915 266.625 556.614C266.207 558.313 265.602 559.928 264.797 561.46C263.996 562.991 263.027 564.388 261.895 565.651C260.762 566.918 259.496 568.009 258.102 568.928C259.969 565.655 260.902 562.102 260.898 558.263V537.763C260.887 536.37 261.055 535.002 261.402 533.66C261.75 532.317 262.266 531.054 262.945 529.871C263.625 528.684 264.445 527.622 265.406 526.687C266.367 525.751 267.43 524.979 268.594 524.366Z" fill="#E89E00"/>
<path d="M285.953 526.347C285.676 527.349 285.187 528.214 284.492 528.944C283.098 530.433 281.594 531.78 279.977 532.98V530.45C280.781 529.728 281.652 529.116 282.582 528.604C283.754 527.928 284.875 527.177 285.953 526.347Z" fill="#E89E00"/>
<path d="M275.398 517.259C272.602 518.816 270.395 521.048 268.785 523.955C267.598 523.343 266.516 522.566 265.535 521.627C264.559 520.683 263.719 519.613 263.02 518.417C262.324 517.217 261.793 515.942 261.434 514.582C261.07 513.223 260.895 511.838 260.898 510.424V489.92C260.898 489.249 260.863 488.582 260.801 487.915C260.738 487.248 260.645 486.585 260.523 485.926C260.398 485.268 260.246 484.617 260.066 483.979C259.883 483.338 259.672 482.704 259.43 482.087C259.191 481.466 258.926 480.862 258.629 480.271C258.336 479.679 258.012 479.104 257.668 478.546C257.32 477.988 256.945 477.451 256.551 476.931C256.156 476.415 255.734 475.916 255.293 475.441C254.852 474.967 254.391 474.518 253.91 474.09C253.426 473.667 252.926 473.268 252.406 472.895C251.887 472.521 251.352 472.177 250.805 471.858C250.254 471.54 249.691 471.254 249.113 470.998C248.535 470.738 247.949 470.512 247.352 470.314C246.754 470.121 246.152 469.958 245.539 469.824C244.926 469.689 244.309 469.593 243.688 469.526C243.066 469.454 242.445 469.421 241.82 469.421H235.461V455.751H241.82V462.586H248.18C248.805 462.586 249.426 462.624 250.047 462.691C250.668 462.758 251.285 462.859 251.898 462.989C252.512 463.123 253.113 463.287 253.711 463.48C254.309 463.677 254.895 463.904 255.473 464.164C256.047 464.42 256.613 464.709 257.164 465.024C257.711 465.343 258.246 465.687 258.766 466.06C259.285 466.433 259.785 466.832 260.27 467.256C260.75 467.684 261.211 468.133 261.652 468.607C262.094 469.081 262.516 469.58 262.91 470.096C263.305 470.616 263.68 471.154 264.027 471.712C264.371 472.27 264.695 472.844 264.988 473.436C265.285 474.028 265.551 474.632 265.789 475.253C266.031 475.869 266.242 476.503 266.422 477.145C266.605 477.787 266.758 478.433 266.883 479.092C267.004 479.75 267.098 480.413 267.16 481.08C267.223 481.747 267.258 482.419 267.258 483.09V503.59C267.254 505.029 267.441 506.439 267.816 507.819C268.188 509.203 268.738 510.5 269.457 511.712C270.18 512.921 271.047 513.999 272.059 514.943C273.066 515.887 274.18 516.659 275.398 517.259Z" fill="#E89E00"/>
<path d="M146.434 585.601V592.436H140.074C139.031 592.436 137.992 592.381 136.957 592.272C135.922 592.163 134.891 591.995 133.871 591.777C132.848 591.559 131.84 591.29 130.844 590.963C129.848 590.64 128.867 590.262 127.906 589.834C126.945 589.407 126.004 588.928 125.086 588.4C124.168 587.875 123.273 587.3 122.41 586.675C121.543 586.054 120.707 585.387 119.902 584.678C119.098 583.969 118.328 583.218 117.59 582.425C116.855 581.636 116.156 580.806 115.496 579.941C114.836 579.077 114.215 578.179 113.637 577.248C113.059 576.316 112.523 575.36 112.031 574.374C111.543 573.384 111.098 572.377 110.699 571.34C110.301 570.308 109.949 569.255 109.648 568.185C109.344 567.111 109.094 566.029 108.891 564.929C108.688 563.834 108.531 562.727 108.43 561.615C108.328 560.499 108.277 559.383 108.277 558.263V537.763C108.023 536.873 106.625 536.055 105.672 535.438C102.645 533.672 99.8906 531.507 97.4023 528.944C97.1094 528.625 96.8438 528.281 96.6133 527.903C96.3828 527.53 96.1875 527.135 96.0273 526.716C95.8672 526.3 95.7461 525.873 95.6641 525.432C95.5859 524.987 95.543 524.543 95.543 524.094C95.543 523.645 95.5859 523.196 95.6641 522.755C95.7461 522.315 95.8672 521.887 96.0273 521.471C96.1875 521.052 96.3828 520.657 96.6133 520.284C96.8438 519.906 97.1094 519.562 97.4023 519.239C98.918 517.67 100.551 516.256 102.301 515.002C102.094 515.61 101.969 516.235 101.93 516.877C101.891 517.519 101.934 518.157 102.063 518.786C102.195 519.415 102.402 520.015 102.691 520.582C102.98 521.144 103.336 521.656 103.762 522.113C106.25 524.673 109.004 526.838 112.031 528.604C112.984 529.221 114.383 530.039 114.637 530.928V551.432C114.637 552.548 114.688 553.664 114.789 554.78C114.891 555.892 115.043 557 115.246 558.095C115.453 559.194 115.703 560.281 116.008 561.351C116.309 562.42 116.66 563.473 117.059 564.506C117.457 565.542 117.902 566.553 118.391 567.539C118.883 568.525 119.418 569.486 119.996 570.413C120.574 571.344 121.195 572.242 121.855 573.107C122.516 573.975 123.215 574.802 123.949 575.595C124.688 576.383 125.457 577.134 126.262 577.843C127.066 578.557 127.902 579.22 128.77 579.841C129.633 580.466 130.527 581.04 131.445 581.565C132.363 582.094 133.305 582.572 134.266 583C135.227 583.428 136.207 583.805 137.203 584.128C138.199 584.456 139.207 584.728 140.23 584.947C141.25 585.165 142.281 585.328 143.316 585.437C144.352 585.547 145.391 585.601 146.434 585.601Z" fill="#E89E00"/>
<path d="M120.996 462.586C118.922 465.536 117.336 468.766 116.25 472.274C115.16 475.785 114.625 479.389 114.637 483.09V504.068C113.832 504.79 112.961 505.402 112.031 505.914C110.949 506.598 109.676 507.416 108.277 508.373V489.92C108.281 487.269 108.566 484.655 109.133 482.075C109.703 479.494 110.539 477.015 111.641 474.644C112.746 472.274 114.086 470.067 115.668 468.032C117.246 465.993 119.023 464.18 120.996 462.586Z" fill="#E89E00"/>
<path d="M146.434 462.586V469.421H140.074C136.504 469.417 133.195 470.419 130.152 472.425C131.008 470.927 132.023 469.568 133.199 468.351C134.375 467.13 135.676 466.089 137.102 465.229C138.527 464.369 140.027 463.715 141.609 463.266C143.191 462.817 144.797 462.59 146.434 462.586Z" fill="#E89E00"/>
<path d="M202.52 495.526C202.312 496.029 202.074 496.52 201.812 496.994C201.547 497.468 201.258 497.926 200.941 498.362C200.629 498.798 200.289 499.209 199.926 499.604C199.562 499.994 199.18 500.363 198.777 500.703C198.375 501.047 197.953 501.362 197.512 501.647C197.074 501.937 196.621 502.193 196.152 502.423C195.684 502.65 195.207 502.847 194.715 503.011C194.223 503.178 193.727 503.313 193.223 503.413C192.715 503.514 192.207 503.581 191.691 503.615C191.18 503.648 190.668 503.653 190.152 503.619C189.641 503.585 189.129 503.523 188.625 503.422C188.121 503.321 187.621 503.191 187.129 503.027C186.641 502.864 186.16 502.671 185.691 502.444C185.223 502.218 184.766 501.962 184.324 501.676C183.887 501.391 183.465 501.076 183.059 500.737C182.652 500.397 182.27 500.028 181.906 499.637C181.543 499.247 181.203 498.836 180.887 498.4C180.57 497.963 180.277 497.51 180.012 497.036C179.746 496.566 179.508 496.075 179.297 495.572C179.086 495.068 178.906 494.552 178.754 494.024C178.602 493.499 178.477 492.962 178.387 492.417C178.293 491.876 178.234 491.326 178.203 490.776C178.172 490.222 178.176 489.673 178.207 489.119C178.238 488.569 178.301 488.024 178.395 487.479C178.488 486.937 178.613 486.4 178.766 485.872C178.922 485.347 179.105 484.831 179.316 484.328C179.527 483.824 179.77 483.337 180.035 482.868C180.305 482.393 180.598 481.94 180.914 481.508C181.234 481.072 181.574 480.661 181.941 480.275C182.305 479.885 182.691 479.519 183.098 479.18C183.504 478.84 183.926 478.529 184.367 478.248C184.809 477.963 185.262 477.707 185.734 477.485C184.957 479.259 184.574 481.126 184.59 483.09C184.59 483.984 184.676 484.873 184.84 485.75C185.004 486.631 185.246 487.483 185.566 488.313C185.887 489.14 186.281 489.929 186.742 490.671C187.207 491.418 187.734 492.106 188.324 492.74C188.914 493.373 189.555 493.94 190.25 494.439C190.941 494.938 191.676 495.362 192.445 495.706C193.215 496.05 194.012 496.31 194.828 496.487C195.645 496.663 196.473 496.755 197.309 496.755C199.133 496.772 200.871 496.361 202.52 495.526Z" fill="#E89E00"/>
<path d="M171.871 558.263H180.965L178.23 565.097H165.512L178.23 517.259H182.746L171.871 558.263Z" fill="#E89E00"/>
<mask id="mask4_49_217" style="mask-type:luminance" maskUnits="userSpaceOnUse" x="478" y="0" width="78" height="83">
<path d="M478.25 0H555.055V82.1667H478.25V0Z" fill="white"/>
</mask>
<g mask="url(#mask4_49_217)">
<path d="M478.691 0L555.004 82.0114H478.691V0Z" fill="#FFAF36"/>
</g>
<mask id="mask5_49_217" style="mask-type:luminance" maskUnits="userSpaceOnUse" x="262" y="0" width="294" height="424">
<path d="M262.25 0H555.055V423.722H262.25V0Z" fill="white"/>
</mask>
<g mask="url(#mask5_49_217)">
<path d="M555.004 82.0114V423.722H262.48V0H478.691V82.0114H555.004Z" fill="#FF6D00"/>
</g>
<path d="M275.199 54.6729V382.719C275.199 383.612 275.238 384.506 275.32 385.395C275.402 386.289 275.523 387.17 275.688 388.051C275.852 388.928 276.051 389.797 276.293 390.652C276.535 391.508 276.816 392.352 277.137 393.178C277.453 394.005 277.809 394.815 278.203 395.603C278.594 396.392 279.023 397.16 279.484 397.902C279.949 398.649 280.445 399.367 280.973 400.059C281.5 400.751 282.059 401.414 282.648 402.048C283.238 402.681 283.855 403.281 284.5 403.848C285.141 404.418 285.812 404.951 286.504 405.446C287.195 405.945 287.91 406.403 288.645 406.827C289.379 407.246 290.133 407.632 290.902 407.972C291.672 408.316 292.453 408.618 293.25 408.878C294.047 409.138 294.855 409.352 295.672 409.528C296.488 409.705 297.312 409.835 298.141 409.923C298.973 410.011 299.801 410.053 300.637 410.053H516.848C517.68 410.053 518.512 410.011 519.34 409.923C520.172 409.835 520.992 409.705 521.812 409.528C522.629 409.352 523.434 409.138 524.23 408.878C525.031 408.618 525.812 408.316 526.582 407.972C527.352 407.632 528.105 407.246 528.84 406.827C529.574 406.403 530.289 405.945 530.98 405.446C531.672 404.951 532.34 404.418 532.984 403.848C533.629 403.281 534.246 402.681 534.836 402.048C535.426 401.414 535.984 400.751 536.512 400.059C537.039 399.367 537.535 398.649 538 397.902C538.461 397.16 538.891 396.392 539.281 395.603C539.676 394.815 540.031 394.005 540.348 393.178C540.668 392.352 540.949 391.508 541.191 390.652C541.434 389.797 541.633 388.928 541.797 388.051C541.961 387.17 542.082 386.289 542.164 385.395C542.246 384.506 542.285 383.612 542.285 382.719V368.206C275.199 350.522 275.199 54.6729 275.199 54.6729Z" fill="#F54E00"/>
<mask id="mask6_49_217" style="mask-type:luminance" maskUnits="userSpaceOnUse" x="484" y="81" width="72" height="16">
<path d="M484.25 81.0926H555.055V96.1296H484.25V81.0926Z" fill="white"/>
</mask>
<g mask="url(#mask6_49_217)">
<path d="M485.051 82.0114H555.004V95.6807H485.051V82.0114Z" fill="#F54E00"/>
</g>
<mask id="mask7_49_217" style="mask-type:luminance" maskUnits="userSpaceOnUse" x="211" y="19" width="231" height="112">
<path d="M211.555 19.8704H441.25V130.5H211.555V19.8704Z" fill="white"/>
</mask>
<g mask="url(#mask7_49_217)">
<path d="M211.605 20.5039H440.539V129.85H211.605V20.5039Z" fill="#F54100"/>
</g>
<path d="M262.48 129.85H427.82V150.354H262.48V129.85Z" fill="#D63900"/>
<path d="M402.383 95.6807V41.0036H389.664V102.515C389.664 102.964 389.703 103.405 389.785 103.845C389.867 104.286 389.988 104.714 390.148 105.129C390.309 105.545 390.504 105.939 390.734 106.312C390.969 106.682 391.23 107.03 391.527 107.344C391.82 107.663 392.145 107.949 392.492 108.196C392.836 108.444 393.203 108.658 393.59 108.826C393.977 108.998 394.375 109.128 394.781 109.216C395.191 109.304 395.605 109.346 396.023 109.346H421.461V95.6807H402.383Z" fill="white"/>
<path d="M262.48 68.3422H243.402V41.0036H230.684V109.346H243.402V82.0114H262.48V109.346H275.199V41.0036H262.48V68.3422Z" fill="white"/>
<path d="M281.559 54.6729H294.277V109.346H306.996V54.6729H319.715V41.0036H281.559V54.6729Z" fill="white"/>
<path d="M371.859 41.1505C371.141 40.9868 370.418 40.9575 369.691 41.0665C368.969 41.1714 368.277 41.4106 367.629 41.7714C366.98 42.1364 366.406 42.6105 365.91 43.1895C365.414 43.7685 365.023 44.423 364.734 45.1489L351.508 78.3277L338.277 45.1489C337.988 44.423 337.594 43.7727 337.098 43.1979C336.598 42.6189 336.027 42.149 335.375 41.784C334.727 41.419 334.039 41.184 333.316 41.0749C332.59 40.9659 331.871 40.9868 331.152 41.1463C330.434 41.3057 329.762 41.5868 329.137 41.9938C328.512 42.4049 327.965 42.9126 327.504 43.521C327.043 44.1293 326.688 44.8048 326.441 45.5475C326.195 46.2901 326.074 47.0537 326.07 47.8383V109.346H338.789V81.1346L345.664 98.3701C345.91 98.9868 346.23 99.549 346.633 100.061C347.031 100.577 347.488 101.018 348.008 101.383C348.527 101.752 349.086 102.033 349.684 102.222C350.277 102.415 350.887 102.511 351.508 102.511C352.133 102.511 352.738 102.415 353.336 102.222C353.934 102.033 354.488 101.752 355.008 101.383C355.527 101.018 355.988 100.577 356.387 100.061C356.785 99.549 357.109 98.9868 357.352 98.3701L364.227 81.1346V109.346H376.945V47.8383C376.945 47.0537 376.82 46.2901 376.574 45.5475C376.328 44.8048 375.973 44.1293 375.512 43.521C375.047 42.9126 374.504 42.4008 373.875 41.9938C373.25 41.5868 372.578 41.3057 371.859 41.1505Z" fill="white"/>
<path d="M338.789 334.876L287.918 273.369L338.789 211.861H364.227L313.355 273.369L364.227 334.876H338.789Z" fill="white"/>
<path d="M478.691 334.876L529.566 273.369L478.691 211.861H453.258L504.129 273.369L453.258 334.876H478.691Z" fill="white"/>
<path d="M383.305 334.876L415.102 211.861H434.18L402.383 334.876H383.305Z" fill="white"/>
<path d="M287.918 273.369L327.484 225.53H326.07L275.199 287.038L326.07 348.545H351.508L340.203 334.876H338.789L287.918 273.369Z" fill="#D63900"/>
<path d="M504.129 273.369L464.562 225.53H440.539L491.41 287.038L440.539 348.545H465.977L477.281 334.876H453.258L504.129 273.369Z" fill="#D63900"/>
<path d="M411.566 225.53H402.383L370.586 348.545H389.664L393.199 334.876H383.305L411.566 225.53Z" fill="#D63900"/>
<path d="M389.664 102.515V47.8383H383.305V109.346C383.305 109.795 383.348 110.239 383.426 110.68C383.508 111.121 383.629 111.548 383.789 111.964C383.949 112.379 384.145 112.769 384.375 113.143C384.609 113.516 384.871 113.864 385.168 114.179C385.465 114.498 385.785 114.779 386.133 115.031C386.477 115.278 386.844 115.488 387.23 115.66C387.617 115.832 388.016 115.962 388.422 116.05C388.832 116.138 389.246 116.18 389.664 116.18H415.102V109.346H396.023C395.605 109.346 395.191 109.304 394.781 109.216C394.375 109.128 393.977 108.998 393.59 108.826C393.203 108.658 392.836 108.444 392.492 108.196C392.145 107.949 391.82 107.663 391.527 107.344C391.23 107.03 390.969 106.682 390.734 106.312C390.504 105.939 390.309 105.545 390.148 105.129C389.988 104.714 389.867 104.286 389.785 103.845C389.703 103.405 389.664 102.964 389.664 102.515Z" fill="#D63900"/>
<path d="M256.121 47.8383H262.48V68.3422H256.121V47.8383Z" fill="#D63900"/>
<path d="M230.684 47.8383H224.324V116.18H237.043V109.346H230.684V47.8383Z" fill="#D63900"/>
<path d="M262.48 82.0114H243.402V88.8461H256.121V116.18H268.84V109.346H262.48V82.0114Z" fill="#D63900"/>
<path d="M306.996 54.6729H313.355V61.5075H306.996V54.6729Z" fill="#D63900"/>
<path d="M294.277 54.6729H281.559V47.8383H275.199V61.5075H287.918V116.18H300.637V109.346H294.277V54.6729Z" fill="#D63900"/>
<path d="M326.07 47.9348C325.648 47.9012 325.223 47.918 324.801 47.9851C324.082 48.1403 323.41 48.4214 322.785 48.8284C322.156 49.2354 321.613 49.7473 321.148 50.3556C320.684 50.964 320.328 51.6395 320.082 52.3821C319.836 53.1205 319.715 53.8883 319.715 54.6729V116.18H332.43V109.346H326.07V47.9348Z" fill="#D63900"/>
<path d="M363.641 47.9096C363.074 47.9641 362.52 48.0984 361.984 48.3165C361.449 48.5305 360.953 48.82 360.488 49.1808C360.027 49.5417 359.617 49.9612 359.258 50.4437C358.902 50.922 358.609 51.4423 358.383 52.0087L349.691 73.809L351.508 78.3613L363.641 47.9096Z" fill="#D63900"/>
<path d="M345.664 98.3701L338.789 81.1346V103.879L339.305 105.171C339.551 105.788 339.875 106.35 340.273 106.862C340.672 107.374 341.129 107.814 341.648 108.184C342.168 108.553 342.727 108.83 343.324 109.023C343.918 109.216 344.527 109.312 345.148 109.312C345.773 109.312 346.383 109.216 346.977 109.023C347.574 108.83 348.129 108.553 348.648 108.184C349.168 107.814 349.629 107.374 350.027 106.862C350.426 106.35 350.75 105.788 350.992 105.171L352.105 102.385C351.902 102.385 351.711 102.478 351.508 102.478C350.891 102.482 350.281 102.385 349.688 102.196C349.09 102.008 348.535 101.731 348.016 101.366C347.496 101.001 347.035 100.564 346.637 100.053C346.238 99.5449 345.914 98.9826 345.664 98.3701Z" fill="#D63900"/>
<path d="M364.227 81.1346L357.867 97.082V116.18H370.586V109.346H364.227V81.1346Z" fill="#D63900"/>
<mask id="mask8_49_217" style="mask-type:luminance" maskUnits="userSpaceOnUse" x="553" y="359" width="77" height="83">
<path d="M553.25 359.173H629.973V441.981H553.25V359.173Z" fill="white"/>
</mask>
<g mask="url(#mask8_49_217)">
<path d="M553.609 359.173L629.922 441.184H553.609V359.173Z" fill="#59CAFF"/>
</g>
<mask id="mask9_49_217" style="mask-type:luminance" maskUnits="userSpaceOnUse" x="337" y="359" width="293" height="424">
<path d="M337.25 359.173H629.973V782.895H337.25V359.173Z" fill="white"/>
</mask>
<g mask="url(#mask9_49_217)">
<path d="M629.922 441.184V782.895H337.398V359.173H553.609V441.184H629.922Z" fill="#0096DC"/>
</g>
<path d="M350.117 413.846V741.891C350.117 742.785 350.156 743.679 350.238 744.568C350.32 745.462 350.441 746.347 350.605 747.224C350.77 748.101 350.969 748.969 351.211 749.825C351.453 750.681 351.734 751.525 352.051 752.351C352.371 753.178 352.727 753.987 353.121 754.776C353.512 755.565 353.941 756.333 354.402 757.08C354.867 757.822 355.363 758.54 355.891 759.232C356.418 759.924 356.977 760.587 357.566 761.221C358.156 761.854 358.773 762.454 359.418 763.021C360.059 763.591 360.73 764.124 361.422 764.619C362.113 765.118 362.828 765.576 363.562 765.999C364.297 766.423 365.051 766.805 365.82 767.145C366.59 767.489 367.371 767.791 368.168 768.051C368.965 768.311 369.773 768.529 370.59 768.701C371.406 768.878 372.23 769.008 373.059 769.096C373.891 769.184 374.719 769.226 375.555 769.226H591.766C592.598 769.226 593.43 769.184 594.258 769.096C595.09 769.008 595.91 768.878 596.73 768.701C597.547 768.529 598.352 768.311 599.148 768.051C599.949 767.791 600.73 767.489 601.5 767.145C602.27 766.805 603.023 766.423 603.758 765.999C604.492 765.576 605.207 765.118 605.898 764.619C606.59 764.124 607.258 763.591 607.902 763.021C608.547 762.454 609.164 761.854 609.754 761.221C610.344 760.587 610.902 759.924 611.43 759.232C611.957 758.54 612.453 757.822 612.918 757.08C613.379 756.333 613.809 755.565 614.199 754.776C614.594 753.987 614.949 753.178 615.266 752.351C615.586 751.525 615.867 750.681 616.109 749.825C616.348 748.969 616.551 748.101 616.715 747.224C616.875 746.347 617 745.462 617.082 744.568C617.164 743.679 617.203 742.785 617.203 741.891V727.383C350.117 709.694 350.117 413.846 350.117 413.846Z" fill="#006BC0"/>
<mask id="mask10_49_217" style="mask-type:luminance" maskUnits="userSpaceOnUse" x="559" y="440" width="71" height="15">
<path d="M559.25 440.907H629.973V454.87H559.25V440.907Z" fill="white"/>
</mask>
<g mask="url(#mask10_49_217)">
<path d="M559.969 441.184H629.922V454.854H559.969V441.184Z" fill="#005599"/>
</g>
<mask id="mask11_49_217" style="mask-type:luminance" maskUnits="userSpaceOnUse" x="286" y="378" width="231" height="112">
<path d="M286.473 378.611H516.25V489.241H286.473V378.611Z" fill="white"/>
</mask>
<g mask="url(#mask11_49_217)">
<path d="M286.523 379.677H515.457V489.023H286.523V379.677Z" fill="#006BC0"/>
</g>
<path d="M337.398 489.023H502.738V509.526H337.398V489.023Z" fill="#005599"/>
<path d="M439.145 707.718H432.785C431.746 707.718 430.707 707.664 429.672 707.551C428.637 707.441 427.605 707.274 426.586 707.055C425.566 706.837 424.555 706.565 423.559 706.237C422.563 705.914 421.586 705.537 420.625 705.109C419.664 704.681 418.723 704.202 417.805 703.674C416.887 703.145 415.996 702.57 415.129 701.949C414.266 701.324 413.43 700.661 412.625 699.952C411.82 699.239 411.051 698.492 410.313 697.699C409.578 696.906 408.879 696.08 408.219 695.215C407.559 694.351 406.938 693.453 406.359 692.522C405.781 691.595 405.246 690.634 404.754 689.648C404.266 688.662 403.82 687.651 403.422 686.619C403.023 685.587 402.672 684.533 402.367 683.464C402.066 682.394 401.813 681.307 401.605 680.212C401.402 679.117 401.25 678.009 401.148 676.897C401.043 675.781 400.992 674.665 400.988 673.549V653.045C400.715 652.152 399.363 651.317 398.383 650.7C395.348 648.951 392.59 646.786 390.117 644.209C389.82 643.891 389.559 643.547 389.324 643.173C389.094 642.8 388.898 642.405 388.738 641.99C388.578 641.579 388.457 641.151 388.375 640.71C388.293 640.27 388.254 639.825 388.254 639.376C388.254 638.927 388.293 638.482 388.375 638.046C388.457 637.606 388.578 637.178 388.738 636.762C388.898 636.347 389.094 635.953 389.324 635.579C389.559 635.21 389.82 634.862 390.117 634.547C392.59 631.967 395.348 629.806 398.383 628.052C399.309 627.532 400.176 626.919 400.988 626.215V605.207C400.992 604.087 401.043 602.971 401.148 601.859C401.25 600.743 401.402 599.64 401.605 598.545C401.813 597.445 402.066 596.363 402.367 595.293C402.672 594.219 403.023 593.17 403.422 592.134C403.82 591.102 404.266 590.09 404.754 589.104C405.246 588.118 405.781 587.162 406.359 586.23C406.938 585.303 407.559 584.405 408.219 583.541C408.879 582.673 409.578 581.846 410.313 581.057C411.051 580.264 411.82 579.513 412.625 578.804C413.43 578.095 414.266 577.428 415.129 576.807C415.996 576.186 416.887 575.611 417.805 575.083C418.723 574.554 419.664 574.076 420.625 573.648C421.586 573.22 422.563 572.842 423.559 572.515C424.555 572.192 425.566 571.919 426.586 571.697C427.605 571.479 428.637 571.315 429.672 571.202C430.707 571.093 431.746 571.038 432.785 571.034H439.145V584.703H432.785C432.16 584.703 431.539 584.737 430.918 584.804C430.293 584.867 429.676 584.968 429.063 585.098C428.453 585.228 427.848 585.391 427.25 585.584C426.648 585.782 426.063 586.008 425.484 586.264C424.906 586.52 424.344 586.809 423.793 587.124C423.242 587.439 422.707 587.787 422.188 588.16C421.668 588.534 421.168 588.932 420.684 589.356C420.199 589.784 419.738 590.233 419.297 590.707C418.855 591.181 418.434 591.681 418.039 592.201C417.641 592.717 417.27 593.258 416.922 593.816C416.578 594.374 416.254 594.949 415.961 595.541C415.668 596.132 415.398 596.74 415.16 597.361C414.922 597.982 414.711 598.612 414.531 599.254C414.348 599.896 414.195 600.546 414.074 601.205C413.953 601.863 413.863 602.526 413.801 603.197C413.738 603.865 413.707 604.536 413.707 605.207V625.707C413.711 627.15 413.527 628.56 413.152 629.94C412.777 631.325 412.23 632.621 411.508 633.834C410.785 635.046 409.918 636.12 408.906 637.064C407.895 638.008 406.781 638.78 405.563 639.376C406.781 639.976 407.895 640.744 408.906 641.688C409.918 642.632 410.785 643.71 411.508 644.923C412.23 646.135 412.777 647.432 413.152 648.812C413.527 650.197 413.711 651.606 413.707 653.045V673.549C413.707 674.221 413.738 674.888 413.801 675.559C413.863 676.226 413.953 676.889 414.074 677.548C414.195 678.206 414.348 678.857 414.531 679.499C414.711 680.141 414.922 680.774 415.16 681.395C415.398 682.016 415.668 682.62 415.961 683.212C416.254 683.803 416.578 684.382 416.922 684.94C417.27 685.498 417.641 686.035 418.039 686.556C418.434 687.076 418.855 687.571 419.297 688.045C419.738 688.519 420.199 688.972 420.684 689.396C421.168 689.824 421.668 690.223 422.188 690.596C422.707 690.969 423.242 691.314 423.793 691.628C424.344 691.947 424.906 692.232 425.484 692.492C426.063 692.748 426.648 692.975 427.25 693.168C427.848 693.365 428.453 693.525 429.063 693.659C429.676 693.789 430.293 693.885 430.918 693.953C431.539 694.02 432.16 694.049 432.785 694.049H439.145V707.718Z" fill="white"/>
<path d="M534.535 707.718H528.176V694.049H534.535C535.16 694.049 535.781 694.02 536.402 693.953C537.023 693.885 537.641 693.789 538.254 693.659C538.867 693.525 539.473 693.365 540.07 693.168C540.668 692.975 541.258 692.748 541.836 692.492C542.41 692.232 542.977 691.947 543.527 691.628C544.078 691.314 544.613 690.969 545.133 690.596C545.652 690.223 546.152 689.824 546.637 689.396C547.117 688.972 547.582 688.519 548.023 688.045C548.465 687.571 548.883 687.076 549.281 686.556C549.676 686.035 550.047 685.498 550.395 684.94C550.742 684.382 551.063 683.803 551.359 683.212C551.652 682.62 551.918 682.016 552.16 681.395C552.398 680.774 552.609 680.141 552.789 679.499C552.973 678.857 553.121 678.206 553.246 677.548C553.367 676.889 553.457 676.226 553.52 675.559C553.582 674.888 553.609 674.221 553.609 673.549V653.045C553.605 651.606 553.793 650.197 554.168 648.812C554.539 647.432 555.09 646.135 555.813 644.923C556.535 643.71 557.402 642.632 558.414 641.688C559.422 640.744 560.539 639.976 561.758 639.376C560.539 638.78 559.422 638.008 558.414 637.064C557.402 636.12 556.535 635.046 555.813 633.834C555.09 632.621 554.539 631.325 554.168 629.94C553.793 628.56 553.605 627.15 553.609 625.707V605.207C553.609 604.536 553.582 603.865 553.52 603.197C553.457 602.526 553.367 601.863 553.246 601.205C553.121 600.546 552.973 599.896 552.789 599.254C552.609 598.612 552.398 597.982 552.16 597.361C551.918 596.74 551.652 596.132 551.359 595.541C551.063 594.949 550.742 594.374 550.395 593.816C550.047 593.258 549.676 592.717 549.281 592.201C548.883 591.681 548.465 591.181 548.023 590.707C547.582 590.233 547.117 589.784 546.637 589.356C546.152 588.932 545.652 588.534 545.133 588.16C544.613 587.787 544.078 587.439 543.527 587.124C542.977 586.809 542.41 586.52 541.836 586.264C541.258 586.008 540.668 585.782 540.07 585.584C539.473 585.391 538.867 585.228 538.254 585.098C537.641 584.968 537.023 584.867 536.402 584.804C535.781 584.737 535.16 584.703 534.535 584.703H528.176V571.034H534.535C535.574 571.038 536.613 571.093 537.648 571.202C538.684 571.315 539.715 571.479 540.734 571.697C541.754 571.919 542.762 572.192 543.758 572.515C544.754 572.842 545.734 573.22 546.695 573.648C547.656 574.076 548.598 574.554 549.516 575.083C550.434 575.611 551.324 576.186 552.188 576.807C553.055 577.428 553.891 578.095 554.695 578.804C555.5 579.513 556.27 580.264 557.004 581.057C557.742 581.846 558.441 582.673 559.102 583.541C559.762 584.405 560.379 585.303 560.961 586.23C561.539 587.162 562.074 588.118 562.563 589.104C563.055 590.09 563.5 591.102 563.898 592.134C564.297 593.17 564.648 594.219 564.953 595.293C565.254 596.363 565.508 597.445 565.711 598.545C565.918 599.64 566.07 600.743 566.172 601.859C566.277 602.971 566.328 604.087 566.328 605.207V625.707C566.602 626.605 567.957 627.44 568.938 628.052C571.973 629.806 574.73 631.967 577.203 634.547C577.5 634.862 577.762 635.21 577.996 635.579C578.227 635.953 578.422 636.347 578.582 636.762C578.742 637.178 578.863 637.606 578.945 638.046C579.023 638.482 579.066 638.927 579.066 639.376C579.066 639.825 579.023 640.27 578.945 640.71C578.863 641.151 578.742 641.579 578.582 641.994C578.422 642.405 578.227 642.8 577.996 643.173C577.762 643.547 577.5 643.891 577.203 644.209C574.73 646.786 571.973 648.951 568.938 650.7C568.004 651.22 567.129 651.833 566.309 652.542L566.328 673.549C566.328 674.665 566.277 675.781 566.172 676.897C566.07 678.009 565.918 679.117 565.711 680.212C565.508 681.307 565.254 682.394 564.953 683.464C564.648 684.533 564.297 685.587 563.898 686.619C563.5 687.651 563.055 688.662 562.563 689.648C562.074 690.634 561.539 691.595 560.961 692.522C560.379 693.453 559.762 694.351 559.102 695.215C558.441 696.08 557.742 696.906 557.004 697.699C556.27 698.492 555.5 699.239 554.695 699.952C553.891 700.661 553.055 701.324 552.188 701.949C551.324 702.57 550.434 703.145 549.516 703.674C548.598 704.202 547.656 704.681 546.695 705.109C545.734 705.537 544.754 705.914 543.758 706.237C542.762 706.565 541.754 706.837 540.734 707.055C539.715 707.274 538.684 707.441 537.648 707.551C536.613 707.664 535.574 707.718 534.535 707.718Z" fill="white"/>
<path d="M553.609 700.884C552.129 703.007 550.441 704.916 548.543 706.611C546.648 708.31 544.598 709.753 542.391 710.941C540.184 712.124 537.879 713.022 535.477 713.634C533.078 714.242 530.641 714.553 528.176 714.553H521.816V700.884H528.176V707.718H534.535C537.977 707.735 541.328 707.156 544.594 705.986C547.859 704.819 550.867 703.116 553.609 700.884Z" fill="#005599"/>
<path d="M554.945 646.484C554.012 648.556 553.566 650.742 553.609 653.045V673.549C553.605 675.307 553.395 677.032 552.977 678.731C552.563 680.43 551.953 682.045 551.152 683.577C550.352 685.108 549.383 686.505 548.246 687.772C547.113 689.035 545.848 690.126 544.453 691.045C546.32 687.772 547.254 684.219 547.25 680.384V659.88C547.238 658.487 547.406 657.119 547.754 655.777C548.102 654.434 548.617 653.171 549.297 651.988C549.98 650.801 550.801 649.744 551.758 648.808C552.719 647.872 553.781 647.096 554.945 646.484Z" fill="#005599"/>
<path d="M572.309 648.468C572.027 649.467 571.539 650.335 570.844 651.065C569.453 652.555 567.945 653.897 566.328 655.097V652.567C567.133 651.85 568.004 651.233 568.938 650.721C570.105 650.05 571.23 649.295 572.309 648.468Z" fill="#005599"/>
<path d="M561.75 639.376C558.953 640.933 556.746 643.165 555.137 646.077C553.953 645.464 552.871 644.684 551.891 643.744C550.91 642.8 550.07 641.734 549.375 640.534C548.676 639.338 548.145 638.059 547.785 636.699C547.426 635.34 547.246 633.955 547.25 632.542V612.042C547.25 611.371 547.219 610.699 547.156 610.032C547.094 609.365 547 608.702 546.875 608.043C546.754 607.389 546.602 606.739 546.418 606.097C546.234 605.455 546.023 604.825 545.785 604.204C545.543 603.583 545.277 602.979 544.98 602.388C544.688 601.796 544.367 601.221 544.02 600.663C543.672 600.105 543.301 599.568 542.902 599.048C542.508 598.532 542.09 598.037 541.648 597.559C541.207 597.085 540.742 596.636 540.262 596.212C539.777 595.784 539.277 595.385 538.758 595.012C538.242 594.638 537.707 594.294 537.156 593.976C536.605 593.661 536.043 593.371 535.465 593.115C534.891 592.855 534.305 592.629 533.707 592.436C533.109 592.239 532.504 592.075 531.891 591.941C531.281 591.811 530.664 591.71 530.043 591.643C529.422 591.576 528.797 591.538 528.176 591.538H521.816V577.869H528.176V584.703H534.535C535.156 584.707 535.781 584.741 536.402 584.808C537.023 584.875 537.641 584.976 538.25 585.106C538.863 585.24 539.469 585.404 540.066 585.601C540.66 585.794 541.25 586.025 541.824 586.281C542.402 586.537 542.965 586.826 543.516 587.141C544.066 587.46 544.602 587.804 545.117 588.177C545.637 588.551 546.137 588.949 546.621 589.377C547.102 589.801 547.566 590.254 548.008 590.728C548.449 591.202 548.867 591.697 549.262 592.218C549.66 592.734 550.031 593.271 550.379 593.829C550.727 594.387 551.047 594.962 551.34 595.553C551.637 596.145 551.902 596.749 552.145 597.37C552.383 597.991 552.594 598.62 552.777 599.262C552.961 599.904 553.113 600.554 553.234 601.209C553.359 601.867 553.449 602.53 553.516 603.198C553.578 603.865 553.609 604.536 553.609 605.207V625.707C553.609 627.146 553.793 628.556 554.168 629.94C554.543 631.321 555.09 632.617 555.812 633.83C556.535 635.042 557.398 636.12 558.41 637.064C559.422 638.004 560.535 638.776 561.75 639.376Z" fill="#005599"/>
<path d="M432.785 707.718V714.553H426.426C425.387 714.553 424.348 714.498 423.309 714.389C422.273 714.28 421.246 714.117 420.223 713.898C419.203 713.68 418.195 713.408 417.195 713.08C416.199 712.757 415.223 712.38 414.258 711.952C413.297 711.524 412.355 711.045 411.438 710.517C410.52 709.992 409.629 709.418 408.762 708.797C407.895 708.171 407.062 707.509 406.254 706.795C405.449 706.086 404.68 705.335 403.945 704.546C403.207 703.754 402.508 702.927 401.848 702.059C401.188 701.194 400.566 700.296 399.988 699.369C399.41 698.438 398.875 697.477 398.387 696.491C397.895 695.505 397.449 694.494 397.051 693.458C396.652 692.425 396.301 691.372 396 690.302C395.699 689.233 395.445 688.146 395.242 687.051C395.039 685.952 394.887 684.844 394.785 683.732C394.684 682.62 394.629 681.5 394.629 680.384V659.88C394.375 658.991 392.977 658.173 392.023 657.556C388.996 655.789 386.242 653.624 383.758 651.065C383.461 650.746 383.199 650.398 382.965 650.02C382.734 649.647 382.539 649.253 382.379 648.837C382.219 648.418 382.102 647.99 382.02 647.549C381.938 647.109 381.898 646.66 381.898 646.211C381.898 645.762 381.938 645.317 382.02 644.872C382.102 644.432 382.219 644.004 382.379 643.589C382.539 643.173 382.734 642.775 382.965 642.401C383.199 642.028 383.461 641.68 383.758 641.361C385.27 639.787 386.902 638.378 388.652 637.123C388.445 637.727 388.324 638.352 388.281 638.994C388.242 639.641 388.289 640.274 388.418 640.908C388.547 641.537 388.754 642.133 389.043 642.699C389.332 643.266 389.691 643.773 390.117 644.231C392.602 646.79 395.355 648.955 398.383 650.721C399.336 651.338 400.734 652.156 400.988 653.045V673.549C400.988 674.67 401.043 675.786 401.145 676.897C401.246 678.014 401.398 679.117 401.602 680.216C401.805 681.311 402.059 682.398 402.359 683.468C402.66 684.538 403.012 685.591 403.41 686.627C403.809 687.659 404.254 688.67 404.746 689.656C405.234 690.642 405.77 691.603 406.348 692.534C406.926 693.462 407.547 694.36 408.207 695.228C408.867 696.092 409.566 696.919 410.305 697.712C411.039 698.501 411.809 699.252 412.613 699.965C413.418 700.674 414.254 701.337 415.121 701.962C415.988 702.583 416.879 703.158 417.797 703.686C418.715 704.211 419.656 704.689 420.617 705.117C421.582 705.545 422.559 705.923 423.555 706.25C424.551 706.573 425.562 706.846 426.582 707.064C427.605 707.282 428.633 707.446 429.668 707.555C430.707 707.664 431.746 707.718 432.785 707.718Z" fill="#005599"/>
<path d="M407.348 584.703C405.273 587.653 403.691 590.883 402.602 594.395C401.516 597.903 400.977 601.507 400.988 605.207V626.185C400.184 626.907 399.316 627.524 398.383 628.031C397.301 628.715 396.031 629.538 394.629 630.494V612.042C394.633 609.39 394.918 606.772 395.488 604.192C396.055 601.612 396.891 599.136 397.996 596.761C399.098 594.391 400.441 592.184 402.02 590.149C403.602 588.11 405.375 586.298 407.348 584.703Z" fill="#005599"/>
<path d="M432.785 584.703V591.538H426.426C422.855 591.538 419.551 592.536 416.508 594.546C417.359 593.044 418.375 591.689 419.551 590.468C420.73 589.247 422.031 588.207 423.453 587.347C424.879 586.486 426.383 585.832 427.961 585.383C429.543 584.934 431.152 584.708 432.785 584.703Z" fill="#005599"/>
<path d="M394.629 468.523C374.512 468.523 369.195 455.114 369.195 448.019H375.555L381.914 447.822C381.988 448.997 382.93 454.854 394.629 454.854C395.047 454.854 395.461 454.807 395.871 454.724C396.281 454.635 396.68 454.505 397.062 454.333C397.449 454.161 397.816 453.952 398.164 453.7C398.512 453.452 398.832 453.167 399.129 452.852C399.422 452.533 399.688 452.189 399.918 451.816C400.148 451.443 400.348 451.048 400.508 450.633C400.664 450.222 400.785 449.794 400.867 449.353C400.949 448.913 400.988 448.468 400.988 448.019C400.988 447.57 400.949 447.125 400.867 446.685C400.785 446.244 400.664 445.816 400.508 445.405C400.348 444.99 400.148 444.595 399.918 444.222C399.688 443.849 399.422 443.505 399.129 443.186C398.832 442.871 398.512 442.586 398.164 442.338C397.816 442.086 397.449 441.877 397.062 441.705C396.68 441.533 396.281 441.403 395.871 441.314C395.461 441.23 395.047 441.184 394.629 441.184H388.273C387.648 441.184 387.023 441.151 386.402 441.088C385.781 441.021 385.164 440.92 384.551 440.79C383.938 440.66 383.332 440.496 382.734 440.303C382.137 440.106 381.547 439.88 380.973 439.624C380.395 439.368 379.828 439.078 379.277 438.763C378.727 438.449 378.191 438.101 377.672 437.731C377.152 437.358 376.652 436.955 376.168 436.531C375.688 436.103 375.223 435.655 374.781 435.18C374.34 434.706 373.922 434.207 373.523 433.687C373.129 433.171 372.758 432.63 372.41 432.071C372.063 431.513 371.742 430.939 371.445 430.347C371.152 429.756 370.887 429.147 370.645 428.526C370.406 427.909 370.195 427.276 370.016 426.634C369.836 425.992 369.684 425.342 369.559 424.683C369.437 424.024 369.348 423.361 369.285 422.69C369.223 422.023 369.195 421.352 369.195 420.68C369.195 420.009 369.223 419.342 369.285 418.671C369.348 418.004 369.437 417.341 369.559 416.682C369.684 416.023 369.836 415.373 370.016 414.731C370.195 414.089 370.406 413.456 370.645 412.835C370.887 412.214 371.152 411.61 371.445 411.018C371.742 410.426 372.063 409.852 372.41 409.289C372.758 408.731 373.129 408.194 373.523 407.674C373.922 407.158 374.34 406.659 374.781 406.185C375.223 405.711 375.688 405.257 376.168 404.834C376.652 404.406 377.152 404.007 377.672 403.634C378.191 403.26 378.727 402.916 379.277 402.602C379.828 402.283 380.395 401.997 380.973 401.741C381.547 401.481 382.137 401.259 382.734 401.062C383.332 400.869 383.938 400.705 384.551 400.575C385.164 400.441 385.781 400.344 386.402 400.277C387.023 400.21 387.648 400.181 388.273 400.181C408.391 400.181 413.707 413.59 413.707 420.68H400.988C400.922 419.703 399.98 413.846 388.273 413.846C387.855 413.846 387.441 413.892 387.031 413.98C386.621 414.068 386.223 414.198 385.84 414.366C385.453 414.538 385.086 414.752 384.738 415C384.391 415.247 384.07 415.532 383.773 415.851C383.48 416.166 383.215 416.51 382.984 416.883C382.754 417.257 382.555 417.651 382.395 418.067C382.238 418.482 382.117 418.91 382.035 419.35C381.953 419.787 381.914 420.232 381.914 420.68C381.914 421.129 381.953 421.574 382.035 422.015C382.117 422.455 382.238 422.883 382.395 423.298C382.555 423.714 382.754 424.104 382.984 424.477C383.215 424.851 383.48 425.199 383.773 425.514C384.07 425.833 384.391 426.114 384.738 426.365C385.086 426.613 385.453 426.823 385.84 426.995C386.223 427.167 386.621 427.297 387.031 427.385C387.441 427.473 387.855 427.515 388.273 427.515H394.629C395.254 427.515 395.879 427.549 396.5 427.616C397.121 427.679 397.738 427.779 398.352 427.909C398.965 428.04 399.57 428.203 400.168 428.4C400.766 428.593 401.355 428.82 401.93 429.076C402.508 429.332 403.074 429.621 403.625 429.936C404.176 430.255 404.711 430.599 405.23 430.972C405.75 431.346 406.25 431.744 406.734 432.168C407.215 432.596 407.68 433.045 408.121 433.523C408.562 433.997 408.98 434.492 409.379 435.013C409.773 435.533 410.145 436.07 410.492 436.628C410.84 437.186 411.16 437.761 411.457 438.352C411.75 438.948 412.016 439.552 412.258 440.173C412.496 440.794 412.707 441.423 412.887 442.065C413.066 442.712 413.219 443.362 413.344 444.021C413.465 444.679 413.555 445.342 413.617 446.009C413.68 446.676 413.707 447.348 413.707 448.019C413.707 448.69 413.68 449.362 413.617 450.029C413.555 450.696 413.465 451.359 413.344 452.017C413.219 452.676 413.066 453.326 412.887 453.973C412.707 454.614 412.496 455.244 412.258 455.865C412.016 456.486 411.75 457.09 411.457 457.686C411.16 458.277 410.84 458.852 410.492 459.41C410.145 459.968 409.773 460.505 409.379 461.025C408.98 461.546 408.562 462.041 408.121 462.515C407.68 462.993 407.215 463.442 406.734 463.866C406.25 464.294 405.75 464.692 405.23 465.066C404.711 465.439 404.176 465.783 403.625 466.102C403.074 466.417 402.508 466.702 401.93 466.962C401.355 467.218 400.766 467.445 400.168 467.638C399.57 467.835 398.965 467.998 398.352 468.129C397.738 468.259 397.121 468.355 396.5 468.422C395.879 468.489 395.254 468.523 394.629 468.523Z" fill="white"/>
<path d="M404.551 465.515C403.699 467.012 402.684 468.372 401.508 469.593C400.328 470.809 399.027 471.85 397.602 472.714C396.18 473.574 394.676 474.229 393.094 474.678C391.516 475.123 389.906 475.349 388.273 475.357C368.176 475.357 362.836 461.961 362.836 454.854H370.594C373.199 461.415 380.004 468.523 394.629 468.523C398.199 468.523 401.508 467.52 404.551 465.515Z" fill="#08449E"/>
<path d="M400.988 448.019C400.988 448.468 400.949 448.913 400.867 449.353C400.785 449.794 400.664 450.222 400.508 450.633C400.348 451.048 400.148 451.443 399.918 451.816C399.687 452.189 399.422 452.533 399.129 452.852C398.832 453.167 398.512 453.452 398.164 453.7C397.816 453.952 397.449 454.161 397.062 454.333C396.68 454.505 396.281 454.635 395.871 454.724C395.461 454.807 395.047 454.854 394.629 454.854C394.629 454.405 394.59 453.96 394.508 453.519C394.426 453.079 394.305 452.651 394.148 452.24C393.988 451.824 393.793 451.43 393.559 451.057C393.328 450.683 393.062 450.339 392.77 450.02C392.473 449.701 392.152 449.42 391.805 449.169C391.457 448.921 391.09 448.711 390.707 448.539C390.32 448.367 389.922 448.237 389.512 448.149C389.102 448.061 388.687 448.019 388.273 448.019H381.914V447.813L380.004 447.881H379.941C378.957 447.767 377.988 447.574 377.031 447.302C376.074 447.025 375.145 446.672 374.242 446.24C373.336 445.808 372.469 445.304 371.637 444.73C370.805 444.155 370.02 443.513 369.281 442.804C368.539 442.099 367.859 441.331 367.23 440.513C366.602 439.691 366.035 438.822 365.535 437.903C365.031 436.989 364.598 436.036 364.234 435.046C363.867 434.06 363.578 433.045 363.359 432.009C363.141 430.972 363 429.923 362.934 428.862C362.867 427.8 362.879 426.739 362.969 425.682C363.055 424.62 363.219 423.575 363.457 422.543C363.695 421.511 364.008 420.504 364.391 419.527C364.777 418.545 365.23 417.605 365.75 416.699C366.273 415.797 366.855 414.941 367.5 414.135C368.145 413.326 368.844 412.579 369.598 411.891C370.352 411.198 371.148 410.577 371.992 410.019C371.113 411.576 370.437 413.225 369.965 414.97C369.492 416.72 369.242 418.503 369.211 420.32C369.184 422.141 369.375 423.932 369.789 425.694C370.203 427.456 370.824 429.135 371.652 430.721C372.48 432.306 373.488 433.746 374.672 435.046C375.859 436.343 377.184 437.45 378.641 438.373C380.102 439.292 381.648 439.989 383.281 440.467C384.918 440.945 386.578 441.184 388.273 441.184H394.629C395.047 441.184 395.461 441.23 395.871 441.314C396.281 441.403 396.68 441.533 397.062 441.705C397.449 441.877 397.816 442.086 398.164 442.338C398.512 442.586 398.832 442.871 399.129 443.186C399.422 443.505 399.687 443.849 399.918 444.222C400.148 444.595 400.348 444.99 400.508 445.405C400.664 445.816 400.785 446.244 400.867 446.685C400.949 447.125 400.988 447.57 400.988 448.019Z" fill="#08449E"/>
<path d="M407.348 427.515H394.629C394.566 426.558 393.613 420.68 381.914 420.68C381.914 420.231 381.953 419.787 382.035 419.35C382.117 418.91 382.238 418.482 382.395 418.067C382.555 417.651 382.754 417.257 382.984 416.883C383.215 416.51 383.48 416.166 383.773 415.851C384.07 415.532 384.391 415.247 384.738 415C385.086 414.752 385.453 414.538 385.84 414.366C386.223 414.198 386.621 414.068 387.031 413.98C387.441 413.892 387.855 413.846 388.273 413.846C399.973 413.846 400.926 419.724 400.988 420.68H405.949C406.855 422.858 407.324 425.136 407.348 427.515Z" fill="#08449E"/>
<path d="M451.863 468.523C431.742 468.523 426.426 455.114 426.426 448.019H432.785L439.145 447.822C439.223 448.997 440.164 454.854 451.863 454.854C452.281 454.854 452.695 454.807 453.105 454.724C453.516 454.635 453.91 454.505 454.297 454.333C454.684 454.161 455.051 453.952 455.398 453.7C455.742 453.452 456.066 453.167 456.359 452.852C456.656 452.533 456.918 452.189 457.152 451.816C457.383 451.443 457.578 451.048 457.738 450.633C457.898 450.222 458.02 449.794 458.102 449.353C458.184 448.913 458.223 448.468 458.223 448.019C458.223 447.57 458.184 447.125 458.102 446.685C458.02 446.244 457.898 445.816 457.738 445.405C457.578 444.99 457.383 444.595 457.152 444.222C456.918 443.849 456.656 443.505 456.359 443.186C456.066 442.871 455.742 442.586 455.398 442.338C455.051 442.086 454.684 441.877 454.297 441.705C453.91 441.533 453.516 441.403 453.105 441.314C452.695 441.23 452.281 441.184 451.863 441.184H445.504C444.879 441.184 444.258 441.151 443.633 441.088C443.012 441.021 442.395 440.92 441.781 440.79C441.168 440.66 440.562 440.496 439.965 440.303C439.367 440.106 438.781 439.88 438.203 439.624C437.625 439.368 437.062 439.078 436.512 438.763C435.961 438.449 435.426 438.101 434.906 437.731C434.387 437.358 433.883 436.955 433.402 436.531C432.918 436.103 432.457 435.655 432.016 435.18C431.574 434.706 431.152 434.207 430.758 433.687C430.359 433.171 429.988 432.63 429.641 432.071C429.293 431.513 428.973 430.939 428.68 430.347C428.387 429.756 428.117 429.147 427.879 428.526C427.641 427.909 427.43 427.276 427.25 426.634C427.066 425.992 426.914 425.342 426.793 424.683C426.672 424.024 426.578 423.361 426.52 422.69C426.457 422.023 426.426 421.352 426.426 420.68C426.426 420.009 426.457 419.342 426.52 418.671C426.578 418.004 426.672 417.341 426.793 416.682C426.914 416.023 427.066 415.373 427.25 414.731C427.43 414.089 427.641 413.456 427.879 412.835C428.117 412.214 428.387 411.61 428.68 411.018C428.973 410.426 429.293 409.852 429.641 409.289C429.988 408.731 430.359 408.194 430.758 407.674C431.152 407.158 431.574 406.659 432.016 406.185C432.457 405.711 432.918 405.257 433.402 404.834C433.883 404.406 434.387 404.007 434.906 403.634C435.426 403.26 435.961 402.916 436.512 402.602C437.062 402.283 437.625 401.997 438.203 401.741C438.781 401.481 439.367 401.259 439.965 401.062C440.562 400.869 441.168 400.705 441.781 400.575C442.395 400.441 443.012 400.344 443.633 400.277C444.258 400.21 444.879 400.181 445.504 400.181C465.625 400.181 470.941 413.59 470.941 420.68H458.223C458.152 419.703 457.211 413.846 445.504 413.846C445.086 413.846 444.672 413.892 444.266 413.98C443.855 414.068 443.457 414.198 443.07 414.366C442.684 414.538 442.32 414.752 441.973 415C441.625 415.247 441.305 415.532 441.008 415.851C440.711 416.166 440.449 416.51 440.219 416.883C439.984 417.257 439.789 417.651 439.629 418.067C439.469 418.482 439.348 418.91 439.266 419.35C439.188 419.787 439.145 420.232 439.145 420.68C439.145 421.129 439.188 421.574 439.266 422.015C439.348 422.455 439.469 422.883 439.629 423.298C439.789 423.714 439.984 424.104 440.219 424.477C440.449 424.851 440.711 425.199 441.008 425.514C441.305 425.833 441.625 426.114 441.973 426.365C442.32 426.613 442.684 426.823 443.07 426.995C443.457 427.167 443.855 427.297 444.266 427.385C444.672 427.473 445.086 427.515 445.504 427.515H451.863C452.488 427.515 453.113 427.549 453.734 427.616C454.355 427.679 454.973 427.779 455.586 427.909C456.199 428.04 456.805 428.203 457.402 428.4C458 428.593 458.586 428.82 459.164 429.076C459.742 429.332 460.305 429.621 460.855 429.936C461.406 430.255 461.941 430.599 462.461 430.972C462.98 431.346 463.484 431.744 463.965 432.168C464.449 432.596 464.91 433.045 465.355 433.523C465.797 433.997 466.215 434.492 466.609 435.013C467.008 435.533 467.379 436.07 467.727 436.628C468.074 437.186 468.395 437.761 468.688 438.352C468.984 438.948 469.25 439.552 469.488 440.173C469.727 440.794 469.938 441.423 470.121 442.065C470.301 442.712 470.453 443.362 470.574 444.021C470.695 444.679 470.789 445.342 470.848 446.009C470.91 446.676 470.941 447.348 470.941 448.019C470.941 448.69 470.91 449.362 470.848 450.029C470.789 450.696 470.695 451.359 470.574 452.017C470.453 452.676 470.301 453.326 470.121 453.973C469.938 454.614 469.727 455.244 469.488 455.865C469.25 456.486 468.984 457.09 468.688 457.686C468.395 458.277 468.074 458.852 467.727 459.41C467.379 459.968 467.008 460.505 466.609 461.025C466.215 461.546 465.797 462.041 465.355 462.515C464.91 462.993 464.449 463.442 463.965 463.866C463.484 464.294 462.98 464.692 462.461 465.066C461.941 465.439 461.406 465.783 460.855 466.102C460.305 466.417 459.742 466.702 459.164 466.962C458.586 467.218 458 467.445 457.402 467.638C456.805 467.835 456.199 467.998 455.586 468.129C454.973 468.259 454.355 468.355 453.734 468.422C453.113 468.489 452.488 468.523 451.863 468.523Z" fill="white"/>
<path d="M461.785 465.515C460.93 467.012 459.914 468.372 458.738 469.593C457.562 470.809 456.262 471.85 454.836 472.714C453.41 473.574 451.91 474.229 450.328 474.678C448.746 475.123 447.141 475.349 445.504 475.357C425.41 475.357 420.066 461.961 420.066 454.854H427.824C430.434 461.415 437.238 468.523 451.863 468.523C455.434 468.523 458.742 467.52 461.785 465.515Z" fill="#08449E"/>
<path d="M458.223 448.019C458.223 448.468 458.184 448.913 458.101 449.353C458.019 449.794 457.898 450.222 457.738 450.633C457.578 451.048 457.383 451.443 457.152 451.816C456.918 452.189 456.656 452.533 456.359 452.852C456.066 453.167 455.742 453.452 455.398 453.7C455.051 453.952 454.684 454.161 454.297 454.333C453.91 454.505 453.516 454.635 453.105 454.724C452.695 454.807 452.281 454.854 451.863 454.854C451.863 454.405 451.824 453.96 451.742 453.519C451.66 453.079 451.539 452.651 451.379 452.24C451.219 451.824 451.023 451.43 450.793 451.057C450.559 450.683 450.297 450.339 450 450.02C449.707 449.701 449.383 449.42 449.039 449.169C448.691 448.921 448.324 448.711 447.937 448.539C447.551 448.367 447.156 448.237 446.746 448.149C446.336 448.061 445.922 448.019 445.504 448.019H439.144V447.813L437.238 447.881H437.176C436.191 447.767 435.219 447.574 434.266 447.302C433.309 447.025 432.379 446.672 431.473 446.24C430.57 445.808 429.699 445.304 428.867 444.73C428.035 444.155 427.25 443.513 426.512 442.804C425.773 442.099 425.09 441.331 424.461 440.513C423.836 439.691 423.269 438.822 422.766 437.903C422.266 436.989 421.832 436.036 421.465 435.046C421.101 434.06 420.809 433.045 420.594 432.009C420.375 430.972 420.234 429.923 420.168 428.862C420.101 427.8 420.113 426.739 420.199 425.682C420.289 424.62 420.449 423.575 420.691 422.543C420.93 421.511 421.242 420.504 421.625 419.527C422.012 418.545 422.461 417.605 422.984 416.699C423.504 415.797 424.09 414.941 424.734 414.135C425.379 413.326 426.078 412.579 426.828 411.891C427.582 411.198 428.383 410.577 429.226 410.019C428.344 411.576 427.668 413.225 427.199 414.97C426.726 416.72 426.476 418.503 426.445 420.32C426.414 422.141 426.609 423.932 427.023 425.694C427.434 427.456 428.055 429.135 428.887 430.721C429.715 432.306 430.719 433.746 431.906 435.046C433.094 436.343 434.414 437.45 435.875 438.373C437.336 439.292 438.883 439.989 440.516 440.467C442.148 440.945 443.812 441.184 445.504 441.184H451.863C452.281 441.184 452.695 441.23 453.105 441.314C453.516 441.403 453.91 441.533 454.297 441.705C454.684 441.877 455.051 442.086 455.398 442.338C455.742 442.586 456.066 442.871 456.359 443.186C456.656 443.505 456.918 443.849 457.152 444.222C457.383 444.595 457.578 444.99 457.738 445.405C457.898 445.816 458.019 446.244 458.101 446.685C458.184 447.125 458.223 447.57 458.223 448.019Z" fill="#08449E"/>
<path d="M464.582 427.515H451.863C451.801 426.558 450.848 420.68 439.145 420.68C439.145 420.231 439.188 419.787 439.266 419.35C439.348 418.91 439.469 418.482 439.629 418.067C439.789 417.651 439.984 417.257 440.219 416.883C440.449 416.51 440.711 416.166 441.008 415.851C441.305 415.532 441.625 415.247 441.973 415C442.32 414.752 442.684 414.538 443.07 414.366C443.457 414.198 443.855 414.068 444.266 413.98C444.672 413.892 445.086 413.846 445.504 413.846C457.207 413.846 458.16 419.724 458.223 420.68H463.184C464.09 422.858 464.555 425.136 464.582 427.515Z" fill="#08449E"/>
<path d="M356.477 468.523H350.117C349.074 468.523 348.035 468.468 347 468.355C345.965 468.246 344.934 468.082 343.914 467.864C342.891 467.646 341.883 467.373 340.887 467.05C339.891 466.727 338.91 466.35 337.949 465.922C336.988 465.494 336.047 465.015 335.129 464.487C334.211 463.958 333.316 463.383 332.453 462.762C331.586 462.141 330.75 461.474 329.945 460.765C329.141 460.056 328.371 459.305 327.633 458.512C326.898 457.723 326.199 456.893 325.539 456.028C324.879 455.164 324.258 454.266 323.68 453.335C323.102 452.403 322.566 451.447 322.074 450.457C321.582 449.471 321.141 448.46 320.742 447.427C320.344 446.391 319.992 445.342 319.688 444.268C319.387 443.198 319.133 442.116 318.93 441.017C318.727 439.917 318.574 438.814 318.473 437.698C318.371 436.586 318.32 435.47 318.32 434.35C318.32 433.229 318.371 432.113 318.473 431.002C318.574 429.886 318.727 428.782 318.93 427.683C319.133 426.588 319.387 425.501 319.688 424.431C319.992 423.361 320.344 422.308 320.742 421.272C321.141 420.24 321.582 419.229 322.074 418.243C322.566 417.257 323.102 416.296 323.68 415.365C324.258 414.437 324.879 413.54 325.539 412.671C326.199 411.807 326.898 410.98 327.633 410.187C328.371 409.398 329.141 408.647 329.945 407.934C330.75 407.225 331.586 406.558 332.453 405.937C333.316 405.316 334.211 404.741 335.129 404.213C336.047 403.688 336.988 403.21 337.949 402.782C338.91 402.354 339.891 401.976 340.887 401.649C341.883 401.326 342.891 401.053 343.914 400.835C344.934 400.617 345.965 400.453 347 400.344C348.035 400.235 349.074 400.181 350.117 400.181H356.477V413.846H350.117C349.492 413.846 348.867 413.879 348.246 413.946C347.625 414.014 347.008 414.11 346.395 414.24C345.781 414.374 345.176 414.534 344.578 414.731C343.98 414.924 343.395 415.151 342.816 415.407C342.238 415.667 341.676 415.952 341.125 416.267C340.57 416.586 340.035 416.93 339.516 417.303C338.996 417.676 338.496 418.075 338.012 418.503C337.531 418.927 337.066 419.38 336.625 419.854C336.184 420.328 335.766 420.823 335.367 421.343C334.973 421.864 334.602 422.401 334.254 422.959C333.906 423.517 333.586 424.091 333.293 424.687C332.996 425.279 332.73 425.883 332.492 426.504C332.25 427.125 332.043 427.754 331.859 428.4C331.68 429.042 331.527 429.693 331.406 430.351C331.285 431.01 331.191 431.673 331.129 432.34C331.07 433.007 331.039 433.678 331.039 434.35C331.039 435.021 331.07 435.692 331.129 436.359C331.191 437.027 331.285 437.694 331.406 438.352C331.527 439.007 331.68 439.661 331.859 440.303C332.043 440.945 332.25 441.575 332.492 442.195C332.73 442.816 332.996 443.425 333.293 444.016C333.586 444.608 333.906 445.183 334.254 445.741C334.602 446.299 334.973 446.84 335.367 447.356C335.766 447.876 336.184 448.371 336.625 448.85C337.066 449.324 337.531 449.773 338.012 450.201C338.496 450.624 338.996 451.023 339.516 451.396C340.035 451.77 340.57 452.114 341.125 452.433C341.676 452.747 342.238 453.037 342.816 453.293C343.395 453.549 343.98 453.775 344.578 453.968C345.176 454.166 345.781 454.329 346.395 454.459C347.008 454.589 347.625 454.69 348.246 454.753C348.867 454.82 349.492 454.854 350.117 454.854H356.477V468.523Z" fill="#F2F2F2"/>
<path d="M350.117 468.523V475.357H343.758C342.098 475.357 340.449 475.219 338.812 474.942C337.176 474.661 335.566 474.25 333.988 473.704C332.41 473.155 330.883 472.479 329.402 471.674C327.922 470.872 326.512 469.949 325.164 468.905C323.82 467.864 322.559 466.715 321.383 465.46C320.203 464.206 319.121 462.863 318.141 461.428C317.156 459.993 316.285 458.483 315.523 456.901C314.762 455.319 314.117 453.683 313.594 451.992C313.07 450.301 312.668 448.577 312.394 446.819C312.121 445.061 311.977 443.29 311.961 441.507C311.945 439.728 312.059 437.954 312.301 436.192C312.543 434.429 312.914 432.697 313.406 430.997C313.902 429.294 314.516 427.645 315.25 426.047C315.984 424.452 316.832 422.925 317.789 421.469C318.746 420.013 319.801 418.646 320.957 417.37C322.113 416.09 323.352 414.916 324.68 413.846C322.602 416.799 321.019 420.03 319.934 423.538C318.844 427.045 318.305 430.649 318.32 434.35C318.32 435.47 318.371 436.586 318.473 437.698C318.574 438.814 318.727 439.917 318.93 441.016C319.133 442.116 319.387 443.198 319.687 444.268C319.992 445.342 320.344 446.391 320.742 447.427C321.141 448.459 321.582 449.471 322.074 450.457C322.566 451.447 323.102 452.403 323.68 453.335C324.258 454.266 324.879 455.164 325.539 456.028C326.199 456.893 326.898 457.723 327.633 458.512C328.371 459.305 329.141 460.056 329.945 460.765C330.75 461.474 331.586 462.141 332.453 462.762C333.316 463.383 334.211 463.958 335.129 464.487C336.047 465.015 336.988 465.494 337.949 465.922C338.91 466.35 339.891 466.727 340.887 467.05C341.883 467.373 342.891 467.646 343.914 467.864C344.934 468.082 345.965 468.246 347 468.355C348.035 468.468 349.074 468.523 350.117 468.523Z" fill="#08449E"/>
<path d="M350.117 413.846V420.68H343.758C340.188 420.68 336.879 421.683 333.836 423.689C334.691 422.191 335.703 420.831 336.883 419.611C338.059 418.394 339.359 417.353 340.785 416.493C342.211 415.629 343.711 414.974 345.293 414.525C346.875 414.081 348.48 413.854 350.117 413.846Z" fill="#08449E"/>
</svg>
