<svg width="68" height="68" viewBox="0 0 68 68" fill="none" xmlns="http://www.w3.org/2000/svg">
<g clip-path="url(#clip0_72_1394)">
<mask id="mask0_72_1394" style="mask-type:luminance" maskUnits="userSpaceOnUse" x="0" y="0" width="68" height="68">
<path d="M0.0273438 0.053957H68.0004V68H0.0273438V0.053957Z" fill="white"/>
</mask>
<g mask="url(#mask0_72_1394)">
<path fill-rule="evenodd" clip-rule="evenodd" d="M33.8779 -0.120613C15.0863 -0.120613 -0.147461 15.1075 -0.147461 33.8921C-0.147461 52.6767 15.0863 67.9048 33.8779 67.9048C52.6699 67.9048 67.9033 52.6767 67.9033 33.8921C67.9033 15.1075 52.6699 -0.120613 33.8779 -0.120613Z" fill="#B900FF"/>
</g>
<path fill-rule="evenodd" clip-rule="evenodd" d="M33.8776 13.8331C26.65 13.8331 20.791 19.6904 20.791 26.9152C20.791 34.1401 26.65 39.9969 33.8776 39.9969C41.1055 39.9969 46.9642 34.1401 46.9642 26.9152C46.9642 19.6904 41.1055 13.8331 33.8776 13.8331Z" fill="#EBE4FF"/>
<path fill-rule="evenodd" clip-rule="evenodd" d="M57.9008 57.9793L57.2892 56.9751C52.6125 48.9151 43.8811 43.4855 33.878 43.4855C23.8643 43.4855 15.1245 48.927 10.4522 57.0017L10.4276 57.0449L9.89062 58.015C16.0422 64.1273 24.5188 67.9048 33.878 67.9048C43.2552 67.9048 51.7465 64.1126 57.9008 57.9793Z" fill="#EBE4FF"/>
</g>
<defs>
<clipPath id="clip0_72_1394">
<rect width="68" height="68" fill="white"/>
</clipPath>
</defs>
</svg>
