<svg width="300" height="100" viewBox="0 0 300 100" fill="none" xmlns="http://www.w3.org/2000/svg">
<path d="M125.891 42.3867C126.724 42.3867 127.316 42.4844 127.668 42.6797C128.02 42.862 128.195 43.1745 128.195 43.6172V48.9688C128.195 49.4115 128.052 49.7305 127.766 49.9258C127.492 50.1081 127.036 50.1992 126.398 50.1992C125.969 50.1992 125.63 50.1471 125.383 50.043C125.135 49.9388 124.94 49.7826 124.797 49.5742C124.185 48.6107 123.397 47.8685 122.434 47.3477C121.47 46.8138 120.357 46.5469 119.094 46.5469C118.143 46.5469 117.395 46.7878 116.848 47.2695C116.314 47.7513 116.047 48.3763 116.047 49.1445C116.047 49.5221 116.164 49.8346 116.398 50.082C116.633 50.3164 116.971 50.5247 117.414 50.707C117.987 50.9284 118.97 51.1562 120.363 51.3906C121.717 51.651 122.824 51.8984 123.684 52.1328C124.543 52.3542 125.35 52.6992 126.105 53.168C128.189 54.431 129.23 56.4688 129.23 59.2812C129.23 60.7135 128.924 61.9635 128.312 63.0312C127.714 64.099 126.809 64.9323 125.598 65.5312C124.387 66.1302 122.896 66.4297 121.125 66.4297C118.951 66.4297 117.108 65.7721 115.598 64.457V65.1992C115.598 65.6419 115.435 65.9544 115.109 66.1367C114.797 66.332 114.23 66.4297 113.41 66.4297C112.577 66.4297 111.984 66.332 111.633 66.1367C111.281 65.9544 111.105 65.6419 111.105 65.1992V58.6758C111.105 58.2331 111.242 57.9206 111.516 57.7383C111.802 57.543 112.264 57.4453 112.902 57.4453C113.358 57.4453 113.716 57.5039 113.977 57.6211C114.25 57.7383 114.458 57.9401 114.602 58.2266C115.305 59.5677 116.145 60.5768 117.121 61.2539C118.098 61.931 119.237 62.2695 120.539 62.2695C121.685 62.2695 122.557 62.0352 123.156 61.5664C123.755 61.0977 124.055 60.4466 124.055 59.6133C124.055 59.0924 123.918 58.6562 123.645 58.3047C123.384 57.9401 123 57.6341 122.492 57.3867C122.076 57.1784 121.613 57.0091 121.105 56.8789C120.611 56.7487 119.875 56.5794 118.898 56.3711C117.779 56.1367 116.854 55.9219 116.125 55.7266C115.396 55.5312 114.712 55.2643 114.074 54.9258C113.085 54.4049 112.31 53.7148 111.75 52.8555C111.19 51.9831 110.91 50.8568 110.91 49.4766C110.91 48.0964 111.229 46.8724 111.867 45.8047C112.505 44.724 113.397 43.8841 114.543 43.2852C115.702 42.6862 117.023 42.3867 118.508 42.3867C119.549 42.3867 120.513 42.556 121.398 42.8945C122.284 43.2331 123.052 43.7148 123.703 44.3398V43.6172C123.703 43.1745 123.859 42.862 124.172 42.6797C124.497 42.4844 125.07 42.3867 125.891 42.3867ZM141.457 42.3867C142.069 42.3867 142.538 42.4323 142.863 42.5234C143.202 42.6016 143.436 42.7253 143.566 42.8945C143.697 43.0638 143.762 43.3047 143.762 43.6172V49.125H151.008C151.464 49.125 151.783 49.2747 151.965 49.5742C152.147 49.8737 152.238 50.4271 152.238 51.2344C152.238 52.0417 152.147 52.5951 151.965 52.8945C151.783 53.181 151.464 53.3242 151.008 53.3242H143.762V58.7539C143.762 60.9154 144.602 61.9961 146.281 61.9961C146.88 61.9961 147.577 61.8659 148.371 61.6055C149.178 61.332 150.116 60.9544 151.184 60.4727C151.47 60.3555 151.698 60.2969 151.867 60.2969C152.141 60.2969 152.395 60.4141 152.629 60.6484C152.863 60.8698 153.085 61.2409 153.293 61.7617C153.527 62.3477 153.645 62.8229 153.645 63.1875C153.645 63.474 153.573 63.7148 153.43 63.9102C153.299 64.0924 153.098 64.2552 152.824 64.3984C150.142 65.7526 147.818 66.4297 145.852 66.4297C143.586 66.4297 141.854 65.7982 140.656 64.5352C139.471 63.2721 138.879 61.4297 138.879 59.0078V53.3242H135.109C134.654 53.3242 134.335 53.181 134.152 52.8945C133.97 52.5951 133.879 52.0417 133.879 51.2344C133.879 50.4271 133.97 49.8737 134.152 49.5742C134.335 49.2747 134.654 49.125 135.109 49.125H138.879V43.6172C138.879 43.1745 139.074 42.862 139.465 42.6797C139.868 42.4844 140.533 42.3867 141.457 42.3867ZM174.895 47.9531C175.337 47.9531 175.65 48.0508 175.832 48.2461C176.027 48.4284 176.125 48.7409 176.125 49.1836V61.9961H177.629C177.941 61.9961 178.182 62.0482 178.352 62.1523C178.521 62.2565 178.645 62.4518 178.723 62.7383C178.814 63.0247 178.859 63.4414 178.859 63.9883C178.859 64.5352 178.814 64.9518 178.723 65.2383C178.645 65.5247 178.521 65.7266 178.352 65.8438C178.182 65.9479 177.941 66 177.629 66H173.254C172.811 66 172.492 65.9089 172.297 65.7266C172.115 65.5312 172.023 65.2122 172.023 64.7695V61.9375C170.305 64.9323 168.156 66.4297 165.578 66.4297C164.393 66.4297 163.352 66.1693 162.453 65.6484C161.568 65.1276 160.884 64.3919 160.402 63.4414C159.921 62.4779 159.68 61.3516 159.68 60.0625V51.957H158.176C157.863 51.957 157.622 51.9049 157.453 51.8008C157.284 51.6836 157.154 51.4818 157.062 51.1953C156.984 50.9089 156.945 50.4922 156.945 49.9453C156.945 49.3984 156.984 48.9818 157.062 48.6953C157.154 48.4089 157.284 48.2135 157.453 48.1094C157.622 48.0052 157.863 47.9531 158.176 47.9531H163.332C163.775 47.9531 164.087 48.0508 164.27 48.2461C164.465 48.4284 164.562 48.7409 164.562 49.1836V58.9102C164.562 59.9258 164.738 60.694 165.09 61.2148C165.441 61.7357 166.027 61.9961 166.848 61.9961C167.603 61.9961 168.319 61.6836 168.996 61.0586C169.673 60.4206 170.214 59.5742 170.617 58.5195C171.034 57.4648 171.242 56.3385 171.242 55.1406V51.957H169.152C168.84 51.957 168.599 51.9049 168.43 51.8008C168.26 51.6836 168.13 51.4818 168.039 51.1953C167.961 50.9089 167.922 50.4922 167.922 49.9453C167.922 49.3984 167.961 48.9818 168.039 48.6953C168.13 48.4089 168.26 48.2135 168.43 48.1094C168.599 48.0052 168.84 47.9531 169.152 47.9531H174.895ZM199.055 40.375C199.497 40.375 199.81 40.4727 199.992 40.668C200.188 40.8503 200.285 41.1628 200.285 41.6055V61.9961H201.984C202.297 61.9961 202.538 62.0482 202.707 62.1523C202.876 62.2565 203 62.4518 203.078 62.7383C203.169 63.0247 203.215 63.4414 203.215 63.9883C203.215 64.5352 203.169 64.9518 203.078 65.2383C203 65.5247 202.876 65.7266 202.707 65.8438C202.538 65.9479 202.297 66 201.984 66H197.414C196.971 66 196.652 65.9089 196.457 65.7266C196.275 65.5312 196.184 65.2122 196.184 64.7695V63.1289C195.507 64.1706 194.66 64.9844 193.645 65.5703C192.629 66.1432 191.503 66.4297 190.266 66.4297C188.56 66.4297 187.069 66.013 185.793 65.1797C184.517 64.3464 183.54 63.2135 182.863 61.7812C182.186 60.349 181.848 58.7474 181.848 56.9766C181.848 55.2057 182.186 53.6042 182.863 52.1719C183.54 50.7396 184.517 49.6068 185.793 48.7734C187.069 47.9401 188.56 47.5234 190.266 47.5234C191.281 47.5234 192.225 47.7253 193.098 48.1289C193.97 48.5195 194.738 49.0859 195.402 49.8281V44.3789H192.531C192.219 44.3789 191.978 44.3268 191.809 44.2227C191.639 44.1185 191.509 43.9232 191.418 43.6367C191.34 43.3503 191.301 42.9336 191.301 42.3867C191.301 41.8398 191.34 41.4232 191.418 41.1367C191.509 40.8503 191.639 40.6549 191.809 40.5508C191.978 40.4336 192.219 40.375 192.531 40.375H199.055ZM191.047 51.957C190.24 51.957 189.536 52.1654 188.938 52.582C188.339 52.9857 187.876 53.5651 187.551 54.3203C187.238 55.0755 187.082 55.9609 187.082 56.9766C187.082 57.9922 187.238 58.8776 187.551 59.6328C187.876 60.388 188.339 60.974 188.938 61.3906C189.536 61.7943 190.24 61.9961 191.047 61.9961C191.88 61.9961 192.635 61.8008 193.312 61.4102C193.99 61.0195 194.53 60.4466 194.934 59.6914C195.337 58.9232 195.539 58.0182 195.539 56.9766C195.539 55.9349 195.337 55.0365 194.934 54.2812C194.53 53.513 193.99 52.9336 193.312 52.543C192.635 52.1523 191.88 51.957 191.047 51.957ZM225.91 47.9531C226.223 47.9531 226.464 48.0117 226.633 48.1289C226.802 48.2331 226.926 48.4284 227.004 48.7148C227.095 49.0013 227.141 49.418 227.141 49.9648C227.141 50.5117 227.095 50.9284 227.004 51.2148C226.926 51.5013 226.802 51.6966 226.633 51.8008C226.464 51.9049 226.223 51.957 225.91 51.957H224.66L217.18 67.1133C216.268 68.9492 215.396 70.3424 214.562 71.293C213.742 72.2565 212.798 72.9336 211.73 73.3242C210.676 73.7279 209.309 73.9557 207.629 74.0078C207.16 74.0208 206.802 73.8451 206.555 73.4805C206.32 73.1159 206.203 72.4518 206.203 71.4883C206.203 70.8242 206.288 70.349 206.457 70.0625C206.639 69.776 206.893 69.6198 207.219 69.5938C208.247 69.5286 209.081 69.3333 209.719 69.0078C210.37 68.6823 210.956 68.1615 211.477 67.4453C212.01 66.7422 212.648 65.6745 213.391 64.2422L207.414 51.957H205.949C205.637 51.957 205.396 51.9049 205.227 51.8008C205.057 51.6966 204.927 51.5013 204.836 51.2148C204.758 50.9284 204.719 50.5117 204.719 49.9648C204.719 49.418 204.758 49.0013 204.836 48.7148C204.927 48.4284 205.057 48.2331 205.227 48.1289C205.396 48.0117 205.637 47.9531 205.949 47.9531H213.84C214.152 47.9531 214.393 48.0117 214.562 48.1289C214.732 48.2331 214.855 48.4284 214.934 48.7148C215.025 49.0013 215.07 49.418 215.07 49.9648C215.07 50.5117 215.025 50.9284 214.934 51.2148C214.855 51.5013 214.732 51.6966 214.562 51.8008C214.393 51.9049 214.152 51.957 213.84 51.957H212.668L216.066 59.3789L219.465 51.957H218.41C218.098 51.957 217.857 51.9049 217.688 51.8008C217.518 51.6966 217.388 51.5013 217.297 51.2148C217.219 50.9284 217.18 50.5117 217.18 49.9648C217.18 49.418 217.219 49.0013 217.297 48.7148C217.388 48.4284 217.518 48.2331 217.688 48.1289C217.857 48.0117 218.098 47.9531 218.41 47.9531H225.91ZM250.09 42.8164C250.402 42.8164 250.643 42.875 250.812 42.9922C250.982 43.0964 251.105 43.2917 251.184 43.5781C251.275 43.8646 251.32 44.2812 251.32 44.8281C251.32 45.375 251.275 45.7917 251.184 46.0781C251.105 46.3646 250.982 46.5599 250.812 46.6641C250.643 46.7682 250.402 46.8203 250.09 46.8203H249.035L249.309 61.9961H250.48C250.793 61.9961 251.034 62.0547 251.203 62.1719C251.372 62.276 251.496 62.4714 251.574 62.7578C251.665 63.0443 251.711 63.4609 251.711 64.0078C251.711 64.5547 251.665 64.9714 251.574 65.2578C251.496 65.5443 251.372 65.7396 251.203 65.8438C251.034 65.9479 250.793 66 250.48 66H243.176C242.863 66 242.622 65.9479 242.453 65.8438C242.284 65.7396 242.154 65.5443 242.062 65.2578C241.984 64.9714 241.945 64.5547 241.945 64.0078C241.945 63.4609 241.984 63.0443 242.062 62.7578C242.154 62.4714 242.284 62.276 242.453 62.1719C242.622 62.0547 242.863 61.9961 243.176 61.9961H244.973L244.855 50.4336L241.906 58.4023C241.737 58.8581 241.503 59.1836 241.203 59.3789C240.904 59.5612 240.48 59.6523 239.934 59.6523C239.374 59.6523 238.944 59.5612 238.645 59.3789C238.345 59.1836 238.104 58.8581 237.922 58.4023L234.953 50.4922L234.836 61.9961H236.652C236.965 61.9961 237.206 62.0547 237.375 62.1719C237.544 62.276 237.668 62.4714 237.746 62.7578C237.837 63.0443 237.883 63.4609 237.883 64.0078C237.883 64.5547 237.837 64.9714 237.746 65.2578C237.668 65.5443 237.544 65.7396 237.375 65.8438C237.206 65.9479 236.965 66 236.652 66H229.348C229.035 66 228.794 65.9479 228.625 65.8438C228.456 65.7396 228.326 65.5443 228.234 65.2578C228.156 64.9714 228.117 64.5547 228.117 64.0078C228.117 63.4609 228.156 63.0443 228.234 62.7578C228.326 62.4714 228.456 62.276 228.625 62.1719C228.794 62.0547 229.035 61.9961 229.348 61.9961H230.5L230.793 46.8203H229.738C229.426 46.8203 229.185 46.7682 229.016 46.6641C228.846 46.5599 228.716 46.3646 228.625 46.0781C228.547 45.7917 228.508 45.375 228.508 44.8281C228.508 44.2812 228.547 43.8646 228.625 43.5781C228.716 43.2917 228.846 43.0964 229.016 42.9922C229.185 42.875 229.426 42.8164 229.738 42.8164H235.285C235.559 42.8164 235.78 42.862 235.949 42.9531C236.132 43.0443 236.262 43.2005 236.34 43.4219L239.914 53.0117L243.469 43.4219C243.547 43.2005 243.671 43.0443 243.84 42.9531C244.022 42.862 244.25 42.8164 244.523 42.8164H250.09ZM263.684 47.5234C266.548 47.5234 268.618 48.1419 269.895 49.3789C271.171 50.6159 271.809 52.3867 271.809 54.6914V60.3359C271.809 60.8568 271.919 61.2669 272.141 61.5664C272.362 61.8529 272.681 61.9961 273.098 61.9961H273.703C274.016 61.9961 274.257 62.0547 274.426 62.1719C274.595 62.276 274.719 62.4714 274.797 62.7578C274.888 63.0443 274.934 63.4609 274.934 64.0078C274.934 64.5547 274.888 64.9714 274.797 65.2578C274.719 65.5443 274.595 65.7396 274.426 65.8438C274.257 65.9479 274.016 66 273.703 66H271.516C270.708 66 269.992 65.8372 269.367 65.5117C268.755 65.1732 268.286 64.6458 267.961 63.9297C266.932 64.724 265.845 65.3424 264.699 65.7852C263.553 66.2148 262.375 66.4297 261.164 66.4297C259.693 66.4297 258.423 66.1823 257.355 65.6875C256.288 65.1797 255.467 64.4635 254.895 63.5391C254.335 62.6016 254.055 61.5013 254.055 60.2383C254.055 58.4154 254.699 57.0026 255.988 56C257.277 54.9974 259.081 54.4961 261.398 54.4961C263.13 54.4961 264.973 54.6914 266.926 55.082V54.5156C266.926 53.6432 266.652 52.9987 266.105 52.582C265.559 52.1654 264.595 51.957 263.215 51.957C262.447 51.957 261.587 52.0547 260.637 52.25C259.699 52.4323 258.768 52.6797 257.844 52.9922C257.622 53.0573 257.434 53.0898 257.277 53.0898C256.952 53.0898 256.659 52.9727 256.398 52.7383C256.151 52.4909 255.923 52.0807 255.715 51.5078C255.52 50.9349 255.422 50.4661 255.422 50.1016C255.422 49.4375 255.721 48.9948 256.32 48.7734C257.479 48.3568 258.71 48.0443 260.012 47.8359C261.314 47.6276 262.538 47.5234 263.684 47.5234ZM261.887 58.5195C260.975 58.5195 260.279 58.6823 259.797 59.0078C259.328 59.3333 259.094 59.8086 259.094 60.4336C259.094 61.0456 259.322 61.5143 259.777 61.8398C260.246 62.1523 260.917 62.3086 261.789 62.3086C262.688 62.3086 263.573 62.1328 264.445 61.7812C265.331 61.4167 266.158 60.9219 266.926 60.2969V59.0469C265.207 58.6953 263.527 58.5195 261.887 58.5195ZM289.562 47.5234C291.268 47.5234 292.759 47.9401 294.035 48.7734C295.311 49.6068 296.288 50.7396 296.965 52.1719C297.642 53.6042 297.98 55.2057 297.98 56.9766C297.98 58.7474 297.642 60.349 296.965 61.7812C296.288 63.2135 295.311 64.3464 294.035 65.1797C292.759 66.013 291.268 66.4297 289.562 66.4297C288.547 66.4297 287.603 66.2344 286.73 65.8438C285.858 65.4401 285.09 64.8672 284.426 64.125V69.5742H287.688C288 69.5742 288.241 69.6263 288.41 69.7305C288.579 69.8346 288.703 70.0299 288.781 70.3164C288.872 70.6029 288.918 71.0195 288.918 71.5664C288.918 72.1133 288.872 72.5299 288.781 72.8164C288.703 73.1029 288.579 73.2982 288.41 73.4023C288.241 73.5195 288 73.5781 287.688 73.5781H277.844C277.531 73.5781 277.29 73.526 277.121 73.4219C276.952 73.3177 276.822 73.1224 276.73 72.8359C276.652 72.5495 276.613 72.1328 276.613 71.5859C276.613 71.0391 276.652 70.6224 276.73 70.3359C276.822 70.0495 276.952 69.8477 277.121 69.7305C277.29 69.6263 277.531 69.5742 277.844 69.5742H279.543V51.957H277.844C277.531 51.957 277.29 51.9049 277.121 51.8008C276.952 51.6966 276.822 51.5013 276.73 51.2148C276.652 50.9284 276.613 50.5117 276.613 49.9648C276.613 49.418 276.652 49.0013 276.73 48.7148C276.822 48.4284 276.952 48.2331 277.121 48.1289C277.29 48.0117 277.531 47.9531 277.844 47.9531H282.414C282.857 47.9531 283.169 48.0508 283.352 48.2461C283.547 48.4284 283.645 48.7409 283.645 49.1836V50.8242C284.322 49.7826 285.168 48.9753 286.184 48.4023C287.199 47.8164 288.326 47.5234 289.562 47.5234ZM288.781 51.957C287.948 51.957 287.193 52.1523 286.516 52.543C285.839 52.9336 285.298 53.513 284.895 54.2812C284.491 55.0365 284.289 55.9349 284.289 56.9766C284.289 58.0182 284.491 58.9232 284.895 59.6914C285.298 60.4466 285.839 61.0195 286.516 61.4102C287.193 61.8008 287.948 61.9961 288.781 61.9961C289.589 61.9961 290.292 61.7943 290.891 61.3906C291.49 60.974 291.945 60.388 292.258 59.6328C292.583 58.8776 292.746 57.9922 292.746 56.9766C292.746 55.9609 292.583 55.0755 292.258 54.3203C291.945 53.5651 291.49 52.9857 290.891 52.582C290.292 52.1654 289.589 51.957 288.781 51.957Z" fill="#38004D"/>
<path d="M46.8573 65.8323C46.6469 65.8333 46.4448 65.7937 46.25 65.7146C46.0552 65.6354 45.8833 65.5219 45.7344 65.3739L40.9906 60.6302C40.9167 60.5562 40.85 60.476 40.7917 60.3896C40.7344 60.3031 40.6844 60.2114 40.6448 60.1156C40.6042 60.0187 40.574 59.9198 40.5531 59.8166C40.5333 59.7146 40.5229 59.6114 40.5229 59.5073C40.5229 59.4031 40.5333 59.2989 40.5531 59.1969C40.574 59.0948 40.6042 58.9958 40.6448 58.8989C40.6844 58.8031 40.7344 58.7114 40.7917 58.625C40.85 58.5375 40.9167 58.4583 40.9906 58.3844L45.7344 53.6406C45.8083 53.5667 45.8885 53.501 45.975 53.4427C46.0615 53.3854 46.1531 53.3364 46.25 53.2969C46.3458 53.2562 46.4448 53.226 46.5469 53.2062C46.65 53.1854 46.7531 53.176 46.8573 53.176C46.9615 53.176 47.0646 53.1854 47.1667 53.2062C47.2688 53.226 47.3688 53.2562 47.4646 53.2969C47.5615 53.3364 47.6521 53.3854 47.7396 53.4427C47.826 53.501 47.9063 53.5667 47.9802 53.6406C48.0531 53.7146 48.1198 53.7948 48.1771 53.8812C48.2354 53.9677 48.2844 54.0594 48.324 54.1562C48.3635 54.2521 48.3938 54.351 48.4146 54.4531C48.4344 54.5562 48.4448 54.6594 48.4448 54.7635C48.4448 54.8677 48.4344 54.9708 48.4146 55.0729C48.3938 55.175 48.3635 55.275 48.324 55.3708C48.2844 55.4677 48.2354 55.5583 48.1771 55.6458C48.1198 55.7323 48.0531 55.8125 47.9802 55.8864L44.3427 59.5073L47.9802 63.1281C48.0917 63.2385 48.1844 63.3635 48.2583 63.501C48.3333 63.6396 48.3854 63.7854 48.4167 63.9396C48.4479 64.0937 48.4552 64.2489 48.4396 64.4052C48.425 64.5614 48.3865 64.7125 48.3271 64.8573C48.2667 65.0021 48.1865 65.1354 48.0865 65.2562C47.9865 65.3781 47.8708 65.4812 47.7406 65.5687C47.6094 65.6552 47.4688 65.7208 47.3188 65.7656C47.1677 65.8114 47.0146 65.8333 46.8573 65.8323Z" fill="#9F85EC"/>
<path d="M62.6698 65.8323C62.5125 65.8333 62.3583 65.8114 62.2083 65.7656C62.0583 65.7208 61.9167 65.6552 61.7865 65.5687C61.6552 65.4812 61.5396 65.3781 61.4406 65.2562C61.3406 65.1354 61.2604 65.0021 61.2 64.8573C61.1396 64.7125 61.1021 64.5614 61.0865 64.4052C61.0719 64.2489 61.0792 64.0937 61.1104 63.9396C61.1406 63.7854 61.1937 63.6396 61.2677 63.501C61.3427 63.3635 61.4354 63.2385 61.5469 63.1281L65.1833 59.5073L61.5469 55.8864C61.4729 55.8125 61.4073 55.7323 61.349 55.6458C61.2917 55.5583 61.2427 55.4677 61.2031 55.3708C61.1625 55.275 61.1323 55.175 61.1125 55.0729C61.0917 54.9708 61.0823 54.8677 61.0823 54.7635C61.0823 54.6594 61.0917 54.5562 61.1125 54.4531C61.1323 54.351 61.1625 54.2521 61.2031 54.1562C61.2427 54.0594 61.2917 53.9677 61.349 53.8812C61.4073 53.7948 61.4729 53.7146 61.5469 53.6406C61.6208 53.5667 61.701 53.501 61.7875 53.4427C61.874 53.3854 61.9656 53.3364 62.0625 53.2969C62.1583 53.2562 62.2573 53.226 62.3594 53.2062C62.4625 53.1854 62.5656 53.176 62.6698 53.176C62.774 53.176 62.8771 53.1854 62.9792 53.2062C63.0812 53.226 63.1812 53.2562 63.2771 53.2969C63.374 53.3364 63.4646 53.3854 63.5521 53.4427C63.6385 53.501 63.7187 53.5667 63.7927 53.6406L68.5365 58.3844C68.6104 58.4583 68.676 58.5375 68.7344 58.625C68.7927 58.7114 68.8417 58.8031 68.8823 58.8989C68.9219 58.9958 68.9521 59.0948 68.9729 59.1969C68.9937 59.2989 69.0042 59.4031 69.0042 59.5073C69.0042 59.6114 68.9937 59.7146 68.9729 59.8166C68.9521 59.9198 68.9219 60.0187 68.8823 60.1156C68.8417 60.2114 68.7927 60.3031 68.7344 60.3896C68.676 60.476 68.6104 60.5562 68.5365 60.6302L63.7927 65.3739C63.6427 65.5219 63.4708 65.6354 63.2771 65.7146C63.0823 65.7937 62.8802 65.8333 62.6698 65.8323Z" fill="#9F85EC"/>
<path d="M53.1823 68.9947C53.0635 68.9968 52.9458 68.9864 52.8302 68.9624C52.7135 68.9385 52.6021 68.902 52.4937 68.852C52.3864 68.803 52.2854 68.7426 52.1906 68.6708C52.0969 68.5989 52.0114 68.5166 51.9354 68.426C51.8594 68.3343 51.7948 68.2364 51.7406 68.1312C51.6875 68.0249 51.6458 67.9145 51.6167 67.7999C51.5875 67.6843 51.5719 67.5676 51.5687 67.4489C51.5667 67.3301 51.5771 67.2135 51.601 67.0968L54.7635 51.2843C54.7844 51.1812 54.8146 51.0801 54.8552 50.9822C54.8958 50.8843 54.9458 50.7916 55.0052 50.7041C55.0635 50.6166 55.1312 50.5353 55.2062 50.4603C55.2812 50.3853 55.3625 50.3187 55.45 50.2603C55.5385 50.202 55.6312 50.152 55.7292 50.1114C55.8271 50.0718 55.9281 50.0405 56.0312 50.0208C56.1354 49.9999 56.2406 49.9895 56.3458 49.9895C56.4521 49.9895 56.5573 49.9999 56.6604 50.0208C56.7646 50.0416 56.8646 50.0728 56.9625 50.1135C57.0604 50.1541 57.1531 50.203 57.2417 50.2624C57.3292 50.3208 57.4104 50.3885 57.4854 50.4624C57.5604 50.5374 57.6271 50.6187 57.6854 50.7072C57.7448 50.7947 57.7937 50.8885 57.8344 50.9864C57.875 51.0833 57.9052 51.1843 57.926 51.2885C57.9469 51.3916 57.9573 51.4968 57.9573 51.603C57.9573 51.7083 57.9469 51.8135 57.926 51.9166L54.7635 67.7291C54.726 67.9103 54.6594 68.0801 54.5635 68.2385C54.4667 68.3958 54.3458 68.5333 54.2021 68.6478C54.0573 68.7635 53.8979 68.851 53.7219 68.9114C53.5469 68.9708 53.3667 68.9978 53.1823 68.9947Z" fill="#9F85EC"/>
<mask id="mask0_2031_1279" style="mask-type:luminance" maskUnits="userSpaceOnUse" x="24" y="24" width="52" height="52">
<path d="M24.7198 24.7197H75.3198V75.3197H24.7198V24.7197Z" fill="white"/>
</mask>
<g mask="url(#mask0_2031_1279)">
<path d="M37.3698 46.8572H73.7385C73.8417 46.8572 73.9448 46.8468 74.0469 46.827C74.149 46.8062 74.2479 46.776 74.3438 46.7364C74.4396 46.6968 74.5302 46.6479 74.6167 46.5906C74.7031 46.5333 74.7833 46.4676 74.8562 46.3937C74.9302 46.3208 74.9958 46.2406 75.0531 46.1541C75.1104 46.0676 75.1594 45.977 75.199 45.8812C75.2385 45.7854 75.2687 45.6864 75.2896 45.5843C75.3094 45.4822 75.3198 45.3791 75.3198 45.276V38.951C75.3198 38.7958 75.3125 38.6406 75.2969 38.4854C75.2812 38.3312 75.2583 38.1781 75.2281 38.0249C75.1979 37.8729 75.1604 37.7229 75.1156 37.5739C75.0698 37.4249 75.0177 37.2791 74.9583 37.1354C74.899 36.9916 74.8323 36.852 74.7594 36.7145C74.6865 36.5781 74.6062 36.4447 74.5198 36.3156C74.4333 36.1864 74.3417 36.0614 74.2427 35.9416C74.1437 35.8218 74.0396 35.7062 73.9302 35.5968C73.8208 35.4864 73.7052 35.3822 73.5854 35.2843C73.4656 35.1854 73.3406 35.0926 73.2115 35.0062C73.0823 34.9197 72.949 34.8406 72.8125 34.7676C72.675 34.6937 72.5344 34.6281 72.3917 34.5676C72.2479 34.5083 72.1021 34.4562 71.9531 34.4114C71.8042 34.3666 71.6542 34.3281 71.501 34.2979C71.349 34.2676 71.1958 34.2447 71.0406 34.2301C70.8865 34.2145 70.7312 34.2072 70.576 34.2072H65.8323V29.4635C65.8323 29.3083 65.825 29.1531 65.8094 28.9979C65.7937 28.8437 65.7708 28.6906 65.7406 28.5374C65.7104 28.3854 65.6729 28.2354 65.6281 28.0864C65.5823 27.9374 65.5302 27.7916 65.4708 27.6479C65.4115 27.5041 65.3448 27.3645 65.2719 27.227C65.199 27.0906 65.1187 26.9572 65.0323 26.8281C64.9458 26.6989 64.8542 26.5739 64.7552 26.4541C64.6562 26.3343 64.5521 26.2187 64.4427 26.1093C64.3333 25.9989 64.2177 25.8947 64.0979 25.7968C63.9781 25.6979 63.8531 25.6051 63.724 25.5187C63.5948 25.4322 63.4615 25.3531 63.325 25.2801C63.1875 25.2062 63.0469 25.1406 62.9042 25.0801C62.7604 25.0208 62.6146 24.9687 62.4656 24.9239C62.3167 24.8791 62.1667 24.8406 62.0135 24.8104C61.8615 24.7801 61.7083 24.7572 61.5531 24.7426C61.399 24.727 61.2437 24.7197 61.0885 24.7197H29.4635C29.3083 24.7197 29.1531 24.727 28.9979 24.7426C28.8437 24.7572 28.6906 24.7801 28.5375 24.8104C28.3854 24.8406 28.2354 24.8791 28.0865 24.9239C27.9375 24.9687 27.7917 25.0208 27.6479 25.0801C27.5042 25.1406 27.3646 25.2062 27.2271 25.2801C27.0906 25.3531 26.9573 25.4322 26.8281 25.5187C26.699 25.6051 26.574 25.6979 26.4542 25.7968C26.3344 25.8947 26.2187 25.9989 26.1094 26.1093C25.999 26.2187 25.8948 26.3343 25.7969 26.4541C25.6979 26.5739 25.6052 26.6989 25.5187 26.8281C25.4323 26.9572 25.3531 27.0906 25.2802 27.227C25.2062 27.3645 25.1406 27.5041 25.0802 27.6479C25.0208 27.7916 24.9687 27.9374 24.924 28.0864C24.8792 28.2354 24.8406 28.3854 24.8104 28.5374C24.7802 28.6906 24.7573 28.8437 24.7427 28.9979C24.7271 29.1531 24.7198 29.3083 24.7198 29.4635V61.0885C24.7198 61.2437 24.7271 61.3989 24.7427 61.5531C24.7573 61.7083 24.7802 61.8614 24.8104 62.0135C24.8406 62.1666 24.8792 62.3166 24.924 62.4656C24.9687 62.6145 25.0208 62.7604 25.0802 62.9041C25.1406 63.0468 25.2062 63.1874 25.2802 63.3249C25.3531 63.4614 25.4323 63.5947 25.5187 63.7239C25.6052 63.8531 25.6979 63.9781 25.7969 64.0979C25.8948 64.2176 25.999 64.3333 26.1094 64.4426C26.2187 64.552 26.3344 64.6562 26.4542 64.7551C26.574 64.8541 26.699 64.9458 26.8281 65.0322C26.9573 65.1187 27.0906 65.1989 27.2271 65.2718C27.3646 65.3447 27.5042 65.4114 27.6479 65.4708C27.7917 65.5301 27.9375 65.5822 28.0865 65.6281C28.2354 65.6729 28.3854 65.7104 28.5375 65.7406C28.6906 65.7708 28.8437 65.7937 28.9979 65.8093C29.1531 65.8249 29.3083 65.8322 29.4635 65.8322H34.2073V70.576C34.2073 70.7312 34.2146 70.8864 34.2302 71.0406C34.2448 71.1958 34.2677 71.3489 34.2979 71.501C34.3281 71.6541 34.3667 71.8041 34.4115 71.9531C34.4562 72.102 34.5083 72.2479 34.5677 72.3916C34.6281 72.5343 34.6937 72.6749 34.7677 72.8124C34.8406 72.9489 34.9198 73.0822 35.0062 73.2114C35.0927 73.3406 35.1854 73.4656 35.2844 73.5854C35.3823 73.7051 35.4865 73.8208 35.5969 73.9301C35.7062 74.0395 35.8219 74.1437 35.9417 74.2426C36.0615 74.3416 36.1865 74.4333 36.3156 74.5197C36.4448 74.6062 36.5781 74.6864 36.7146 74.7593C36.8521 74.8322 36.9917 74.8989 37.1354 74.9583C37.2792 75.0176 37.425 75.0697 37.574 75.1156C37.7229 75.1604 37.8729 75.1979 38.025 75.2281C38.1781 75.2583 38.3312 75.2812 38.4854 75.2968C38.6406 75.3124 38.7958 75.3197 38.951 75.3197H70.576C70.7312 75.3197 70.8865 75.3124 71.0406 75.2968C71.1958 75.2812 71.349 75.2583 71.501 75.2281C71.6542 75.1979 71.8042 75.1604 71.9531 75.1156C72.1021 75.0697 72.2479 75.0176 72.3917 74.9583C72.5344 74.8989 72.675 74.8322 72.8125 74.7593C72.949 74.6864 73.0823 74.6062 73.2115 74.5197C73.3406 74.4333 73.4656 74.3416 73.5854 74.2426C73.7052 74.1437 73.8208 74.0395 73.9302 73.9301C74.0396 73.8208 74.1437 73.7051 74.2427 73.5854C74.3417 73.4656 74.4333 73.3406 74.5198 73.2114C74.6062 73.0822 74.6865 72.9489 74.7594 72.8124C74.8323 72.6749 74.899 72.5343 74.9583 72.3916C75.0177 72.2479 75.0698 72.102 75.1156 71.9531C75.1604 71.8041 75.1979 71.6541 75.2281 71.501C75.2583 71.3489 75.2812 71.1958 75.2969 71.0406C75.3125 70.8864 75.3198 70.7312 75.3198 70.576V51.601C75.3198 51.4968 75.3094 51.3937 75.2896 51.2926C75.2687 51.1906 75.2385 51.0916 75.199 50.9958C75.1594 50.8999 75.1104 50.8083 75.0531 50.7218C74.9958 50.6364 74.9302 50.5562 74.8562 50.4822C74.7833 50.4093 74.7031 50.3437 74.6167 50.2864C74.5302 50.2281 74.4396 50.1801 74.3438 50.1395C74.2479 50.0999 74.149 50.0697 74.0469 50.0499C73.9448 50.0301 73.8417 50.0197 73.7385 50.0197C73.6344 50.0197 73.5312 50.0301 73.4302 50.0499C73.3281 50.0697 73.2292 50.0999 73.1333 50.1395C73.0375 50.1801 72.9458 50.2281 72.8594 50.2864C72.774 50.3437 72.6937 50.4093 72.6198 50.4822C72.5469 50.5562 72.4812 50.6364 72.424 50.7218C72.3656 50.8083 72.3177 50.8999 72.2771 50.9958C72.2375 51.0916 72.2073 51.1906 72.1875 51.2926C72.1677 51.3937 72.1573 51.4968 72.1573 51.601V70.576C72.1573 70.6791 72.1469 70.7822 72.1271 70.8843C72.1062 70.9864 72.076 71.0854 72.0365 71.1812C71.9969 71.277 71.9479 71.3676 71.8906 71.4541C71.8333 71.5406 71.7677 71.6208 71.6937 71.6937C71.6208 71.7676 71.5406 71.8333 71.4542 71.8906C71.3677 71.9479 71.2771 71.9968 71.1812 72.0364C71.0854 72.076 70.9865 72.1062 70.8844 72.127C70.7823 72.1468 70.6792 72.1572 70.576 72.1572H38.951C38.8469 72.1572 38.7437 72.1468 38.6427 72.127C38.5406 72.1062 38.4417 72.076 38.3458 72.0364C38.25 71.9968 38.1583 71.9479 38.0719 71.8906C37.9865 71.8333 37.9062 71.7676 37.8323 71.6937C37.7594 71.6208 37.6937 71.5406 37.6365 71.4541C37.5781 71.3676 37.5302 71.277 37.4896 71.1812C37.45 71.0854 37.4198 70.9864 37.4 70.8843C37.3802 70.7822 37.3698 70.6791 37.3698 70.576V46.8572ZM72.1573 38.951V43.6947H37.3698V38.951C37.3698 38.8468 37.3802 38.7437 37.4 38.6426C37.4198 38.5406 37.45 38.4416 37.4896 38.3458C37.5302 38.2499 37.5781 38.1583 37.6365 38.0718C37.6937 37.9864 37.7594 37.9062 37.8323 37.8322C37.9062 37.7593 37.9865 37.6937 38.0719 37.6364C38.1583 37.5781 38.25 37.5301 38.3458 37.4895C38.4417 37.4499 38.5406 37.4197 38.6427 37.3999C38.7437 37.3801 38.8469 37.3697 38.951 37.3697H70.576C70.6792 37.3697 70.7823 37.3801 70.8844 37.3999C70.9865 37.4197 71.0854 37.4499 71.1812 37.4895C71.2771 37.5301 71.3677 37.5781 71.4542 37.6364C71.5406 37.6937 71.6208 37.7593 71.6937 37.8322C71.7677 37.9062 71.8333 37.9864 71.8906 38.0718C71.9479 38.1583 71.9969 38.2499 72.0365 38.3458C72.076 38.4416 72.1062 38.5406 72.1271 38.6426C72.1469 38.7437 72.1573 38.8468 72.1573 38.951ZM29.4635 62.6697C29.3594 62.6697 29.2562 62.6593 29.1552 62.6395C29.0531 62.6187 28.9542 62.5885 28.8583 62.5489C28.7625 62.5093 28.6708 62.4604 28.5844 62.4031C28.499 62.3458 28.4187 62.2801 28.3448 62.2062C28.2719 62.1333 28.2062 62.0531 28.149 61.9666C28.0906 61.8801 28.0427 61.7895 28.0021 61.6937C27.9625 61.5979 27.9323 61.4989 27.9125 61.3968C27.8927 61.2947 27.8823 61.1916 27.8823 61.0885V29.4635C27.8823 29.3593 27.8927 29.2562 27.9125 29.1551C27.9323 29.0531 27.9625 28.9541 28.0021 28.8583C28.0427 28.7624 28.0906 28.6708 28.149 28.5843C28.2062 28.4989 28.2719 28.4187 28.3448 28.3447C28.4187 28.2718 28.499 28.2062 28.5844 28.1489C28.6708 28.0906 28.7625 28.0426 28.8583 28.002C28.9542 27.9624 29.0531 27.9322 29.1552 27.9124C29.2562 27.8926 29.3594 27.8822 29.4635 27.8822H61.0885C61.1917 27.8822 61.2948 27.8926 61.3969 27.9124C61.499 27.9322 61.5979 27.9624 61.6937 28.002C61.7896 28.0426 61.8802 28.0906 61.9667 28.1489C62.0531 28.2062 62.1333 28.2718 62.2062 28.3447C62.2802 28.4187 62.3458 28.4989 62.4031 28.5843C62.4604 28.6708 62.5094 28.7624 62.549 28.8583C62.5885 28.9541 62.6187 29.0531 62.6396 29.1551C62.6594 29.2562 62.6698 29.3593 62.6698 29.4635V34.2072H38.951C38.7958 34.2072 38.6406 34.2145 38.4854 34.2301C38.3312 34.2447 38.1781 34.2676 38.025 34.2979C37.8729 34.3281 37.7229 34.3666 37.574 34.4114C37.425 34.4562 37.2792 34.5083 37.1354 34.5676C36.9917 34.6281 36.8521 34.6937 36.7146 34.7676C36.5781 34.8406 36.4448 34.9197 36.3156 35.0062C36.1865 35.0926 36.0615 35.1854 35.9417 35.2843C35.8219 35.3822 35.7062 35.4864 35.5969 35.5968C35.4865 35.7062 35.3823 35.8218 35.2844 35.9416C35.1854 36.0614 35.0927 36.1864 35.0062 36.3156C34.9198 36.4447 34.8406 36.5781 34.7677 36.7145C34.6937 36.852 34.6281 36.9916 34.5677 37.1354C34.5083 37.2791 34.4562 37.4249 34.4115 37.5739C34.3667 37.7229 34.3281 37.8729 34.2979 38.0249C34.2677 38.1781 34.2448 38.3312 34.2302 38.4854C34.2146 38.6406 34.2073 38.7958 34.2073 38.951V62.6697H29.4635Z" fill="#38004D"/>
</g>
<mask id="mask1_2031_1279" style="mask-type:luminance" maskUnits="userSpaceOnUse" x="38" y="47" width="34" height="25">
<path d="M38.0323 47.6448H71.3875V71.5791H38.0323V47.6448Z" fill="white"/>
</mask>
<g mask="url(#mask1_2031_1279)">
<path d="M38.0323 47.6448H71.4104V71.5791H38.0323V47.6448Z" fill="#FBF2FF"/>
</g>
<path d="M52.6375 42.0187C52.5271 42.0187 52.4323 41.9802 52.3531 41.9021L51.1531 40.7021C51.1156 40.6646 51.0865 40.6219 51.0656 40.5719C51.0458 40.5229 51.0354 40.4719 51.0354 40.4187C51.0354 40.3656 51.0458 40.3135 51.0656 40.2646C51.0865 40.2156 51.1156 40.1719 51.1531 40.1344L52.3531 38.9344C52.3917 38.8969 52.4344 38.8677 52.4833 38.8479C52.5333 38.8271 52.5844 38.8167 52.6375 38.8167C52.6906 38.8167 52.7417 38.8271 52.7917 38.8479C52.8406 38.8677 52.8844 38.8969 52.9219 38.9344C52.9594 38.9719 52.9885 39.0156 53.0083 39.0646C53.0292 39.1135 53.0396 39.1656 53.0396 39.2187C53.0396 39.2719 53.0292 39.3229 53.0083 39.3719C52.9885 39.4219 52.9594 39.4646 52.9219 39.5021L52.001 40.4187L52.9219 41.3344C52.9792 41.3917 53.0156 41.4604 53.0323 41.5396C53.0479 41.6198 53.0406 41.6969 53.0094 41.7719C52.9781 41.8469 52.9292 41.9073 52.8615 41.9521C52.7937 41.9969 52.7187 42.0187 52.6375 42.0187Z" fill="#9F85EC"/>
<path d="M56.6375 42.0187C56.5562 42.0187 56.4823 41.9969 56.4146 41.9521C56.3469 41.9073 56.2969 41.8469 56.2656 41.7719C56.2344 41.6969 56.2271 41.6198 56.2427 41.5396C56.2594 41.4604 56.2958 41.3917 56.3531 41.3344L57.274 40.4187L56.3531 39.5021C56.3156 39.4646 56.2865 39.4219 56.2667 39.3719C56.2458 39.3229 56.2354 39.2719 56.2354 39.2187C56.2354 39.1656 56.2458 39.1135 56.2667 39.0646C56.2865 39.0156 56.3156 38.9719 56.3531 38.9344C56.3917 38.8969 56.4344 38.8677 56.4833 38.8479C56.5333 38.8271 56.5844 38.8167 56.6375 38.8167C56.6906 38.8167 56.7417 38.8271 56.7917 38.8479C56.8406 38.8677 56.8844 38.8969 56.9219 38.9344L58.1219 40.1344C58.1594 40.1719 58.1885 40.2156 58.2094 40.2646C58.2292 40.3135 58.2396 40.3656 58.2396 40.4187C58.2396 40.4719 58.2292 40.5229 58.2094 40.5719C58.1885 40.6219 58.1594 40.6646 58.1219 40.7021L56.9219 41.9021C56.8427 41.9802 56.7479 42.0187 56.6375 42.0187Z" fill="#9F85EC"/>
<mask id="mask2_2031_1279" style="mask-type:luminance" maskUnits="userSpaceOnUse" x="53" y="37" width="3" height="6">
<path d="M53.6 37.9209H55.4667V42.9334H53.6V37.9209Z" fill="white"/>
</mask>
<g mask="url(#mask2_2031_1279)">
<path d="M54.2375 42.8188C54.1771 42.8198 54.1188 42.8073 54.0635 42.7823C54.0083 42.7573 53.9615 42.7209 53.9219 42.675C53.8833 42.6282 53.8563 42.575 53.8417 42.5167C53.8271 42.4573 53.825 42.398 53.8375 42.3386L54.6375 38.3386C54.6479 38.2855 54.6688 38.2365 54.699 38.1917C54.7292 38.1469 54.7667 38.1094 54.8115 38.0792C54.8563 38.049 54.9052 38.0292 54.9583 38.0188C55.0115 38.0084 55.0646 38.0084 55.1177 38.0188C55.1708 38.0292 55.2198 38.05 55.2646 38.0803C55.3094 38.1105 55.3469 38.148 55.3771 38.1928C55.4073 38.2375 55.4271 38.2865 55.4375 38.3396C55.4479 38.3928 55.4479 38.4459 55.4375 38.499L54.6375 42.499C54.6188 42.5928 54.5708 42.6709 54.4958 42.7313C54.4198 42.7917 54.3344 42.8209 54.2375 42.8188Z" fill="#9F85EC"/>
</g>
<mask id="mask3_2031_1279" style="mask-type:luminance" maskUnits="userSpaceOnUse" x="50" y="37" width="9" height="7">
<path d="M50.8625 37.9209H58.4625V43.1209H50.8625V37.9209Z" fill="white"/>
</mask>
<g mask="url(#mask3_2031_1279)">
<path d="M50.2375 37.2189H59.4375C59.4906 37.2189 59.5417 37.2085 59.5906 37.1887C59.6396 37.1679 59.6833 37.1387 59.7208 37.1012C59.7583 37.0637 59.7865 37.021 59.8073 36.972C59.8271 36.9231 59.8375 36.872 59.8375 36.8189V35.2189C59.8375 35.1397 59.8302 35.0616 59.8146 34.9845C59.799 34.9074 59.776 34.8324 59.7458 34.7595C59.7156 34.6866 59.6792 34.6179 59.6354 34.5522C59.5917 34.4866 59.5417 34.4262 59.4865 34.3699C59.4302 34.3147 59.3698 34.2647 59.3042 34.221C59.2385 34.1772 59.1698 34.1397 59.0969 34.1095C59.024 34.0804 58.949 34.0574 58.8719 34.0418C58.7948 34.0262 58.7167 34.0189 58.6375 34.0189H57.4375V32.8189C57.4375 32.7397 57.4302 32.6616 57.4146 32.5845C57.399 32.5074 57.376 32.4324 57.3458 32.3595C57.3156 32.2866 57.2792 32.2179 57.2354 32.1522C57.1917 32.0866 57.1417 32.0262 57.0865 31.9699C57.0302 31.9147 56.9698 31.8647 56.9042 31.821C56.8385 31.7772 56.7698 31.7397 56.6969 31.7095C56.624 31.6804 56.549 31.6574 56.4719 31.6418C56.3948 31.6262 56.3167 31.6189 56.2375 31.6189H48.2375C48.1583 31.6189 48.0802 31.6262 48.0031 31.6418C47.926 31.6574 47.851 31.6804 47.7781 31.7095C47.7052 31.7397 47.6365 31.7772 47.5708 31.821C47.5052 31.8647 47.4448 31.9147 47.3885 31.9699C47.3333 32.0262 47.2833 32.0866 47.2396 32.1522C47.1958 32.2179 47.1594 32.2866 47.1292 32.3595C47.099 32.4324 47.076 32.5074 47.0604 32.5845C47.0448 32.6616 47.0375 32.7397 47.0375 32.8189V40.8189C47.0375 40.897 47.0448 40.9751 47.0604 41.0533C47.076 41.1304 47.099 41.2054 47.1292 41.2783C47.1594 41.3501 47.1958 41.4199 47.2396 41.4856C47.2833 41.5512 47.3333 41.6116 47.3885 41.6668C47.4448 41.7231 47.5052 41.7731 47.5708 41.8168C47.6365 41.8606 47.7052 41.897 47.7781 41.9272C47.851 41.9574 47.926 41.9804 48.0031 41.996C48.0802 42.0106 48.1583 42.0189 48.2375 42.0189H49.4375V43.2189C49.4375 43.297 49.4448 43.3751 49.4604 43.4533C49.476 43.5304 49.499 43.6054 49.5292 43.6783C49.5594 43.7501 49.5958 43.8199 49.6396 43.8856C49.6833 43.9512 49.7333 44.0116 49.7885 44.0668C49.8448 44.1231 49.9052 44.1731 49.9708 44.2168C50.0365 44.2606 50.1052 44.297 50.1781 44.3272C50.251 44.3574 50.326 44.3804 50.4031 44.396C50.4802 44.4106 50.5583 44.4189 50.6375 44.4189H58.6375C58.7167 44.4189 58.7948 44.4106 58.8719 44.396C58.949 44.3804 59.024 44.3574 59.0969 44.3272C59.1698 44.297 59.2385 44.2606 59.3042 44.2168C59.3698 44.1731 59.4302 44.1231 59.4865 44.0668C59.5417 44.0116 59.5917 43.9512 59.6354 43.8856C59.6792 43.8199 59.7156 43.7501 59.7458 43.6783C59.776 43.6054 59.799 43.5304 59.8146 43.4533C59.8302 43.3751 59.8375 43.297 59.8375 43.2189V38.4189C59.8375 38.3658 59.8271 38.3147 59.8073 38.2658C59.7865 38.2168 59.7583 38.1731 59.7208 38.1356C59.6833 38.0981 59.6396 38.0689 59.5906 38.0491C59.5417 38.0293 59.4906 38.0189 59.4375 38.0189C59.3844 38.0189 59.3333 38.0293 59.2844 38.0491C59.2354 38.0689 59.1927 38.0981 59.1552 38.1356C59.1177 38.1731 59.0885 38.2168 59.0677 38.2658C59.0479 38.3147 59.0375 38.3658 59.0375 38.4189V43.2189C59.0375 43.272 59.0271 43.3231 59.0073 43.372C58.9865 43.421 58.9583 43.4637 58.9208 43.5012C58.8833 43.5387 58.8396 43.5679 58.7906 43.5887C58.7417 43.6085 58.6906 43.6189 58.6375 43.6189H50.6375C50.5844 43.6189 50.5333 43.6085 50.4844 43.5887C50.4354 43.5679 50.3927 43.5387 50.3552 43.5012C50.3177 43.4637 50.2885 43.421 50.2677 43.372C50.2479 43.3231 50.2375 43.272 50.2375 43.2189V37.2189ZM59.0375 35.2189V36.4189H50.2375V35.2189C50.2375 35.1658 50.2479 35.1147 50.2677 35.0658C50.2885 35.0168 50.3177 34.9731 50.3552 34.9356C50.3927 34.8981 50.4354 34.8689 50.4844 34.8491C50.5333 34.8293 50.5844 34.8189 50.6375 34.8189H58.6375C58.6906 34.8189 58.7417 34.8293 58.7906 34.8491C58.8396 34.8689 58.8833 34.8981 58.9208 34.9356C58.9583 34.9731 58.9865 35.0168 59.0073 35.0658C59.0271 35.1147 59.0375 35.1658 59.0375 35.2189ZM48.2375 41.2189C48.1844 41.2189 48.1333 41.2085 48.0844 41.1887C48.0354 41.1679 47.9927 41.1387 47.9552 41.1012C47.9177 41.0637 47.8885 41.021 47.8677 40.972C47.8479 40.9231 47.8375 40.872 47.8375 40.8189V32.8189C47.8375 32.7658 47.8479 32.7147 47.8677 32.6658C47.8885 32.6168 47.9177 32.5731 47.9552 32.5356C47.9927 32.4981 48.0354 32.4689 48.0844 32.4491C48.1333 32.4293 48.1844 32.4189 48.2375 32.4189H56.2375C56.2906 32.4189 56.3417 32.4293 56.3906 32.4491C56.4396 32.4689 56.4833 32.4981 56.5208 32.5356C56.5583 32.5731 56.5865 32.6168 56.6073 32.6658C56.6271 32.7147 56.6375 32.7658 56.6375 32.8189V34.0189H50.6375C50.5583 34.0189 50.4802 34.0262 50.4031 34.0418C50.326 34.0574 50.251 34.0804 50.1781 34.1095C50.1052 34.1397 50.0365 34.1772 49.9708 34.221C49.9052 34.2647 49.8448 34.3147 49.7885 34.3699C49.7333 34.4262 49.6833 34.4866 49.6396 34.5522C49.5958 34.6179 49.5594 34.6866 49.5292 34.7595C49.499 34.8324 49.476 34.9074 49.4604 34.9845C49.4448 35.0616 49.4375 35.1397 49.4375 35.2189V41.2189H48.2375Z" fill="#38004D"/>
</g>
<mask id="mask4_2031_1279" style="mask-type:luminance" maskUnits="userSpaceOnUse" x="44" y="48" width="22" height="23">
<path d="M44.4187 48.2698H65.0187V70.1333H44.4187V48.2698Z" fill="white"/>
</mask>
<g mask="url(#mask4_2031_1279)">
<path d="M61.8312 60.6167C60.0896 60.6167 58.6781 61.8865 58.6781 63.9397C58.6781 66.4282 61.0021 69.2595 61.6594 70.0105C61.6812 70.0355 61.7073 70.0553 61.7365 70.0688C61.7667 70.0824 61.7979 70.0886 61.8312 70.0886C61.8635 70.0886 61.8958 70.0824 61.925 70.0688C61.9552 70.0553 61.9812 70.0355 62.0031 70.0105C62.6604 69.2595 64.9833 66.4282 64.9833 63.9397C64.9844 61.8865 63.5729 60.6167 61.8312 60.6167ZM61.8312 65.398C61.7354 65.398 61.6406 65.3886 61.5469 65.3699C61.4531 65.3511 61.3615 65.324 61.2729 65.2876C61.1844 65.2501 61.1 65.2053 61.0208 65.1522C60.9417 65.099 60.8677 65.0386 60.8 64.9709C60.7323 64.9032 60.6719 64.8292 60.6187 64.7501C60.5656 64.6699 60.5208 64.5865 60.4833 64.498C60.4469 64.4095 60.4198 64.3178 60.401 64.224C60.3823 64.1303 60.3729 64.0355 60.3729 63.9397C60.3729 63.8438 60.3823 63.749 60.401 63.6553C60.4198 63.5605 60.4469 63.4699 60.4844 63.3813C60.5208 63.2928 60.5656 63.2084 60.6187 63.1292C60.6719 63.049 60.7323 62.9761 60.8 62.9084C60.8677 62.8407 60.9417 62.7803 61.0208 62.7272C61.101 62.674 61.1844 62.6282 61.2729 62.5917C61.3615 62.5553 61.4531 62.5282 61.5469 62.5095C61.6406 62.4907 61.7354 62.4813 61.8312 62.4813C61.9271 62.4813 62.0219 62.4907 62.1156 62.5095C62.2104 62.5282 62.301 62.5553 62.3896 62.5917C62.4781 62.6292 62.5625 62.674 62.6417 62.7272C62.7219 62.7803 62.7948 62.8407 62.8625 62.9084C62.9302 62.9761 62.9906 63.0501 63.0437 63.1292C63.0979 63.2095 63.1427 63.2928 63.1792 63.3813C63.2156 63.4699 63.2437 63.5615 63.2625 63.6553C63.2802 63.749 63.2896 63.8438 63.2896 63.9397C63.2896 64.0355 63.2802 64.1303 63.2625 64.224C63.2437 64.3178 63.2156 64.4095 63.1792 64.498C63.1427 64.5865 63.0969 64.6709 63.0437 64.7501C62.9906 64.8292 62.9302 64.9032 62.8625 64.9709C62.7948 65.0386 62.7208 65.099 62.6417 65.1522C62.5615 65.2053 62.4781 65.2511 62.3896 65.2876C62.301 65.324 62.2094 65.3511 62.1156 65.3699C62.0219 65.3886 61.9271 65.398 61.8312 65.398ZM46.6635 48.2917C45.4344 48.2917 44.4385 49.1876 44.4385 50.6365C44.4385 52.3928 46.0781 54.3907 46.5417 54.922C46.574 54.9584 46.6146 54.9761 46.6635 54.9761C46.7115 54.9761 46.7521 54.9584 46.7844 54.922C47.249 54.3907 48.8885 52.3928 48.8885 50.6365C48.8885 49.1876 47.8917 48.2917 46.6635 48.2917ZM46.6635 51.6657C46.526 51.6657 46.3948 51.6397 46.2687 51.5876C46.1427 51.5355 46.0312 51.4605 45.9354 51.3647C45.8385 51.2678 45.7646 51.1563 45.7125 51.0303C45.6594 50.9042 45.6333 50.773 45.6333 50.6365C45.6333 50.5001 45.6604 50.3688 45.7125 50.2428C45.7646 50.1167 45.8385 50.0053 45.9354 49.9084C46.0323 49.8115 46.1437 49.7376 46.2698 49.6855C46.3958 49.6334 46.5271 49.6074 46.6635 49.6074C46.8 49.6074 46.9312 49.6334 47.0573 49.6855C47.1833 49.7376 47.2948 49.8115 47.3917 49.9084C47.4875 50.0053 47.5625 50.1167 47.6146 50.2428C47.6667 50.3688 47.6927 50.5001 47.6927 50.6365C47.6927 50.773 47.6667 50.9042 47.6146 51.0303C47.5625 51.1563 47.4875 51.2678 47.3906 51.3647C47.2948 51.4615 47.1833 51.5355 47.0573 51.5876C46.9312 51.6397 46.8 51.6657 46.6635 51.6657Z" fill="#9F85EC"/>
</g>
<mask id="mask5_2031_1279" style="mask-type:luminance" maskUnits="userSpaceOnUse" x="45" y="54" width="19" height="17">
<path d="M45.0667 54.3999H64V70.8697H45.0667V54.3999Z" fill="white"/>
</mask>
<g mask="url(#mask5_2031_1279)">
<path d="M63.9219 70.1853C63.9219 70.5989 62.9865 70.9332 61.8313 70.9332C60.676 70.9332 59.7406 70.5989 59.7406 70.1853C59.7406 69.8499 60.3583 69.5666 61.2094 69.4718C61.3938 69.702 61.55 69.8853 61.6594 70.0103C61.6813 70.0353 61.7073 70.0551 61.7375 70.0687C61.7667 70.0822 61.7979 70.0884 61.8313 70.0884C61.8635 70.0884 61.8958 70.0822 61.925 70.0687C61.9552 70.0551 61.9813 70.0353 62.0031 70.0103C62.1125 69.8853 62.2688 69.702 62.4531 69.4718C63.3042 69.5666 63.9219 69.8499 63.9219 70.1853ZM47.1021 54.5405C46.9719 54.703 46.8615 54.8322 46.7844 54.9218C46.7521 54.9582 46.7115 54.9759 46.6635 54.9759C46.6146 54.9759 46.574 54.9582 46.5417 54.9218C46.4646 54.8322 46.3542 54.703 46.225 54.5405C45.624 54.6072 45.1875 54.8082 45.1875 55.0447C45.1875 55.3364 45.8479 55.5728 46.6635 55.5728C47.4781 55.5728 48.1385 55.3364 48.1385 55.0447C48.1385 54.8082 47.7031 54.6072 47.1021 54.5405Z" fill="#38004D"/>
</g>
<path d="M47.0698 62.978C46.8135 63.1624 46.5771 63.3707 46.3615 63.6009C46.3344 63.6301 46.3031 63.653 46.2667 63.6697C46.2302 63.6863 46.1917 63.6957 46.1521 63.6978C46.1125 63.6988 46.0729 63.6926 46.0354 63.6791C45.9979 63.6655 45.9646 63.6447 45.9354 63.6176C45.9063 63.5905 45.8833 63.5593 45.8656 63.5228C45.849 63.4863 45.8406 63.4478 45.8385 63.4082C45.8365 63.3686 45.8427 63.3291 45.8573 63.2916C45.8708 63.2541 45.8906 63.2207 45.9177 63.1916C46.1604 62.9322 46.426 62.6978 46.7135 62.4905C46.7458 62.4676 46.7813 62.4509 46.8198 62.4416C46.8594 62.4332 46.8979 62.4311 46.9375 62.4374C46.976 62.4447 47.0135 62.4582 47.0469 62.4791C47.0813 62.4988 47.1094 62.5259 47.1333 62.5582C47.1563 62.5905 47.1729 62.6249 47.1823 62.6645C47.1917 62.703 47.1938 62.7416 47.1875 62.7811C47.1823 62.8207 47.1688 62.8572 47.1479 62.8916C47.1281 62.9249 47.101 62.9541 47.0698 62.978ZM45.7729 66.9541C45.7542 66.9197 45.7292 66.8895 45.6979 66.8645C45.6677 66.8384 45.6333 66.8207 45.5948 66.8093C45.5573 66.7968 45.5188 66.7936 45.4792 66.7968C45.4396 66.8009 45.4021 66.8113 45.3667 66.8301C45.3313 66.8488 45.301 66.8728 45.276 66.903C45.25 66.9343 45.2313 66.9676 45.2198 67.0061C45.2073 67.0436 45.2031 67.0822 45.2063 67.1218C45.2094 67.1613 45.2198 67.1988 45.2375 67.2343C45.4115 67.5603 45.6313 67.8509 45.8969 68.1072C45.925 68.1353 45.9583 68.1561 45.9948 68.1718C46.0323 68.1863 46.0708 68.1936 46.1115 68.1926C46.151 68.1926 46.1896 68.1843 46.226 68.1686C46.2625 68.153 46.2958 68.1311 46.3229 68.102C46.351 68.0738 46.3729 68.0405 46.3875 68.0041C46.4031 67.9666 46.4104 67.928 46.4094 67.8884C46.4094 67.8478 46.401 67.8093 46.3854 67.7728C46.3698 67.7363 46.3479 67.7041 46.3188 67.6759C46.099 67.4634 45.9167 67.2238 45.7729 66.9541ZM48.3646 68.878C48.0615 68.7645 47.7656 68.6343 47.4771 68.4863C47.4417 68.4676 47.4042 68.4572 47.3646 68.453C47.324 68.4499 47.2854 68.4541 47.2469 68.4666C47.2094 68.478 47.175 68.4978 47.1438 68.5228C47.1135 68.5488 47.0885 68.5801 47.0708 68.6155C47.0521 68.6509 47.0406 68.6884 47.0375 68.728C47.0344 68.7686 47.0385 68.8072 47.05 68.8457C47.0625 68.8832 47.0813 68.9176 47.1073 68.9488C47.1333 68.9791 47.1635 69.0041 47.199 69.0218C47.5083 69.1811 47.826 69.3218 48.1521 69.4426C48.1896 69.4572 48.2292 69.4645 48.2688 69.4634C48.3094 69.4624 48.3479 69.453 48.3844 69.4374C48.4208 69.4207 48.4531 69.3978 48.4813 69.3686C48.5083 69.3395 48.5292 69.3051 48.5438 69.2676C48.5583 69.2301 48.5646 69.1905 48.5625 69.1509C48.5615 69.1103 48.5521 69.0718 48.5354 69.0353C48.5188 68.9988 48.4958 68.9666 48.4656 68.9395C48.4365 68.9124 48.4021 68.8916 48.3646 68.878ZM45.4917 65.6541C45.501 65.3499 45.5542 65.053 45.651 64.7645C45.6646 64.727 45.6698 64.6874 45.6667 64.6478C45.6646 64.6082 45.6542 64.5697 45.6365 64.5343C45.6188 64.4978 45.5948 64.4666 45.5646 64.4405C45.5354 64.4145 45.501 64.3947 45.4635 64.3811C45.425 64.3686 45.3865 64.3634 45.3458 64.3655C45.3063 64.3686 45.2688 64.3791 45.2323 64.3968C45.1969 64.4145 45.1656 64.4374 45.1385 64.4676C45.1125 64.4978 45.0927 64.5322 45.0802 64.5697C44.9635 64.9145 44.9 65.2686 44.8885 65.6332C44.8865 65.6728 44.8927 65.7113 44.9073 65.7488C44.9208 65.7863 44.9417 65.8197 44.9688 65.8488C44.9969 65.8791 45.0281 65.902 45.0646 65.9176C45.101 65.9343 45.1396 65.9436 45.1792 65.9447C45.1833 65.9447 45.1865 65.9447 45.1896 65.9447C45.2292 65.9447 45.2667 65.9374 45.3031 65.9228C45.3396 65.9082 45.3719 65.8874 45.4 65.8603C45.4281 65.8332 45.45 65.802 45.4656 65.7666C45.4813 65.7301 45.4906 65.6926 45.4917 65.6541ZM49.4 61.4686C49.3854 61.4311 49.3646 61.3978 49.3375 61.3686C49.3094 61.3395 49.2771 61.3166 49.2406 61.3009C49.2042 61.2843 49.1656 61.2759 49.126 61.2749C49.0865 61.2738 49.0469 61.2801 49.0104 61.2947C48.6729 61.4249 48.3542 61.5613 48.0625 61.7009C48.026 61.7176 47.9938 61.7405 47.9667 61.7707C47.9406 61.8009 47.9198 61.8343 47.9063 61.8718C47.8927 61.9103 47.8875 61.9488 47.8896 61.9895C47.8917 62.0291 47.901 62.0676 47.9188 62.1041C47.9354 62.1395 47.9594 62.1718 47.9896 62.1978C48.0188 62.2249 48.0531 62.2447 48.0906 62.2582C48.1292 62.2718 48.1677 62.277 48.2083 62.2749C48.2479 62.2728 48.2865 62.2624 48.3229 62.2447C48.6 62.1124 48.9042 61.9822 49.2271 61.8582C49.2646 61.8436 49.2969 61.8228 49.326 61.7957C49.3552 61.7676 49.3781 61.7353 49.3948 61.6988C49.4104 61.6624 49.4188 61.6238 49.4198 61.5843C49.4208 61.5436 49.4146 61.5051 49.4 61.4676V61.4686ZM49.8427 55.2436C49.851 55.2436 49.8594 55.2436 49.8677 55.2426C49.8708 55.2426 50.2521 55.2113 50.8625 55.1843C50.9021 55.1822 50.9406 55.1728 50.976 55.1561C51.0125 55.1395 51.0448 55.1155 51.0719 55.0863C51.0979 55.0561 51.1188 55.0228 51.1323 54.9853C51.1458 54.9478 51.1521 54.9093 51.15 54.8686C51.1479 54.8291 51.1385 54.7905 51.1219 54.7551C51.1052 54.7186 51.0813 54.6863 51.0521 54.6593C51.0229 54.6332 50.9885 54.6124 50.951 54.5988C50.9135 54.5853 50.875 54.5791 50.8344 54.5811C50.2135 54.6093 49.8344 54.6395 49.8188 54.6405C49.7802 54.6436 49.7427 54.6541 49.7083 54.6718C49.6729 54.6884 49.6427 54.7124 49.6167 54.7416C49.5906 54.7707 49.5719 54.803 49.5583 54.8405C49.5448 54.877 49.5396 54.9145 49.5406 54.9541C49.5427 54.9926 49.551 55.0301 49.5677 55.0655C49.5833 55.1009 49.6052 55.1322 49.6333 55.1593C49.6615 55.1863 49.6938 55.2072 49.7302 55.2218C49.7656 55.2363 49.8031 55.2436 49.8427 55.2436ZM50.7427 69.5155C50.4063 69.453 50.0813 69.3822 49.775 69.3072C49.7365 69.2978 49.6969 69.2957 49.6573 69.302C49.6177 69.3072 49.5802 69.3207 49.5458 69.3416C49.5115 69.3624 49.4823 69.3884 49.4583 69.4207C49.4344 69.453 49.4177 69.4895 49.4083 69.528C49.399 69.5676 49.3969 69.6061 49.4031 69.6457C49.4094 69.6863 49.4229 69.7228 49.4438 69.7572C49.4646 69.7916 49.4917 69.8207 49.524 69.8436C49.5563 69.8676 49.5917 69.8843 49.6313 69.8936C49.9479 69.9718 50.2844 70.0436 50.6323 70.1093C50.6719 70.1166 50.7104 70.1166 50.75 70.1082C50.7896 70.0999 50.826 70.0843 50.8583 70.0613C50.8917 70.0395 50.9198 70.0113 50.9417 69.977C50.9635 69.9436 50.9781 69.9072 50.9854 69.8676C50.9927 69.828 50.9917 69.7895 50.9833 69.7499C50.975 69.7103 50.9604 69.6749 50.9375 69.6416C50.9146 69.6082 50.8865 69.5811 50.8531 69.5593C50.8188 69.5374 50.7823 69.5228 50.7427 69.5155ZM57.325 55.4572C57.6688 55.5166 57.9927 55.5843 58.2865 55.6603C58.326 55.6707 58.3656 55.6728 58.4052 55.6676C58.4448 55.6624 58.4823 55.6499 58.5177 55.6291C58.5521 55.6093 58.5823 55.5832 58.6063 55.5509C58.6302 55.5186 58.6479 55.4832 58.6573 55.4436C58.6677 55.4051 58.6698 55.3655 58.6635 55.3249C58.6583 55.2853 58.6448 55.2478 58.624 55.2134C58.6031 55.1791 58.5771 55.1499 58.5448 55.1259C58.5115 55.102 58.476 55.0853 58.4365 55.0759C58.1271 54.9957 57.7875 54.9238 57.4281 54.8624C57.3885 54.8551 57.349 54.8551 57.3094 54.8634C57.2698 54.8728 57.2344 54.8884 57.201 54.9113C57.1677 54.9343 57.1406 54.9624 57.1188 54.9968C57.0969 55.0311 57.0833 55.0676 57.076 55.1072C57.0688 55.1468 57.0698 55.1863 57.0792 55.2259C57.0885 55.2655 57.1042 55.302 57.1281 55.3343C57.151 55.3676 57.1802 55.3947 57.2146 55.4155C57.249 55.4363 57.2854 55.4509 57.325 55.4572ZM52.3615 55.1416C52.6771 55.1374 53.0125 55.1374 53.3604 55.1416H53.3646C53.4052 55.1416 53.4438 55.1343 53.4802 55.1197C53.5177 55.1041 53.55 55.0832 53.5792 55.0551C53.6073 55.027 53.6292 54.9936 53.6448 54.9572C53.6604 54.9207 53.6677 54.8822 53.6688 54.8416C53.6688 54.802 53.6615 54.7634 53.6458 54.7259C53.6313 54.6895 53.6094 54.6561 53.5813 54.628C53.5531 54.5999 53.5208 54.577 53.4833 54.5613C53.4469 54.5468 53.4083 54.5384 53.3688 54.5384C53.0156 54.5343 52.675 54.5343 52.3542 54.5374C52.3146 54.5384 52.276 54.5468 52.2385 54.5624C52.2021 54.578 52.1698 54.5999 52.1417 54.6291C52.1135 54.6572 52.0927 54.6905 52.0771 54.727C52.0625 54.7645 52.0552 54.803 52.0563 54.8426C52.0563 54.8832 52.0646 54.9218 52.0802 54.9582C52.0958 54.9947 52.1177 55.027 52.1469 55.0551C52.175 55.0832 52.2083 55.1051 52.2458 55.1197C52.2823 55.1343 52.3208 55.1416 52.3615 55.1416ZM54.8573 55.1916C55.2 55.2113 55.5344 55.2353 55.851 55.2655C55.8604 55.2666 55.8698 55.2666 55.8792 55.2666C55.9604 55.2666 56.0292 55.2384 56.0875 55.1832C56.1458 55.127 56.1771 55.0593 56.1802 54.9791C56.1844 54.8978 56.1594 54.827 56.1063 54.7666C56.0542 54.7061 55.9875 54.6718 55.9073 54.6645C55.5833 54.6343 55.2417 54.6082 54.8906 54.5884C54.851 54.5863 54.8115 54.5905 54.7729 54.6041C54.7344 54.6166 54.7 54.6363 54.6698 54.6634C54.6396 54.6905 54.6156 54.7218 54.5979 54.7582C54.5802 54.7947 54.5708 54.8322 54.5688 54.8728C54.5667 54.9134 54.5719 54.952 54.5854 54.9905C54.599 55.0291 54.6188 55.0624 54.6458 55.0926C54.6729 55.1228 54.7052 55.1457 54.7417 55.1634C54.7781 55.1801 54.8167 55.1895 54.8573 55.1916ZM58.2042 69.9613C57.875 69.9728 57.5385 69.9801 57.2042 69.9843C57.1646 69.9843 57.126 69.9926 57.0885 70.0072C57.0521 70.0228 57.0198 70.0447 56.9917 70.0738C56.9635 70.102 56.9417 70.1353 56.926 70.1718C56.9115 70.2093 56.9042 70.2478 56.9042 70.2874C56.9042 70.328 56.9125 70.3655 56.9281 70.403C56.9438 70.4395 56.9656 70.4728 56.9938 70.5009C57.0219 70.5291 57.0552 70.5499 57.0917 70.5655C57.1292 70.5801 57.1677 70.5884 57.2073 70.5874H57.2115C57.55 70.5832 57.8906 70.5759 58.224 70.5645C58.2646 70.5634 58.3031 70.5551 58.3396 70.5384C58.376 70.5218 58.4083 70.4988 58.4354 70.4697C58.4625 70.4405 58.4833 70.4072 58.4979 70.3697C58.5125 70.3322 58.5188 70.2926 58.5167 70.253C58.5156 70.2124 58.5063 70.1738 58.4896 70.1374C58.4729 70.1009 58.45 70.0697 58.4208 70.0416C58.3917 70.0145 58.3583 69.9936 58.3208 69.9801C58.2833 69.9655 58.2438 69.9603 58.2042 69.9613ZM60.3625 56.677C60.3896 56.7061 60.4208 56.7291 60.4573 56.7457C60.4927 56.7624 60.5313 56.7718 60.5708 56.7728C60.6104 56.7749 60.649 56.7686 60.6865 56.7551C60.7229 56.7416 60.7563 56.7207 60.7865 56.6936C60.8156 56.6676 60.8385 56.6363 60.8552 56.5999C60.8729 56.5645 60.8823 56.5259 60.8844 56.4863C60.8865 56.4468 60.8802 56.4082 60.8677 56.3707C60.8542 56.3332 60.8344 56.2999 60.8073 56.2707C60.55 55.9999 60.2531 55.7811 59.9177 55.6145C59.8823 55.5957 59.8438 55.5853 59.8042 55.5811C59.7635 55.578 59.725 55.5822 59.6865 55.5936C59.6479 55.6061 59.6135 55.6249 59.5823 55.6509C59.5521 55.6759 59.5271 55.7072 59.5083 55.7426C59.4896 55.778 59.4792 55.8166 59.476 55.8561C59.4719 55.8968 59.4771 55.9353 59.4885 55.9738C59.501 56.0124 59.5198 56.0468 59.5458 56.077C59.5719 56.1082 59.6031 56.1322 59.6385 56.1509C59.9104 56.2843 60.1521 56.4593 60.3625 56.677ZM58.8052 58.8613C58.524 58.9499 58.2115 59.0374 57.85 59.128C57.8115 59.1374 57.775 59.1541 57.7427 59.178C57.7094 59.2009 57.6833 59.2301 57.6625 59.2645C57.6417 59.2999 57.6281 59.3363 57.6219 59.377C57.6156 59.4166 57.6177 59.4561 57.6271 59.4947C57.6375 59.5343 57.6542 59.5697 57.6781 59.602C57.7031 59.6343 57.7323 59.6613 57.7667 59.6811C57.8021 59.702 57.8396 59.7155 57.8792 59.7207C57.9188 59.7259 57.9583 59.7238 57.9979 59.7134C58.3698 59.6197 58.6938 59.5291 58.9865 59.4374C59.025 59.4259 59.0604 59.4072 59.0917 59.3811C59.1229 59.3561 59.1479 59.3249 59.1677 59.2895C59.1865 59.2541 59.1979 59.2155 59.2021 59.1749C59.2052 59.1353 59.201 59.0957 59.1896 59.0572C59.1771 59.0186 59.1573 58.9832 59.1313 58.952C59.1052 58.9218 59.074 58.8968 59.0385 58.878C59.0021 58.8603 58.9635 58.8488 58.9229 58.8468C58.8833 58.8436 58.8438 58.8478 58.8052 58.8613ZM61.0583 57.5666C61.0208 57.552 60.9823 57.5457 60.9417 57.5468C60.9021 57.5488 60.8635 57.5572 60.8271 57.5738C60.7906 57.5905 60.7583 57.6134 60.7313 57.6426C60.7042 57.6718 60.6833 57.7051 60.6688 57.7426C60.5958 57.9353 60.4125 58.1238 60.124 58.303C60.0896 58.3238 60.0604 58.3509 60.0365 58.3832C60.0125 58.4166 59.9969 58.452 59.9875 58.4916C59.9781 58.5301 59.976 58.5697 59.9833 58.6093C59.9896 58.6488 60.0031 58.6863 60.025 58.7207C60.0458 58.7541 60.0729 58.7832 60.1052 58.8061C60.1385 58.8301 60.174 58.8457 60.2135 58.8551C60.2521 58.8645 60.2917 58.8655 60.3313 58.8582C60.3719 58.852 60.4083 58.8374 60.4427 58.8166C60.8521 58.5613 61.1115 58.2801 61.2333 57.9561C61.2479 57.9186 61.2542 57.8801 61.2531 57.8395C61.2521 57.7999 61.2427 57.7613 61.226 57.7249C61.2104 57.6884 61.1875 57.6561 61.1583 57.6291C61.1292 57.602 61.0958 57.5811 61.0583 57.5666ZM53.2094 69.8447C52.8708 69.8145 52.5365 69.7801 52.2177 69.7405C52.1781 69.7363 52.1385 69.7395 52.1 69.7499C52.0615 69.7603 52.026 69.778 51.9948 69.803C51.9635 69.828 51.9375 69.8572 51.9188 69.8926C51.899 69.927 51.8865 69.9645 51.8813 70.0041C51.8771 70.0436 51.8802 70.0832 51.8906 70.1218C51.901 70.1603 51.9188 70.1947 51.9438 70.227C51.9677 70.2582 51.9979 70.2832 52.0323 70.303C52.0677 70.3228 52.1042 70.3353 52.1438 70.3405C52.4708 70.3801 52.8104 70.4155 53.1563 70.4457C53.1656 70.4468 53.174 70.4468 53.1833 70.4468C53.2219 70.4468 53.2594 70.4395 53.2958 70.4249C53.3313 70.4103 53.3635 70.3905 53.3917 70.3634C53.4198 70.3363 53.4417 70.3051 53.4573 70.2697C53.474 70.2343 53.4823 70.1968 53.4844 70.1582C53.4865 70.1197 53.4802 70.0822 53.4677 70.0447C53.4542 70.0082 53.4354 69.9759 53.4094 69.9468C53.3844 69.9166 53.3542 69.8936 53.3188 69.8759C53.2844 69.8582 53.2479 69.8478 53.2094 69.8447ZM51.4469 60.5332C51.1031 60.6228 50.7719 60.7134 50.4656 60.8051C50.426 60.8155 50.3906 60.8332 50.3583 60.8582C50.326 60.8832 50.3 60.9134 50.2802 60.9488C50.2604 60.9843 50.2479 61.0228 50.2438 61.0634C50.2385 61.1041 50.2427 61.1436 50.2542 61.1822C50.2656 61.2218 50.2844 61.2572 50.3104 61.2884C50.3365 61.3197 50.3667 61.3447 50.4031 61.3634C50.4396 61.3822 50.4771 61.3936 50.5177 61.3978C50.5583 61.4009 50.5979 61.3957 50.6365 61.3832C50.9375 61.2947 51.2604 61.2051 51.599 61.1176C51.6375 61.1082 51.674 61.0916 51.7063 61.0676C51.7396 61.0436 51.7656 61.0145 51.7865 60.9801C51.8073 60.9447 51.8208 60.9072 51.8271 60.8676C51.8323 60.827 51.8302 60.7874 51.8208 60.7488C51.8104 60.7093 51.7927 60.6738 51.7688 60.6416C51.7438 60.6093 51.7146 60.5832 51.6792 60.5624C51.6438 60.5426 51.6063 60.5301 51.5667 60.5249C51.526 60.5197 51.4865 60.5228 51.4479 60.5332H51.4469ZM56.3865 59.4613C56.0375 59.5353 55.6771 59.6093 55.401 59.6645C55.3615 59.6728 55.325 59.6874 55.2906 59.7093C55.2573 59.7311 55.2292 59.7593 55.2063 59.7926C55.1844 59.827 55.1688 59.8634 55.1604 59.903C55.1531 59.9426 55.1531 59.9822 55.1615 60.0218C55.1688 60.0613 55.1844 60.0978 55.2073 60.1311C55.2302 60.1645 55.2583 60.1926 55.2917 60.2145C55.326 60.2363 55.3625 60.2509 55.4021 60.2582C55.4417 60.2655 55.4813 60.2655 55.5208 60.2561C55.7979 60.1999 56.1604 60.1259 56.5115 60.052C56.551 60.0436 56.5875 60.0291 56.6208 60.0061C56.6531 59.9832 56.6813 59.9551 56.7031 59.9218C56.725 59.8884 56.7396 59.852 56.7469 59.8124C56.7542 59.7728 56.7542 59.7332 56.7458 59.6936C56.7375 59.6551 56.7219 59.6186 56.699 59.5853C56.676 59.552 56.6479 59.5249 56.6146 59.503C56.5813 59.4811 56.5438 59.4666 56.5052 59.4593C56.4656 59.452 56.426 59.453 56.3865 59.4613ZM53.9177 59.9676C53.5542 60.0436 53.2302 60.1134 52.9292 60.1801C52.8896 60.1884 52.8542 60.2041 52.8208 60.227C52.7885 60.2499 52.7615 60.2791 52.7396 60.3124C52.7177 60.3457 52.7042 60.3832 52.6969 60.4218C52.6896 60.4613 52.6906 60.5009 52.699 60.5395C52.7083 60.5791 52.724 60.6145 52.7469 60.6478C52.7698 60.6801 52.7979 60.7072 52.8323 60.7291C52.8656 60.7509 52.9021 60.7645 52.9417 60.7718C52.9813 60.7791 53.0208 60.778 53.0594 60.7697C53.3583 60.703 53.6792 60.6343 54.0406 60.5593C54.0802 60.5509 54.1156 60.5353 54.149 60.5124C54.1823 60.4905 54.2094 60.4624 54.2313 60.4291C54.2531 60.3957 54.2688 60.3593 54.276 60.3197C54.2833 60.2801 54.2833 60.2405 54.275 60.202C54.2667 60.1624 54.251 60.1259 54.2292 60.0936C54.2063 60.0603 54.1781 60.0322 54.1448 60.0103C54.1115 59.9884 54.075 59.9738 54.0354 59.9666C53.9958 59.9593 53.9563 59.9593 53.9177 59.9676ZM55.7042 69.977C55.3667 69.9697 55.0302 69.9582 54.7042 69.9436C54.6646 69.9416 54.626 69.9478 54.5885 69.9613C54.55 69.9749 54.5167 69.9947 54.4875 70.0218C54.4573 70.0488 54.4344 70.0811 54.4177 70.1166C54.4 70.153 54.3906 70.1916 54.3896 70.2311C54.3875 70.2718 54.3938 70.3103 54.4073 70.3478C54.4208 70.3853 54.4406 70.4186 54.4677 70.4488C54.4948 70.478 54.526 70.502 54.5625 70.5186C54.599 70.5353 54.6365 70.5447 54.6771 70.5468C55.0073 70.5613 55.349 70.5728 55.6917 70.5801H55.6979C55.7375 70.5811 55.776 70.5738 55.8135 70.5582C55.85 70.5436 55.8833 70.5218 55.9115 70.4947C55.9406 70.4666 55.9625 70.4343 55.9781 70.3968C55.9938 70.3603 56.0021 70.3218 56.0021 70.2822C56.0031 70.2416 55.9958 70.203 55.9802 70.1666C55.9656 70.1291 55.9438 70.0968 55.9167 70.0676C55.8885 70.0395 55.8563 70.0166 55.8188 70.0009C55.7823 69.9853 55.7438 69.977 55.7042 69.977Z" fill="#6457FF"/>
<mask id="mask6_2031_1279" style="mask-type:luminance" maskUnits="userSpaceOnUse" x="44" y="48" width="22" height="23">
<path d="M44.4187 48.2698H65.0187V70.8698H44.4187V48.2698Z" fill="white"/>
</mask>
<g mask="url(#mask6_2031_1279)">
<path d="M61.8312 65.4167C61.9281 65.4167 62.024 65.4073 62.1198 65.3886C62.2146 65.3698 62.3073 65.3417 62.3969 65.3042C62.4865 65.2677 62.5708 65.2219 62.6521 65.1677C62.7323 65.1146 62.8073 65.0532 62.876 64.9844C62.9448 64.9157 63.0052 64.8407 63.0594 64.7605C63.1135 64.6802 63.1594 64.5948 63.1958 64.5052C63.2333 64.4157 63.2615 64.323 63.2802 64.2282C63.299 64.1323 63.3083 64.0365 63.3083 63.9396C63.3083 63.8427 63.299 63.7469 63.2802 63.6511C63.2615 63.5563 63.2333 63.4636 63.1958 63.374C63.1594 63.2844 63.1135 63.199 63.0594 63.1188C63.0052 63.0386 62.9448 62.9636 62.876 62.8948C62.8073 62.8261 62.7323 62.7646 62.6521 62.7115C62.5708 62.6573 62.4865 62.6115 62.3969 62.575C62.3073 62.5375 62.2146 62.5094 62.1198 62.4907C62.024 62.4719 61.9281 62.4625 61.8312 62.4625C61.7344 62.4625 61.6375 62.4719 61.5427 62.4907C61.4479 62.5094 61.3552 62.5375 61.2656 62.575C61.176 62.6115 61.0906 62.6573 61.0104 62.7115C60.9292 62.7646 60.8552 62.8261 60.7865 62.8948C60.7177 62.9636 60.6562 63.0386 60.6021 63.1188C60.549 63.199 60.5031 63.2844 60.4656 63.374C60.4292 63.4636 60.401 63.5563 60.3823 63.6511C60.3635 63.7469 60.3531 63.8427 60.3531 63.9396C60.3542 64.0365 60.3635 64.1323 60.3823 64.2282C60.401 64.323 60.4292 64.4157 60.4667 64.5052C60.5042 64.5948 60.549 64.6792 60.6031 64.7605C60.6573 64.8407 60.7187 64.9157 60.7865 64.9834C60.8552 65.0521 60.9302 65.1136 61.0104 65.1677C61.0917 65.2219 61.176 65.2667 61.2656 65.3042C61.3552 65.3417 61.4479 65.3698 61.5427 65.3886C61.6385 65.4073 61.7344 65.4167 61.8312 65.4167ZM61.8312 62.5C61.926 62.5 62.0187 62.5094 62.1115 62.5271C62.2042 62.5459 62.2948 62.573 62.3823 62.6094C62.4698 62.6459 62.5521 62.6896 62.6312 62.7427C62.7094 62.7948 62.7823 62.8552 62.849 62.9219C62.9156 62.9886 62.976 63.0615 63.0281 63.1396C63.0802 63.2188 63.125 63.3011 63.1615 63.3886C63.1969 63.4761 63.225 63.5657 63.2427 63.6584C63.2615 63.7511 63.2708 63.8448 63.2708 63.9396C63.2708 64.0344 63.2615 64.1282 63.2427 64.2209C63.225 64.3136 63.1969 64.4032 63.1615 64.4907C63.125 64.5782 63.0802 64.6604 63.0281 64.7396C62.976 64.8177 62.9156 64.8907 62.849 64.9573C62.7823 65.025 62.7094 65.0844 62.6312 65.1365C62.5521 65.1896 62.4698 65.2334 62.3823 65.2698C62.2948 65.3063 62.2042 65.3334 62.1115 65.3521C62.0187 65.3698 61.926 65.3792 61.8312 65.3792C61.7365 65.3792 61.6427 65.3698 61.55 65.3521C61.4573 65.3334 61.3677 65.3063 61.2802 65.2698C61.1927 65.2334 61.1094 65.1896 61.0312 65.1365C60.9521 65.0844 60.8802 65.024 60.8125 64.9573C60.7458 64.8907 60.6865 64.8177 60.6344 64.7396C60.5812 64.6604 60.5375 64.5782 60.501 64.4907C60.4646 64.4032 60.4375 64.3136 60.4187 64.2209C60.401 64.1282 60.3917 64.0344 60.3917 63.9396C60.3917 63.8448 60.401 63.7511 60.4187 63.6584C60.4375 63.5657 60.4656 63.4761 60.501 63.3886C60.5375 63.3011 60.5823 63.2188 60.6344 63.1396C60.6865 63.0615 60.7469 62.9886 60.8135 62.9219C60.8802 62.8552 60.9531 62.7959 61.0312 62.7427C61.1104 62.6907 61.1927 62.6459 61.2802 62.6094C61.3677 62.574 61.4573 62.5459 61.55 62.5282C61.6427 62.5094 61.7365 62.5 61.8312 62.5ZM62.4885 69.4573C63.424 68.2844 65.0021 66 65.0021 63.9396C65.0021 62.9521 64.6812 62.1063 64.074 61.4948C63.499 60.9167 62.7021 60.5979 61.8312 60.5979C60.9594 60.5979 60.1635 60.9167 59.5885 61.4948C58.9802 62.1063 58.6594 62.9521 58.6594 63.9396C58.6594 66 60.2375 68.2844 61.1729 69.4573C60.3031 69.5594 59.7219 69.8511 59.7219 70.1854C59.7219 70.6084 60.6677 70.9521 61.8312 70.9521C62.9948 70.9521 63.9406 70.6084 63.9406 70.1854C63.9406 69.8511 63.3594 69.5594 62.4896 69.4573H62.4885ZM58.6979 63.9396C58.6979 62.9615 59.0146 62.1261 59.6156 61.5219C60.1833 60.95 60.9698 60.6354 61.8312 60.6354C62.6917 60.6354 63.4792 60.95 64.0469 61.5219C64.6479 62.1261 64.9646 62.9615 64.9646 63.9396C64.9646 64.9979 64.5469 66.2344 63.724 67.6167C63.2708 68.3667 62.7646 69.0771 62.2021 69.7479L62.201 69.75C62.1885 69.7646 62.176 69.7792 62.1646 69.7927L62.1385 69.824L62.1219 69.8427C62.1052 69.8625 62.0896 69.8823 62.074 69.9C62.0417 69.9365 62.0135 69.9698 61.9885 69.999C61.9687 70.0209 61.9458 70.0375 61.9198 70.05C61.8927 70.0625 61.8646 70.0688 61.8354 70.0698C61.8062 70.0709 61.7781 70.0646 61.751 70.0532C61.724 70.0417 61.7 70.025 61.6802 70.0042C61.6781 70.0021 61.676 70 61.674 69.9979C61.6396 69.9594 61.6052 69.9188 61.5698 69.8782L61.5531 69.8584C61.526 69.8271 61.5 69.7948 61.4729 69.7636C61.4562 69.7438 61.4396 69.724 61.4229 69.7032C61.4052 69.6823 61.3885 69.6615 61.3708 69.6407C60.8437 69.0011 60.3667 68.3261 59.9385 67.6167C59.1146 66.2344 58.6979 64.9979 58.6979 63.9396ZM61.8312 70.9146C60.6885 70.9146 59.7594 70.5875 59.7594 70.1854C59.7594 69.873 60.351 69.5875 61.201 69.4917C61.3792 69.7136 61.5323 69.8948 61.6448 70.023C61.6687 70.05 61.6969 70.0709 61.7292 70.0855C61.7615 70.1 61.7958 70.1073 61.8312 70.1073C61.8667 70.1073 61.901 70.1 61.9333 70.0855C61.9656 70.0709 61.9937 70.05 62.0167 70.023C62.1292 69.8948 62.2833 69.7136 62.4615 69.4917C63.3104 69.5875 63.9031 69.873 63.9031 70.1854C63.9031 70.5875 62.974 70.9146 61.8312 70.9146ZM46.6635 51.6844C46.8021 51.6844 46.9354 51.6584 47.0646 51.6052C47.1927 51.5521 47.3062 51.4761 47.4042 51.3782C47.5031 51.2792 47.5781 51.1667 47.6323 51.0375C47.6854 50.9094 47.7115 50.7761 47.7115 50.6365C47.7115 50.4979 47.6854 50.3636 47.6323 50.2354C47.5792 50.1073 47.5031 49.9938 47.4052 49.8948C47.3062 49.7969 47.1927 49.7209 47.0646 49.6677C46.9365 49.6146 46.8021 49.5886 46.6635 49.5886C46.524 49.5886 46.3906 49.6146 46.2625 49.6677C46.1333 49.7209 46.0208 49.7969 45.9219 49.8948C45.824 49.9938 45.7479 50.1063 45.6948 50.2354C45.6417 50.3636 45.6146 50.4969 45.6146 50.6365C45.6156 50.775 45.6417 50.9094 45.6948 51.0375C45.7479 51.1657 45.824 51.2792 45.9219 51.3771C46.0208 51.475 46.1333 51.5511 46.2625 51.6042C46.3906 51.6584 46.524 51.6844 46.6635 51.6844ZM46.6635 49.6261C46.7969 49.6261 46.926 49.6511 47.05 49.7032C47.174 49.7542 47.2833 49.8271 47.3781 49.9219C47.4729 50.0167 47.5458 50.1261 47.5969 50.25C47.6479 50.3729 47.674 50.5021 47.674 50.6365C47.674 50.7698 47.6479 50.899 47.5969 51.0229C47.5458 51.1469 47.4729 51.2563 47.3781 51.3511C47.2833 51.4459 47.174 51.5188 47.05 51.5698C46.926 51.6219 46.7979 51.6469 46.6635 51.6469C46.5292 51.6469 46.4 51.6219 46.2771 51.5698C46.1531 51.5188 46.0437 51.4459 45.949 51.3511C45.8542 51.2563 45.7812 51.1469 45.7292 51.0229C45.6781 50.899 45.6531 50.7709 45.6531 50.6365C45.6531 50.5021 45.6781 50.374 45.7302 50.25C45.7812 50.1261 45.8542 50.0167 45.949 49.9219C46.0437 49.8271 46.1531 49.7542 46.276 49.7032C46.4 49.6521 46.5292 49.6261 46.6635 49.6261ZM45.1687 55.0448C45.1687 55.3511 45.825 55.5917 46.6635 55.5917C47.501 55.5917 48.1583 55.3511 48.1583 55.0448C48.1583 54.8073 47.749 54.6 47.1375 54.5261C47.799 53.6969 48.9073 52.0886 48.9073 50.6365C48.9073 49.9375 48.6802 49.3396 48.25 48.9073C47.8427 48.4979 47.2802 48.2729 46.6635 48.2729C46.0458 48.2729 45.4833 48.4979 45.076 48.9073C44.6469 49.3396 44.4187 49.9375 44.4187 50.6365C44.4187 52.0886 45.5271 53.6969 46.1885 54.5261C45.5771 54.6 45.1687 54.8073 45.1687 55.0448ZM48.1198 55.0448C48.1198 55.3261 47.4667 55.5542 46.6635 55.5542C45.8604 55.5542 45.2062 55.3261 45.2062 55.0448C45.2062 54.8271 45.6208 54.6292 46.2156 54.5604C46.2802 54.6417 46.3396 54.7136 46.3937 54.7771L46.3969 54.7802C46.4167 54.8052 46.4365 54.8282 46.4552 54.85L46.4698 54.8667L46.4906 54.8907C46.5021 54.9042 46.5135 54.9177 46.524 54.9292L46.5281 54.9334C46.5302 54.9365 46.5333 54.9386 46.5365 54.9417C46.5677 54.9729 46.6052 54.9907 46.65 54.9948C46.6937 54.9979 46.7344 54.9865 46.7698 54.9594C46.776 54.9552 46.7823 54.949 46.7885 54.9438C46.7917 54.9407 46.7948 54.9375 46.7979 54.9344L46.801 54.9302C46.8125 54.9177 46.824 54.9042 46.8365 54.8896L46.8562 54.8677C46.8625 54.8594 46.8698 54.8521 46.876 54.8438C46.8927 54.824 46.9104 54.8032 46.9292 54.7813L46.9333 54.7771C46.9875 54.7125 47.0458 54.6407 47.1104 54.5615C47.7052 54.6292 48.1198 54.8271 48.1198 55.0448ZM46.6635 48.3104C47.9625 48.3104 48.8687 49.2667 48.8687 50.6365C48.8687 52.0917 47.7427 53.7104 47.0875 54.5292C47.0208 54.6125 46.9604 54.6865 46.9062 54.75L46.9021 54.7542C46.8833 54.7771 46.8667 54.7969 46.85 54.8167L46.8271 54.8427C46.8208 54.85 46.8146 54.8573 46.8083 54.8646C46.7969 54.8782 46.7844 54.8927 46.7729 54.9052L46.7698 54.9094C46.7687 54.9104 46.7667 54.9125 46.7646 54.9136C46.7385 54.9427 46.7052 54.9573 46.6667 54.9573C46.6271 54.9584 46.5937 54.9448 46.5656 54.9177C46.5625 54.9146 46.5594 54.9125 46.5562 54.9094L46.5531 54.9052C46.5417 54.8927 46.5302 54.8782 46.5177 54.8646L46.499 54.8427L46.475 54.8157C46.4594 54.7959 46.4427 54.7761 46.424 54.7542L46.4198 54.75C46.3667 54.6865 46.3052 54.6125 46.2396 54.5292H46.2385C45.5833 53.7104 44.4573 52.0917 44.4573 50.6365C44.4573 49.2667 45.3646 48.3104 46.6635 48.3104ZM52.3615 55.1604C52.6937 55.1563 53.0292 55.1563 53.3604 55.1604H53.3646C53.4073 55.1615 53.4479 55.1532 53.4875 55.1375C53.5271 55.1209 53.5615 55.0979 53.5917 55.0688C53.6229 55.0386 53.6458 55.0042 53.6625 54.9646C53.6792 54.925 53.6875 54.8844 53.6875 54.8417C53.6875 54.8 53.6802 54.7584 53.6635 54.7188C53.6479 54.6802 53.625 54.6448 53.5948 54.6146C53.5646 54.5844 53.5302 54.5615 53.4917 54.5448C53.4521 54.5282 53.4115 54.5198 53.3687 54.5198C53.0323 54.5157 52.6917 54.5146 52.3542 54.5188C52.3115 54.5198 52.2708 54.5282 52.2312 54.5448C52.1927 54.5615 52.1583 54.5854 52.1281 54.6157C52.099 54.6459 52.076 54.6813 52.0604 54.7209C52.0448 54.7594 52.0365 54.8011 52.0375 54.8438C52.0375 54.8854 52.0469 54.9271 52.0635 54.9657C52.0802 55.0052 52.1031 55.0396 52.1333 55.0688C52.1646 55.099 52.199 55.1219 52.2385 55.1375C52.2781 55.1532 52.3187 55.1604 52.3615 55.1604ZM52.1552 54.6417C52.2094 54.5854 52.276 54.5573 52.3542 54.5563C52.6906 54.5532 53.0323 54.5532 53.3677 54.5573C53.4052 54.5573 53.4417 54.5646 53.476 54.5792C53.5104 54.5938 53.5417 54.6146 53.5677 54.6417C53.5937 54.6677 53.6146 54.699 53.6281 54.7334C53.6427 54.7677 53.649 54.8042 53.649 54.8417C53.649 54.8792 53.6417 54.9157 53.6271 54.95C53.6125 54.9844 53.5917 55.0146 53.5646 55.0417C53.5385 55.0677 53.5073 55.0875 53.4729 55.1021C53.4385 55.1167 53.4021 55.1229 53.3646 55.1229V55.1417L53.3615 55.1229C53.1896 55.1209 53.0156 55.1198 52.8427 55.1198C52.6823 55.1198 52.5208 55.1209 52.3615 55.1229C52.3042 55.1229 52.251 55.1084 52.2031 55.0771C52.1552 55.0459 52.1198 55.0042 52.0979 54.9511C52.075 54.899 52.0687 54.8438 52.0792 54.7875C52.0896 54.7313 52.1156 54.6823 52.1552 54.6417ZM59.6302 56.1677C59.9 56.3 60.1385 56.474 60.3479 56.6907C60.3917 56.7386 60.4448 56.7698 60.5073 56.7854C60.5708 56.8011 60.6323 56.7979 60.6937 56.7761C60.7542 56.7532 60.8042 56.7167 60.8427 56.6636C60.8812 56.6115 60.9021 56.5532 60.9052 56.4886C60.9094 56.4 60.8812 56.3229 60.8208 56.2573C60.5615 55.9854 60.2635 55.7657 59.926 55.5979C59.8875 55.5782 59.8479 55.5667 59.8052 55.5625C59.7625 55.5584 59.7208 55.5636 59.6802 55.5761C59.6396 55.5886 59.6031 55.6084 59.5698 55.6365C59.5375 55.6636 59.5115 55.6959 59.4917 55.7344C59.4719 55.7719 59.4604 55.8125 59.4562 55.8552C59.4531 55.8969 59.4573 55.9386 59.4708 55.9792C59.4833 56.0198 59.5042 56.0573 59.5312 56.0896C59.5594 56.1219 59.5917 56.1479 59.6302 56.1677ZM59.5271 55.7521C59.5437 55.7188 59.5667 55.6907 59.5958 55.6667C59.625 55.6417 59.6562 55.624 59.6927 55.6136C59.7281 55.6021 59.7646 55.5979 59.8021 55.6011C59.8396 55.6042 59.875 55.6146 59.9083 55.6313C60.2417 55.7969 60.5365 56.0136 60.7937 56.2834C60.8187 56.3104 60.8385 56.3417 60.851 56.3771C60.8646 56.4125 60.8708 56.45 60.8687 56.4875C60.8677 56.525 60.8583 56.5604 60.8427 56.5948C60.8271 56.6292 60.8052 56.6594 60.7771 56.6844C60.749 56.7104 60.7177 56.7292 60.6823 56.7417C60.6458 56.7542 60.6094 56.7604 60.5719 56.7584C60.5344 56.7563 60.499 56.7469 60.4646 56.7313C60.4302 56.7146 60.401 56.6927 60.376 56.6646C60.1635 56.4448 59.9208 56.2677 59.6469 56.1344C59.6146 56.1167 59.5854 56.0938 59.5615 56.0646C59.5375 56.0365 59.5198 56.0042 59.5083 55.9677C59.4969 55.9323 59.4927 55.8959 59.4958 55.8584C59.499 55.8209 59.5094 55.7854 59.5271 55.7521ZM57.3219 55.4761C57.6656 55.5354 57.9885 55.6032 58.2823 55.6782C58.3229 55.6896 58.3646 55.6917 58.4073 55.6854C58.449 55.6792 58.4885 55.6657 58.525 55.6438C58.5615 55.6219 58.5927 55.5948 58.6177 55.5604C58.6437 55.5261 58.6615 55.4886 58.6719 55.4479C58.6833 55.4063 58.6854 55.3646 58.6792 55.3229C58.6729 55.2802 58.6594 55.2417 58.6375 55.2042C58.6156 55.1677 58.5885 55.1375 58.5542 55.1115C58.5198 55.0865 58.4823 55.0677 58.4417 55.0573C58.1312 54.9782 57.7917 54.9063 57.4312 54.8438C57.3896 54.8365 57.3469 54.8375 57.3052 54.8459C57.2635 54.8552 57.226 54.8719 57.1906 54.8969C57.1562 54.9219 57.1271 54.9521 57.1042 54.9875C57.0812 55.024 57.0667 55.0625 57.0594 55.1052C57.0521 55.1469 57.0531 55.1886 57.0625 55.2302C57.0719 55.2719 57.0885 55.3104 57.1135 55.3448C57.1385 55.3802 57.1687 55.4084 57.2052 55.4313C57.2406 55.4542 57.2802 55.4688 57.3219 55.4761ZM57.0979 55.1115C57.1094 55.0438 57.1417 54.9875 57.1948 54.9438C57.2469 54.899 57.3073 54.8771 57.376 54.8771C57.3927 54.8771 57.4083 54.8782 57.425 54.8813C57.7844 54.9427 58.1229 55.0146 58.4323 55.0938C58.4687 55.1032 58.501 55.1188 58.5312 55.1417C58.5615 55.1646 58.5865 55.1917 58.6052 55.224C58.624 55.2563 58.6365 55.2907 58.6417 55.3282C58.6469 55.3657 58.6448 55.4021 58.6354 55.4386C58.626 55.475 58.6104 55.5084 58.5875 55.5386C58.5656 55.5677 58.5375 55.5927 58.5052 55.6115C58.4729 55.6313 58.4385 55.6427 58.401 55.6479C58.3646 55.6532 58.3271 55.6511 58.2906 55.6427C57.9969 55.5667 57.6719 55.4979 57.3281 55.4386C57.2917 55.4323 57.2573 55.4188 57.225 55.399C57.1937 55.3792 57.1667 55.3532 57.1458 55.3229C57.124 55.2917 57.1094 55.2584 57.101 55.2219C57.0927 55.1854 57.0917 55.1479 57.0979 55.1115ZM57.6125 59.499C57.6229 59.5407 57.6406 59.5782 57.6667 59.6125C57.6917 59.6459 57.7229 59.674 57.7594 59.6959C57.7958 59.7177 57.8344 59.7323 57.8771 59.7386C57.9187 59.7438 57.9604 59.7417 58.0021 59.7313C58.374 59.6386 58.6979 59.5479 58.9917 59.4552C59.0323 59.4427 59.0698 59.4229 59.1021 59.3959C59.1354 59.3688 59.1625 59.3354 59.1823 59.2979C59.2021 59.2604 59.2135 59.2198 59.2177 59.1771C59.2219 59.1344 59.2177 59.0927 59.2042 59.0521C59.1917 59.0104 59.1708 58.974 59.1437 58.9417C59.1156 58.9084 59.0833 58.8823 59.0448 58.8625C59.0073 58.8438 58.9667 58.8323 58.924 58.8282C58.8812 58.825 58.8396 58.8302 58.799 58.8427C58.5177 58.9313 58.2062 59.0188 57.8458 59.1094C57.8042 59.1198 57.7667 59.1375 57.7323 59.1636C57.6979 59.1886 57.6708 59.2198 57.649 59.2563C57.6271 59.2927 57.6125 59.3323 57.6062 59.374C57.6 59.4157 57.6021 59.4573 57.6125 59.499ZM58.8104 58.8792C58.8458 58.8688 58.8823 58.8646 58.9198 58.8688C58.9562 58.8719 58.9917 58.8823 59.024 58.9C59.0573 58.9177 59.0854 58.9407 59.1094 58.9688C59.1333 58.9979 59.151 59.0302 59.1615 59.0657C59.1729 59.1011 59.1771 59.1375 59.174 59.174C59.1708 59.2115 59.1604 59.2469 59.1437 59.2792C59.1271 59.3125 59.1042 59.3417 59.076 59.3657C59.0469 59.3896 59.0156 59.4073 58.9802 59.4188C58.6875 59.5115 58.3646 59.6021 57.9927 59.6948C57.9562 59.7052 57.9187 59.7073 57.8812 59.7021C57.8437 59.6969 57.8094 59.6844 57.776 59.6657C57.7437 59.6459 57.7167 59.6219 57.6937 59.5917C57.6708 59.5604 57.6552 59.5271 57.6458 59.4907C57.6365 59.4542 57.6344 59.4167 57.6406 59.3792C57.6458 59.3417 57.6583 59.3073 57.6781 59.275C57.6979 59.2427 57.7229 59.2157 57.7531 59.1927C57.7844 59.1709 57.8177 59.1552 57.8542 59.1459C58.2167 59.0552 58.5292 58.9677 58.8104 58.8792ZM54.8562 55.2104C55.1979 55.2302 55.5323 55.2552 55.849 55.2844C55.8594 55.2854 55.8687 55.2854 55.8792 55.2854C55.9208 55.2854 55.9604 55.2782 55.999 55.2625C56.0365 55.2469 56.0708 55.225 56.1 55.1969C56.1302 55.1688 56.1531 55.1354 56.1708 55.0979C56.1875 55.0604 56.1969 55.0209 56.199 54.9802C56.201 54.9386 56.1948 54.899 56.1812 54.8594C56.1677 54.8209 56.1479 54.7854 56.1208 54.7552C56.0937 54.724 56.0615 54.699 56.025 54.6802C55.9885 54.6615 55.95 54.65 55.9083 54.6459C55.5844 54.6157 55.2427 54.5907 54.8917 54.5709C54.85 54.5677 54.8083 54.574 54.7677 54.5875C54.7281 54.6021 54.6917 54.6229 54.6604 54.6511C54.6281 54.6802 54.6031 54.7136 54.5854 54.7511C54.5667 54.7896 54.5562 54.8302 54.5542 54.8729C54.551 54.9146 54.5573 54.9563 54.5708 54.9969C54.5854 55.0365 54.6062 55.0729 54.6354 55.1042C54.6635 55.1365 54.6969 55.1615 54.7344 55.1792C54.7729 55.1979 54.8135 55.2084 54.8562 55.2104ZM54.5917 54.875C54.5958 54.8 54.625 54.7365 54.6792 54.6854C54.7333 54.6344 54.7979 54.6084 54.8729 54.6073C54.8792 54.6073 54.8844 54.6073 54.8896 54.6084C55.2396 54.6282 55.5812 54.6532 55.9052 54.6834C55.9427 54.6865 55.9781 54.6979 56.0115 54.7146C56.0437 54.7323 56.0729 54.7552 56.0969 54.7844C56.1208 54.8136 56.1385 54.8459 56.149 54.8813C56.1604 54.9177 56.1646 54.9542 56.1604 54.9917C56.1573 55.0292 56.1469 55.0646 56.1302 55.0979C56.1125 55.1313 56.0896 55.1594 56.0604 55.1834C56.0312 55.2073 55.999 55.225 55.9625 55.2365C55.9271 55.2469 55.8906 55.2511 55.8531 55.2469C55.5354 55.2177 55.201 55.1927 54.8583 55.1729C54.8208 55.1709 54.7854 55.1615 54.751 55.1459C54.7177 55.1292 54.6885 55.1073 54.6635 55.0792C54.6385 55.0511 54.6198 55.0198 54.6073 54.9844C54.5948 54.949 54.5896 54.9125 54.5917 54.875ZM60.651 57.7354C60.5802 57.924 60.399 58.1104 60.1135 58.2875C60.0771 58.3094 60.0469 58.3386 60.0219 58.3729C59.9969 58.4073 59.9802 58.4448 59.9698 58.4865C59.9604 58.5282 59.9594 58.5698 59.9656 58.6115C59.9729 58.6542 59.9875 58.6927 60.0104 58.7292C60.0323 58.7657 60.0615 58.7959 60.0958 58.8209C60.1302 58.8448 60.1677 58.8625 60.2094 58.8719C60.251 58.8813 60.2927 58.8834 60.3344 58.8761C60.3771 58.8698 60.4156 58.8542 60.4521 58.8323C60.8656 58.575 61.1271 58.2907 61.251 57.9625C61.2667 57.9229 61.2729 57.8813 61.2719 57.8386C61.2708 57.7969 61.2615 57.7563 61.2437 57.7167C61.226 57.6782 61.2021 57.6448 61.1708 57.6157C61.1396 57.5865 61.1042 57.5636 61.0646 57.549C61.025 57.5344 60.9833 57.5271 60.9406 57.5282C60.899 57.5292 60.8583 57.5396 60.8187 57.5563C60.7802 57.574 60.7469 57.5979 60.7177 57.6292C60.6885 57.6604 60.6667 57.6959 60.651 57.7354ZM60.951 57.5657C60.9979 57.5657 61.0417 57.5771 61.0833 57.5979C61.124 57.6198 61.1573 57.65 61.1844 57.6886C61.2104 57.7261 61.226 57.7688 61.2323 57.8146C61.2375 57.8604 61.2323 57.9052 61.2156 57.949C61.0948 58.2698 60.8385 58.5479 60.4323 58.8C60.4 58.8198 60.3656 58.8313 60.3292 58.8375C60.2927 58.8427 60.2562 58.8417 60.2198 58.8334C60.1833 58.824 60.15 58.8094 60.1198 58.7875C60.0896 58.7657 60.0646 58.7386 60.0458 58.7073C60.026 58.675 60.0125 58.6417 60.0062 58.6042C60 58.5677 60.001 58.5313 60.0094 58.4948C60.0177 58.4594 60.0333 58.425 60.0542 58.3948C60.076 58.3646 60.1021 58.3396 60.1333 58.3198C60.426 58.1375 60.6125 57.9459 60.6865 57.749C60.7073 57.6938 60.7417 57.65 60.7906 57.6167C60.8385 57.5823 60.8927 57.5657 60.951 57.5657ZM55.7042 69.9584C55.3677 69.9511 55.0312 69.9396 54.7052 69.925C54.6625 69.923 54.6219 69.9302 54.5823 69.9448C54.5427 69.9594 54.5073 69.9813 54.476 70.0094C54.4458 70.0386 54.4208 70.0719 54.4031 70.1094C54.3854 70.148 54.375 70.1886 54.3729 70.2302C54.3719 70.273 54.3781 70.3136 54.3917 70.3532C54.4062 70.3938 54.4271 70.4292 54.4562 70.4605C54.4844 70.4917 54.5177 70.5167 54.5552 70.5344C54.5937 70.5532 54.6333 70.5636 54.676 70.5657C55.0062 70.5802 55.3479 70.5917 55.6906 70.599H55.6979C55.7396 70.6 55.7802 70.5917 55.8198 70.5761C55.8594 70.5594 55.8937 70.5365 55.924 70.5073C55.9542 70.4771 55.9771 70.4427 55.9937 70.4042C56.0104 70.3657 56.0187 70.324 56.0198 70.2823C56.0198 70.2396 56.0125 70.199 55.9969 70.1594C55.9812 70.1209 55.9583 70.0855 55.9292 70.0552C55.899 70.025 55.8646 70.0011 55.826 69.9844C55.7875 69.9677 55.7469 69.9584 55.7042 69.9584ZM55.6979 70.5615H55.6917C55.349 70.5542 55.0073 70.5427 54.6781 70.5282C54.6406 70.5261 54.6052 70.5177 54.5719 70.5021C54.5385 70.4865 54.5094 70.4657 54.4833 70.4386C54.4583 70.4115 54.4396 70.3802 54.426 70.3459C54.4135 70.3115 54.4073 70.2761 54.4083 70.2386C54.4083 70.2021 54.4167 70.1667 54.4312 70.1323C54.4458 70.0979 54.4667 70.0688 54.4927 70.0427C54.5198 70.0167 54.55 69.9969 54.5844 69.9834C54.6187 69.9688 54.6542 69.9625 54.6906 69.9625C54.6948 69.9625 54.699 69.9625 54.7031 69.9625C55.0292 69.9782 55.3656 69.9886 55.7031 69.9959C55.7406 69.9969 55.7771 70.0052 55.8115 70.0198C55.8458 70.0354 55.876 70.0563 55.9021 70.0834C55.9281 70.1105 55.9479 70.1417 55.9615 70.1761C55.975 70.2115 55.9812 70.248 55.9802 70.2854C55.9781 70.3615 55.95 70.4271 55.8948 70.4802C55.8396 70.5344 55.774 70.5615 55.6979 70.5615ZM53.2104 69.8261C52.8708 69.7959 52.5375 69.7615 52.2198 69.7219C52.1771 69.7177 52.1365 69.7209 52.0948 69.7323C52.0542 69.7438 52.0167 69.7625 51.9833 69.7886C51.95 69.8146 51.9229 69.8459 51.9021 69.8834C51.8812 69.9198 51.8677 69.9594 51.8625 70.0021C51.8573 70.0438 51.8604 70.0855 51.8719 70.1271C51.8833 70.1677 51.9021 70.2052 51.9281 70.2386C51.9552 70.2719 51.9865 70.299 52.0229 70.3198C52.0604 70.3407 52.1 70.3542 52.1417 70.3594C52.4687 70.399 52.8094 70.4344 53.1542 70.4646C53.1646 70.4657 53.174 70.4657 53.1833 70.4657C53.224 70.4657 53.2646 70.4584 53.3021 70.4427C53.3406 70.4271 53.375 70.4052 53.4052 70.3771C53.4344 70.3479 53.4583 70.3157 53.475 70.2771C53.4927 70.2396 53.5021 70.2 53.5031 70.1594C53.5052 70.1177 53.499 70.0782 53.4854 70.0386C53.4719 70 53.451 69.9646 53.424 69.9334C53.3969 69.9032 53.3646 69.8782 53.3281 69.8594C53.2906 69.8407 53.2521 69.8292 53.2104 69.8261ZM53.4646 70.1698C53.4615 70.2073 53.451 70.2427 53.4333 70.2761C53.4156 70.3094 53.3927 70.3375 53.3635 70.3615C53.3354 70.3855 53.3031 70.4032 53.2677 70.4146C53.2312 70.4261 53.1948 70.4302 53.1573 70.4271C52.8125 70.3969 52.4719 70.3615 52.1469 70.3219C52.0719 70.3125 52.0115 70.2792 51.9635 70.2219C51.9156 70.1646 51.8937 70.099 51.8979 70.024C51.9021 69.949 51.9323 69.8865 51.9865 69.8355C52.0406 69.7834 52.1052 69.7573 52.1802 69.7573C52.1917 69.7573 52.2031 69.7584 52.2156 69.7594C52.5333 69.799 52.8677 69.8334 53.2073 69.8636C53.2448 69.8667 53.2802 69.8771 53.3135 69.8948C53.3469 69.9115 53.375 69.9354 53.4 69.9636C53.424 69.9927 53.4417 70.025 53.4531 70.0604C53.4635 70.0959 53.4677 70.1334 53.4646 70.1698ZM49.8427 55.2625C49.851 55.2625 49.8604 55.2615 49.8698 55.2615C49.9094 55.2584 50.2802 55.2292 50.8635 55.2032C50.9052 55.2011 50.9458 55.1907 50.9844 55.1729C51.0229 55.1552 51.0562 55.1302 51.0854 55.099C51.1135 55.0677 51.1354 55.0313 51.15 54.9917C51.1646 54.9521 51.1708 54.9104 51.1687 54.8677C51.1667 54.825 51.1573 54.7854 51.1385 54.7469C51.1208 54.7084 51.0958 54.674 51.0646 54.6459C51.0333 54.6167 50.9979 54.5959 50.9573 54.5813C50.9177 54.5667 50.876 54.5604 50.8344 54.5625C50.2125 54.5907 49.8333 54.6209 49.8177 54.6219C49.776 54.625 49.7375 54.6365 49.7 54.6542C49.6625 54.6729 49.6312 54.6979 49.6031 54.7292C49.576 54.7594 49.5552 54.7948 49.5417 54.8334C49.5271 54.8729 49.5208 54.9125 49.5229 54.9542C49.525 54.9959 49.5344 55.0354 49.551 55.0729C49.5677 55.1104 49.5917 55.1438 49.6208 55.1729C49.651 55.2011 49.6844 55.2229 49.7229 55.2386C49.7615 55.2542 49.801 55.2625 49.8427 55.2625ZM49.8208 54.6594C49.8365 54.6584 50.2156 54.6282 50.8354 54.6C50.8396 54.6 50.8437 54.6 50.8479 54.6C50.8854 54.6 50.9208 54.6063 50.9552 54.6209C50.9896 54.6344 51.0198 54.6542 51.0458 54.6802C51.0719 54.7063 51.0927 54.7354 51.1073 54.7698C51.1229 54.8042 51.1302 54.8396 51.1312 54.8761C51.1323 54.9136 51.126 54.949 51.1125 54.9834C51.1 55.0177 51.0802 55.049 51.0552 55.0761C51.0302 55.1032 51.001 55.124 50.9667 55.1396C50.9333 55.1552 50.8979 55.1636 50.8615 55.1657C50.2771 55.1917 49.9062 55.2209 49.8656 55.224C49.8292 55.2261 49.7927 55.2219 49.7573 55.2094C49.7219 55.1979 49.6906 55.1802 49.6625 55.1552C49.6344 55.1313 49.6115 55.1032 49.5948 55.0698C49.5781 55.0365 49.5677 55.0011 49.5646 54.9636C49.5615 54.9271 49.5656 54.8907 49.5771 54.8552C49.5885 54.8198 49.6062 54.7875 49.6302 54.7594C49.6542 54.7313 49.6823 54.7084 49.7156 54.6907C49.749 54.674 49.7833 54.6636 49.8208 54.6594ZM53.9135 59.949C53.549 60.025 53.226 60.0948 52.924 60.1615C52.8823 60.1709 52.8437 60.1875 52.8094 60.2115C52.774 60.2354 52.7448 60.2657 52.7219 60.3021C52.6979 60.3375 52.6833 60.3771 52.675 60.4188C52.6677 60.4615 52.6687 60.5032 52.6781 60.5448C52.6875 60.5865 52.7042 60.625 52.7292 60.6594C52.7531 60.6948 52.7844 60.724 52.8198 60.7469C52.8562 60.7698 52.8958 60.7844 52.9375 60.7917C52.9802 60.799 53.0219 60.7979 53.0635 60.7875C53.3625 60.7219 53.6833 60.6521 54.0448 60.5771C54.0854 60.5688 54.124 60.5521 54.1594 60.5282C54.1937 60.5042 54.2229 60.474 54.2458 60.4386C54.2698 60.4032 54.2854 60.3646 54.2927 60.3229C54.301 60.2813 54.3 60.2396 54.2917 60.1979C54.2833 60.1563 54.2667 60.1188 54.2427 60.0834C54.2187 60.0479 54.1896 60.0188 54.1542 59.9959C54.1187 59.9729 54.0802 59.9563 54.0385 59.949C53.9969 59.9407 53.9552 59.9407 53.9135 59.949ZM54.0365 60.5407C53.676 60.6157 53.3542 60.6844 53.0552 60.7511C53.0187 60.7594 52.9812 60.7594 52.9448 60.7532C52.9083 60.7469 52.874 60.7334 52.8417 60.7136C52.8104 60.6927 52.7833 60.6677 52.7625 60.6375C52.7406 60.6063 52.726 60.573 52.7177 60.5365C52.7094 60.499 52.7083 60.4625 52.7156 60.4261C52.7219 60.3886 52.7354 60.3542 52.7552 60.3229C52.775 60.2907 52.801 60.2646 52.8312 60.2427C52.8625 60.2219 52.8958 60.2063 52.9323 60.1979C53.2333 60.1313 53.5573 60.0625 53.9208 59.9865C53.9573 59.9792 53.9948 59.9782 54.0312 59.9854C54.0687 59.9927 54.1021 60.0063 54.1344 60.0271C54.1656 60.0469 54.1917 60.073 54.2125 60.1042C54.2344 60.1354 54.2479 60.1688 54.2562 60.2052C54.2635 60.2427 54.2635 60.2792 54.2573 60.3157C54.25 60.3532 54.2365 60.3875 54.2156 60.4188C54.1948 60.45 54.1698 60.4761 54.1385 60.4969C54.1073 60.5188 54.074 60.5323 54.0365 60.5407ZM51.6854 60.549C51.6094 60.5042 51.5281 60.4927 51.4427 60.5157C51.0979 60.6042 50.7667 60.6959 50.4594 60.7865C50.4187 60.799 50.3823 60.8188 50.349 60.8448C50.3156 60.8719 50.2896 60.9042 50.2687 60.9417C50.249 60.9792 50.2365 61.0188 50.2323 61.0604C50.2271 61.1032 50.2312 61.1448 50.2437 61.1854C50.2635 61.2532 50.3021 61.3084 50.3594 61.3511C50.4156 61.3938 50.4802 61.4146 50.551 61.4157C50.5812 61.4157 50.6125 61.4104 50.6417 61.4021C50.9427 61.3125 51.2656 61.2229 51.6031 61.1365C51.6656 61.1198 51.7187 61.0875 51.7615 61.0386C51.8052 60.9907 51.8312 60.9344 51.8406 60.8698C51.849 60.8052 51.8396 60.7448 51.8115 60.6854C51.7833 60.6271 51.7406 60.5823 51.6854 60.549ZM51.7667 60.9698C51.7271 61.0365 51.6698 61.0802 51.5937 61.1C51.2562 61.1865 50.9323 61.2761 50.6312 61.3657C50.5958 61.3761 50.5594 61.3792 50.5219 61.375C50.4844 61.3709 50.45 61.3604 50.4167 61.3417C50.3844 61.324 50.3562 61.3011 50.3323 61.2719C50.3094 61.2427 50.2917 61.2104 50.2812 61.174C50.2708 61.1386 50.2677 61.1021 50.2708 61.0646C50.275 61.0282 50.2854 60.9927 50.3031 60.9594C50.3208 60.9271 50.3448 60.899 50.3729 60.875C50.4021 60.8511 50.4344 60.8344 50.4708 60.8229C50.7771 60.7323 51.1073 60.6407 51.4521 60.5521C51.5073 60.5375 51.5625 60.5396 51.6156 60.5584C51.6698 60.5771 51.7146 60.6094 51.749 60.6552C51.7833 60.7011 51.8021 60.7521 51.8052 60.8094C51.8083 60.8667 51.7958 60.9198 51.7667 60.9698ZM58.2031 69.9427C57.874 69.9542 57.5375 69.9615 57.2042 69.9657C57.1615 69.9657 57.1208 69.974 57.0812 69.9907C57.0427 70.0073 57.0083 70.0302 56.9781 70.0604C56.9479 70.0907 56.925 70.1261 56.9094 70.1646C56.8927 70.2042 56.8854 70.2448 56.8854 70.2875C56.8854 70.3302 56.8937 70.3709 56.9104 70.4104C56.9271 70.45 56.95 70.4844 56.9802 70.5136C57.0104 70.5438 57.0458 70.5667 57.0854 70.5834C57.124 70.599 57.1656 70.6073 57.2083 70.6063H57.2115C57.551 70.6032 57.8917 70.5948 58.225 70.5834C58.2896 70.5813 58.349 70.5615 58.4021 70.523C58.4542 70.4844 58.4927 70.4354 58.5146 70.374C58.5375 70.3136 58.5417 70.2511 58.526 70.1875C58.5104 70.124 58.4792 70.0709 58.4312 70.0261C58.3677 69.9667 58.2906 69.9386 58.2031 69.9427ZM58.224 70.5459C57.8906 70.5573 57.55 70.5646 57.2115 70.5688H57.2073C57.1708 70.5688 57.1344 70.5615 57.1 70.548C57.0656 70.5334 57.0354 70.5136 57.0094 70.4865C56.9823 70.4605 56.9625 70.4302 56.9479 70.3959C56.9333 70.3625 56.925 70.3261 56.925 70.2896C56.924 70.2521 56.9312 70.2157 56.9448 70.1802C56.9594 70.1459 56.9792 70.1146 57.0052 70.0886C57.0312 70.0615 57.0615 70.0407 57.0969 70.0261C57.1312 70.0115 57.1667 70.0032 57.2042 70.0032C57.5385 69.999 57.875 69.9917 58.2042 69.9802C58.2094 69.9802 58.2135 69.9802 58.2177 69.9802C58.2896 69.9802 58.3531 70.0042 58.4062 70.0542C58.4479 70.0927 58.476 70.1407 58.4896 70.1959C58.5021 70.2521 58.499 70.3073 58.4792 70.3615C58.4594 70.4146 58.426 70.4584 58.3792 70.4927C58.3333 70.5261 58.2812 70.5438 58.224 70.5459ZM56.624 59.4875C56.55 59.4396 56.4687 59.424 56.3823 59.4427C56.0406 59.5157 55.6927 59.5865 55.3969 59.6469C55.3552 59.6552 55.3167 59.6709 55.2812 59.6948C55.2458 59.7188 55.2167 59.7479 55.1937 59.7834C55.1698 59.8188 55.1542 59.8573 55.1458 59.899C55.1375 59.9417 55.1375 59.9834 55.1458 60.025C55.1552 60.0667 55.1708 60.1052 55.1948 60.1407C55.2187 60.175 55.2479 60.2052 55.2833 60.2282C55.3187 60.2521 55.3573 60.2677 55.399 60.2761C55.4417 60.2844 55.4833 60.2834 55.525 60.275C55.801 60.2188 56.1625 60.1459 56.5156 60.0709C56.5792 60.0573 56.6333 60.0271 56.6781 59.9813C56.724 59.9344 56.7521 59.8792 56.7646 59.8157C56.776 59.7521 56.7687 59.6907 56.7437 59.6302C56.7177 59.5709 56.6781 59.523 56.624 59.4875ZM56.6865 59.9115C56.6437 59.9771 56.5844 60.0177 56.5073 60.0334C56.1552 60.1084 55.7927 60.1823 55.5167 60.2386C55.4802 60.2459 55.4437 60.2459 55.4062 60.2386C55.3698 60.2313 55.3354 60.2177 55.3042 60.1969C55.2729 60.1761 55.2469 60.15 55.226 60.1188C55.2052 60.0875 55.1906 60.0542 55.1833 60.0167C55.176 59.9802 55.176 59.9438 55.1833 59.9063C55.1906 59.8698 55.2042 59.8354 55.225 59.8042C55.2458 59.773 55.2719 59.7469 55.3031 59.7261C55.3333 59.7052 55.3677 59.6907 55.4042 59.6834C55.7 59.6229 56.049 59.5521 56.3906 59.4802C56.4104 59.4761 56.4302 59.474 56.45 59.474C56.5625 59.474 56.6448 59.524 56.6979 59.6219C56.7521 59.7209 56.7479 59.8177 56.6865 59.9115ZM50.7458 69.4969C50.4094 69.4344 50.0844 69.3646 49.7792 69.2896C49.7375 69.2792 49.6958 69.2771 49.6542 69.2834C49.6115 69.2896 49.5719 69.3032 49.5354 69.325C49.499 69.3469 49.4677 69.375 49.4427 69.4094C49.4167 69.4438 49.399 69.4823 49.3896 69.524C49.3792 69.5646 49.3771 69.6073 49.3833 69.649C49.3906 69.6917 49.4042 69.7302 49.4271 69.7667C49.449 69.8032 49.4771 69.8344 49.5125 69.8594C49.5469 69.8844 49.5844 69.9021 49.626 69.9125C49.9427 69.9896 50.2802 70.0625 50.6281 70.1282C50.6698 70.1355 50.7115 70.1355 50.7531 70.1261C50.7948 70.1177 50.8333 70.1011 50.8687 70.0771C50.9042 70.0532 50.9333 70.023 50.9562 69.9875C50.9792 69.9521 50.9948 69.9136 51.0031 69.8719C51.0104 69.8292 51.0104 69.7875 51.001 69.7459C50.9927 69.7042 50.976 69.6667 50.9521 69.6313C50.9281 69.5959 50.8979 69.5667 50.8625 69.5438C50.8271 69.5209 50.7885 69.5052 50.7458 69.4969ZM50.9656 69.8646C50.9583 69.9011 50.9448 69.9354 50.925 69.9667C50.9042 69.999 50.8781 70.025 50.8469 70.0459C50.8167 70.0677 50.7823 70.0823 50.7458 70.0896C50.7094 70.0969 50.6719 70.0979 50.6354 70.0907C50.2875 70.0261 49.951 69.9532 49.6354 69.8761C49.5656 69.8584 49.5104 69.8209 49.4698 69.7625C49.4281 69.7032 49.4125 69.6386 49.4208 69.5667C49.4292 69.4959 49.4604 69.4365 49.5135 69.3886C49.5677 69.3417 49.6302 69.3177 49.7021 69.3177C49.725 69.3177 49.7479 69.3198 49.7698 69.3261C50.076 69.4011 50.4021 69.4709 50.7396 69.5344C50.776 69.5417 50.8104 69.5552 50.8417 69.575C50.8729 69.5959 50.899 69.6219 50.9208 69.6521C50.9417 69.6834 50.9562 69.7177 50.9635 69.7542C50.9719 69.7907 50.9719 69.8271 50.9656 69.8646ZM45.5104 65.6542C45.5198 65.3521 45.5729 65.0573 45.6698 64.7709C45.6833 64.7302 45.6885 64.6886 45.6854 64.6469C45.6833 64.6042 45.6719 64.5636 45.6531 64.5261C45.6344 64.4875 45.6094 64.4542 45.5771 64.4261C45.5458 64.398 45.5094 64.3771 45.4687 64.3636C45.4292 64.35 45.3875 64.3448 45.3448 64.3469C45.3031 64.35 45.2625 64.3605 45.224 64.3792C45.1865 64.398 45.1531 64.424 45.125 64.4552C45.0969 64.4875 45.076 64.524 45.0625 64.5636C44.9448 64.9104 44.8812 65.2667 44.8698 65.6323C44.8677 65.675 44.875 65.7157 44.8896 65.7552C44.9042 65.7959 44.926 65.8313 44.9552 65.8625C44.9844 65.8927 45.0177 65.9177 45.0573 65.9354C45.0958 65.9532 45.1365 65.9625 45.1781 65.9636C45.1823 65.9636 45.1865 65.9636 45.1896 65.9636C45.2312 65.9646 45.2719 65.9563 45.3104 65.9407C45.349 65.925 45.3833 65.9032 45.4135 65.874C45.4427 65.8459 45.4667 65.8115 45.4833 65.774C45.5 65.7355 45.5094 65.6959 45.5104 65.6542ZM44.9833 65.8365C44.9292 65.7792 44.9042 65.7115 44.9073 65.6334C44.9187 65.2719 44.9823 64.9188 45.0979 64.5761C45.1104 64.5407 45.1292 64.5094 45.1542 64.4823C45.1792 64.4542 45.2083 64.4323 45.2417 64.4157C45.275 64.4 45.3104 64.3907 45.3479 64.3886C45.3844 64.3855 45.4208 64.3907 45.4562 64.4032C45.4917 64.4146 45.5229 64.4334 45.551 64.4573C45.5792 64.4823 45.601 64.5105 45.6177 64.5438C45.6344 64.5771 45.6437 64.6125 45.6469 64.65C45.65 64.6865 45.6448 64.7229 45.6333 64.7584C45.5365 65.049 45.4823 65.3469 45.4729 65.6532C45.4708 65.7302 45.4417 65.7948 45.3865 65.8479C45.3323 65.9 45.2667 65.9271 45.1896 65.9271H45.1802C45.1021 65.924 45.0365 65.8938 44.9833 65.8365ZM45.7896 66.9459C45.7698 66.9084 45.7437 66.875 45.7104 66.8479C45.6781 66.8209 45.6417 66.8011 45.601 66.7886C45.5604 66.7761 45.5187 66.7709 45.476 66.775C45.4344 66.7792 45.3937 66.7907 45.3562 66.8104C45.3187 66.8302 45.2865 66.8563 45.2594 66.8886C45.2323 66.9219 45.2115 66.9584 45.199 66.999C45.1865 67.0396 45.1823 67.0813 45.1865 67.1229C45.1896 67.1657 45.2021 67.2052 45.2208 67.2438C45.3958 67.5709 45.6167 67.8636 45.8833 68.1209C45.9135 68.15 45.949 68.173 45.9885 68.1896C46.0281 68.2052 46.0687 68.2125 46.1115 68.2125C46.1542 68.2115 46.1948 68.2032 46.2344 68.1865C46.2729 68.1698 46.3073 68.1469 46.3375 68.1157C46.3667 68.0854 46.3896 68.0511 46.4062 68.0115C46.4219 67.9719 46.4292 67.9302 46.4292 67.8886C46.4281 67.8459 46.4198 67.8042 46.4031 67.7657C46.3865 67.7261 46.3625 67.6917 46.3323 67.6625C46.1135 67.4521 45.9323 67.2125 45.7896 66.9459ZM46.3104 68.0896C46.2844 68.1167 46.2531 68.1365 46.2187 68.1521C46.1844 68.1667 46.149 68.174 46.1104 68.174C46.0729 68.175 46.0375 68.1677 46.0021 68.1542C45.9677 68.1396 45.9365 68.1198 45.9104 68.0938C45.6458 67.8386 45.4271 67.55 45.2552 67.2261C45.2375 67.1927 45.2271 67.1573 45.2229 67.1198C45.2198 67.0823 45.224 67.0459 45.2354 67.0105C45.2458 66.974 45.2635 66.9417 45.2875 66.9125C45.3115 66.8844 45.3406 66.8615 45.374 66.8438C45.4073 66.8261 45.4427 66.8157 45.4802 66.8125C45.5167 66.8094 45.5542 66.8125 45.5896 66.824C45.625 66.8354 45.6573 66.8532 45.6865 66.8771C45.7156 66.9011 45.7385 66.9302 45.7562 66.9636C45.901 67.2344 46.0844 67.4761 46.3062 67.6896C46.3323 67.7157 46.3531 67.7459 46.3677 67.7802C46.3823 67.8146 46.3906 67.8511 46.3906 67.8886C46.3906 67.9261 46.3844 67.9625 46.3708 67.9969C46.3562 68.0313 46.3365 68.0625 46.3104 68.0896ZM48.3719 68.8605C48.0687 68.748 47.774 68.6177 47.4865 68.4698C47.449 68.4511 47.4083 68.4396 47.3667 68.4365C47.324 68.4334 47.2833 68.4375 47.2427 68.4511C47.2031 68.4636 47.1667 68.4844 47.1344 68.5115C47.1021 68.5386 47.076 68.5709 47.0573 68.6084C47.0375 68.6459 47.026 68.6854 47.0219 68.7271C47.0187 68.7698 47.0229 68.8104 47.0354 68.8511C47.0479 68.8917 47.0677 68.9282 47.0948 68.9605C47.1208 68.9927 47.1531 69.0188 47.1906 69.0386C47.501 69.198 47.8187 69.3386 48.1458 69.4605C48.1854 69.4761 48.2271 69.4823 48.2687 69.4813C48.3115 69.4802 48.3521 69.4709 48.3917 69.4532C48.4302 69.4354 48.4635 69.4115 48.4927 69.3802C48.5219 69.349 48.5437 69.3136 48.5594 69.274C48.574 69.2334 48.5812 69.1927 48.5792 69.15C48.5781 69.1073 48.5687 69.0667 48.551 69.0282C48.5333 68.9896 48.5094 68.9552 48.4781 68.9261C48.4469 68.8969 48.4115 68.875 48.3719 68.8605ZM48.524 69.2605C48.5021 69.3157 48.4677 69.3594 48.4198 69.3927C48.3708 69.4261 48.3177 69.4438 48.2583 69.4438C48.224 69.4438 48.1906 69.4375 48.1594 69.425C47.8333 69.3042 47.5167 69.1646 47.2083 69.0052C47.175 68.9886 47.1458 68.9657 47.1219 68.9365C47.0979 68.9073 47.0802 68.875 47.0687 68.8396C47.0573 68.8042 47.0531 68.7677 47.0573 68.7302C47.0604 68.6927 47.0708 68.6573 47.0875 68.624C47.1052 68.5907 47.1281 68.5625 47.1562 68.5375C47.1854 68.5136 47.2177 68.4959 47.2531 68.4844C47.2885 68.4729 47.325 68.4698 47.3625 68.4729C47.4 68.4761 47.4354 68.4855 47.4687 68.5032C47.7573 68.6511 48.0542 68.7823 48.3583 68.8959C48.3937 68.9084 48.425 68.9282 48.4521 68.9542C48.4792 68.9792 48.501 69.0094 48.5167 69.0438C48.5323 69.0782 48.5406 69.1136 48.5417 69.1511C48.5427 69.1886 48.5365 69.225 48.524 69.2605ZM49.4177 61.4615C49.4021 61.4219 49.3802 61.3865 49.351 61.3552C49.3219 61.325 49.2875 61.3011 49.249 61.2834C49.2094 61.2667 49.1687 61.2573 49.126 61.2563C49.0844 61.2552 49.0427 61.2615 49.0031 61.2771C48.6656 61.4073 48.3458 61.5438 48.0542 61.6834C48.0156 61.7011 47.9823 61.7261 47.9542 61.7584C47.925 61.7896 47.9042 61.8261 47.8896 61.8657C47.876 61.9063 47.8698 61.9469 47.8719 61.9896C47.874 62.0323 47.8844 62.073 47.9031 62.1104C47.9302 62.1667 47.9687 62.2105 48.0219 62.2438C48.074 62.2771 48.1302 62.2927 48.1927 62.2938C48.2406 62.2938 48.2865 62.2834 48.3302 62.2625C48.6083 62.1292 48.9115 62 49.2333 61.8761C49.2729 61.8604 49.3083 61.8386 49.3396 61.8094C49.3698 61.7792 49.3937 61.7459 49.4115 61.7063C49.4281 61.6677 49.4375 61.6271 49.4385 61.5844C49.4396 61.5417 49.4323 61.5011 49.4177 61.4615ZM49.2198 61.8407C48.8979 61.9646 48.5927 62.0948 48.3146 62.2282C48.276 62.2469 48.2354 62.2552 48.1927 62.2552C48.074 62.2552 47.9885 62.2021 47.9375 62.0948C47.9208 62.0604 47.9115 62.025 47.9094 61.9875C47.9083 61.95 47.9135 61.9136 47.926 61.8782C47.9385 61.8427 47.9573 61.8115 47.9823 61.7834C48.0073 61.7552 48.0365 61.7334 48.0708 61.7177C48.3615 61.5782 48.6802 61.4417 49.0167 61.3125C49.0521 61.299 49.0885 61.2927 49.126 61.2938C49.1635 61.2948 49.199 61.3032 49.2333 61.3177C49.2677 61.3334 49.2979 61.3542 49.324 61.3813C49.349 61.4094 49.3687 61.4396 49.3823 61.475C49.3958 61.5104 49.4021 61.5459 49.401 61.5834C49.4 61.6209 49.3927 61.6573 49.3771 61.6917C49.3615 61.7261 49.3406 61.7563 49.3135 61.7813C49.2865 61.8073 49.2552 61.8271 49.2198 61.8407ZM47.2083 62.7834C47.2187 62.7198 47.2104 62.6584 47.1823 62.599C47.1552 62.5407 47.1135 62.4938 47.0583 62.4605C47.0031 62.4271 46.9427 62.4115 46.8781 62.4136C46.8135 62.4167 46.7552 62.4375 46.7021 62.475C46.4135 62.6844 46.1479 62.9188 45.9042 63.1792C45.875 63.2105 45.8542 63.2459 45.8385 63.2854C45.824 63.325 45.8177 63.3667 45.8198 63.4094C45.8208 63.4521 45.8312 63.4927 45.849 63.5313C45.8667 63.5698 45.8906 63.6032 45.9219 63.6323C45.9531 63.6604 45.9896 63.6823 46.0292 63.6969C46.0687 63.7125 46.1104 63.7188 46.1531 63.7167C46.1948 63.7157 46.2354 63.7052 46.274 63.6875C46.3125 63.6698 46.3469 63.6448 46.376 63.6136C46.5906 63.3844 46.825 63.1771 47.0802 62.9938C47.1521 62.9417 47.1948 62.8709 47.2083 62.7834ZM46.3479 63.5886C46.3219 63.6157 46.2927 63.6365 46.2583 63.6521C46.225 63.6677 46.1885 63.6761 46.151 63.6782C46.1146 63.6792 46.0781 63.673 46.0427 63.6604C46.0083 63.648 45.9771 63.6282 45.949 63.6032C45.9219 63.5771 45.9 63.5479 45.8844 63.5136C45.8687 63.4802 45.8604 63.4448 45.8583 63.4073C45.8573 63.3698 45.8625 63.3334 45.875 63.2979C45.8875 63.2636 45.9073 63.2323 45.9323 63.2042C46.174 62.9459 46.4375 62.7125 46.725 62.5052C46.774 62.4698 46.8302 62.4511 46.8906 62.4511C46.9062 62.4511 46.9208 62.4521 46.9354 62.4542C46.9917 62.4636 47.0417 62.4875 47.0833 62.5261C47.125 62.5646 47.1531 62.6115 47.1667 62.6677C47.1802 62.7229 47.1771 62.7782 47.1573 62.8313C47.1375 62.8854 47.1052 62.9292 47.0583 62.9625C46.801 63.148 46.5646 63.3563 46.3479 63.5886Z" fill="#9F85EC"/>
</g>
</svg>
